<?xml version="1.0" encoding="UTF-8" standalone="no"?>
<!-- Created with Inkscape (http://www.inkscape.org/) -->

<svg
   xmlns:dc="http://purl.org/dc/elements/1.1/"
   xmlns:cc="http://creativecommons.org/ns#"
   xmlns:rdf="http://www.w3.org/1999/02/22-rdf-syntax-ns#"
   xmlns:svg="http://www.w3.org/2000/svg"
   xmlns="http://www.w3.org/2000/svg"
   xmlns:sodipodi="http://sodipodi.sourceforge.net/DTD/sodipodi-0.dtd"
   xmlns:inkscape="http://www.inkscape.org/namespaces/inkscape"
   version="1.1"
   id="svg9542"
   width="67"
   height="100"
   viewBox="0 0 67 100"
   sodipodi:docname="bg-pattern.svg"
   inkscape:version="0.92.4 (5da689c313, 2019-01-14)">
  <metadata
     id="metadata9548">
    <rdf:RDF>
      <cc:Work
         rdf:about="">
        <dc:format>image/svg+xml</dc:format>
        <dc:type
           rdf:resource="http://purl.org/dc/dcmitype/StillImage" />
        <dc:title></dc:title>
      </cc:Work>
    </rdf:RDF>
  </metadata>
  <defs
     id="defs9546" />
  <sodipodi:namedview
     pagecolor="#ffffff"
     bordercolor="#666666"
     borderopacity="1"
     objecttolerance="10"
     gridtolerance="10"
     guidetolerance="10"
     inkscape:pageopacity="0"
     inkscape:pageshadow="2"
     inkscape:window-width="1920"
     inkscape:window-height="1017"
     id="namedview9544"
     showgrid="false"
     inkscape:zoom="6.675088"
     inkscape:cx="65.706605"
     inkscape:cy="37.472783"
     inkscape:window-x="-8"
     inkscape:window-y="-8"
     inkscape:window-maximized="1"
     inkscape:current-layer="svg9542" />
  <g
     id="g9552"
     transform="translate(-0.02570499,-0.37232155)">
    <path
       style="fill:#ffffff"
       d="M 0,50 V 0 H 33.5 67 v 50 50 H 33.5 0 Z"
       id="path9568"
       inkscape:connector-curvature="0" />
    <path
       style="fill:#fefefe"
       d="M 31.221549,98.392085 C 30.435532,97.550651 30,93.669557 30,87.506669 V 77.928925 L 25.75,76.139441 C 23.4125,75.155225 17.190295,72.848798 11.922877,71.014049 3.6466568,68.131272 2.1634168,67.266212 1.003404,64.645562 0.00416263,62.388119 -0.04002528,61.513342 0.8305269,61.223158 1.4737371,61.008754 2,60.184695 2,59.391916 c 0,-0.79278 1.0125,-1.808076 2.25,-2.256213 1.2375,-0.448138 7.5375,-2.736074 14,-5.084302 L 30,47.781894 V 32.783958 C 30,21.207375 29.714848,17.890773 28.75,18.245212 10.096127,25.097739 3.0269684,27.104045 1.7474842,25.908828 0.69789044,24.928361 0.62280356,24.07489 1.4337947,22.343293 2.2154597,20.674312 4.9788476,19.194467 11.788529,16.798144 22.549248,13.011451 22.477932,12.660994 10.105256,8.5263407 4.4457891,6.6350817 2.2146645,5.369208 1.3847459,3.5785825 L 0.2694918,1.1723195 5.8847459,1.6666683 C 8.9731357,1.9385601 15.447798,3.4747882 20.272885,5.0805085 25.097972,6.6862288 29.260472,8 29.522885,8 29.785298,8 30,6.8428571 30,5.4285714 30,1.9455337 32.10526,-0.18324228 33.778451,1.6079145 34.450303,2.3271346 35,4.0595803 35,5.4577937 35,6.8560072 35.3375,7.9983679 35.75,7.996373 36.1625,7.9943782 40.1,6.6460104 44.5,5 48.9,3.3539896 54.391326,2.0056218 56.702947,2.003627 59.014568,2.0016321 62.05397,1.4769017 63.457173,0.83755944 64.860377,0.19821713 66.34405,0.03482427 66.754226,0.4744642 67.164402,0.91410413 66.9375,1.4747024 66.25,1.7202381 65.5625,1.9657738 65,2.7614228 65,3.4883471 65,4.2582625 60.616541,6.3995278 54.5,8.6174667 48.725,10.711558 44,12.719826 44,13.080283 c 0,0.360458 4.725,2.338808 10.5,4.396333 6.509102,2.319072 10.5,4.269735 10.5,5.132169 0,0.765168 0.3375,1.391351 0.75,1.391517 0.4125,1.66e-4 0.664407,8.887666 0.559794,19.75 -0.104613,10.862334 -0.217113,27.994341 -0.25,38.071127 C 66.006644,98.107143 65.833333,99.97619 64.5,98.642857 63.300392,97.443249 63,94.147741 63,82.186814 V 67.230771 L 49.25,72.433235 35.5,77.6357 35.212474,87.426805 C 34.913348,97.612916 33.67417,101.01762 31.221549,98.392085 Z M 43.447056,66.987703 c 6.020881,-2.193237 11.195881,-4.013487 11.5,-4.045002 C 55.251175,62.911187 50.325,60.953376 44,58.59201 l -11.5,-4.293392 -9,3.266273 C 9.3840373,62.687845 9.3057974,62.724257 11,63.382247 c 4.220019,1.638959 20.567188,7.518673 21,7.553233 0.275,0.02196 5.426175,-1.754541 11.447056,-3.947777 z M 63,42.975249 V 27.950498 L 60.25,26.877504 C 56.163095,25.282877 38.768086,18.943514 36.75,18.313264 35.1367,17.809429 35,18.941104 35,32.800661 v 15.033923 l 4.25,1.58596 c 2.3375,0.872279 8.3,3.114658 13.25,4.983065 4.95,1.868408 9.3375,3.441944 9.75,3.496748 0.4125,0.0548 0.75,-6.661495 0.75,-14.925108 z"
       id="path9566"
       inkscape:connector-curvature="0" />
    <path
       style="fill:#fdfdfd"
       d="M 31.221549,98.392085 C 30.421066,97.535165 30,93.487411 30,86.649195 30,79.219991 29.63992,76.077704 28.75,75.74091 28.0625,75.480722 22.1,73.344512 15.5,70.993775 -5.4711405,63.524439 -5.3665952,62.01214 16.673839,54.01364 L 29.5,49.35901 29.774515,32.605337 c 0.182049,-11.110476 -0.06625,-16.54307 -0.737151,-16.128429 -3.54008,2.18789 -26.4414841,9.396315 -27.6693352,8.709175 -2.529056,-1.415331 1.3888345,-3.804953 13.1142692,-7.99873 l 10.932635,-3.91022 -4.476561,-1.980196 C 18.476263,10.20783 13.485192,8.3261867 9.8471029,7.1155084 6.2090137,5.9048302 2.4179343,4.014306 1.4224821,2.9143437 -0.36739342,0.9365535 -0.3382344,0.92166691 4.0562845,1.5697048 6.500328,1.9301158 13.3375,3.912284 19.25,5.9745232 L 30,9.7240488 V 6.2905958 C 30,2.0689835 31.950767,-0.34862691 33.778451,1.6079145 34.450303,2.3271346 35,4.4569461 35,6.340829 V 9.7660705 L 45.697056,5.8830353 C 51.580437,3.7473659 57.409263,2 58.650003,2 59.890743,2 62.05397,1.4769017 63.457173,0.83755944 64.860377,0.19821713 66.285122,-0.04821144 66.623274,0.28994039 67.98189,1.6485564 63.918541,3.8479709 52.252072,8.0688019 c -6.736361,2.4371591 -12.248861,4.6765311 -12.25,4.9763831 -0.0011,0.299851 5.510428,2.529863 12.247928,4.955581 6.7375,2.425718 12.7,4.82585 13.25,5.333628 0.61422,0.567067 0.926622,8.492699 0.809794,20.544419 -0.104613,10.791653 -0.217113,27.86583 -0.25,37.942616 C 66.006644,98.107143 65.833333,99.97619 64.5,98.642857 63.294231,97.437088 63,94.067477 63,81.46444 63,66.933051 62.871971,65.83715 61.25,66.484875 c -0.9625,0.384369 -7.2625,2.74986 -14,5.256648 L 35,76.299318 v 10.421769 c 0,10.903816 -1.156922,14.477353 -3.778451,11.670998 z m 13.66821,-30.52703 c 6.385633,-2.27422 11.968615,-4.455094 12.406627,-4.846386 0.438012,-0.391292 -4.995316,-2.821196 -12.074063,-5.399786 L 32.351875,52.930537 19.60781,57.59714 c -7.009236,2.566632 -12.3759084,5.032555 -11.925938,5.479829 1.0012029,0.995203 22.270851,8.784265 24.207887,8.865062 0.764368,0.03188 6.614368,-1.802756 13,-4.076976 z M 63,42.667781 V 26.335562 L 59.75,25.267069 C 54.196557,23.441278 42.679746,19.210607 38.725714,17.543852 L 34.951428,15.952865 35.225714,32.705867 35.5,49.458868 48,54.122302 c 6.875,2.564889 13.0625,4.711643 13.75,4.770566 0.953349,0.08171 1.25,-3.768841 1.25,-16.225087 z"
       id="path9564"
       inkscape:connector-curvature="0" />
    <path
       style="fill:#fcfcfc"
       d="M 31.623539,98.461341 C 31.280592,97.567637 31,92.42833 31,87.040657 31,80.189559 30.606589,76.918387 29.691274,76.158743 28.971474,75.561362 22.338691,72.84849 14.951757,70.130138 7.564822,67.411786 1.066249,64.446418 0.5104832,63.540431 -0.82826047,61.358066 0.48543456,60.630693 16.172496,54.868618 23.142368,52.308487 29.329868,49.914164 29.922496,49.5479 31.279596,48.709166 31.425703,16 30.072349,16 29.562141,16 23.063766,18.180513 15.631516,20.845584 8.199266,23.510656 1.5823586,25.359917 0.9272772,24.955055 -0.89087737,23.831374 3.0974877,21.7554 15.25,17.499973 21.1625,15.429601 26,13.420639 26,13.035612 26,12.650584 24.5375,11.846634 22.75,11.249056 11.823724,7.5962961 2.2959546,3.7004714 1,2.355664 -0.35029567,0.95446708 -0.15068991,0.8658671 3,1.4679143 4.925,1.8357515 11.499608,3.9059496 17.610241,6.0683546 23.720873,8.2307596 29.233373,10 29.860241,10 30.490962,10 31,8.473361 31,6.5817875 31,4.7017706 31.287624,2.41404 31.639163,1.4979417 32.613608,-1.0414194 33.966103,1.6987509 33.984687,6.25 c 0.0084,2.0625 0.416811,3.75 0.90753,3.75 0.49072,0 6.22822,-1.8247981 12.75,-4.0551068 C 64.398977,0.21444166 66.069597,-0.26373648 66.795906,0.4625729 67.814835,1.481502 65.378827,2.6452734 51.75,7.6505589 44.7375,10.22595 39,12.647848 39,13.032554 c 0,0.384706 2.8125,1.711345 6.25,2.948087 3.4375,1.236743 9.625,3.536519 13.75,5.110614 l 7.5,2.86199 -0.190206,19.773378 C 66.205181,54.60198 66.08579,71.825 66.044482,82 65.994406,94.334431 65.646307,100.00009 65,99 64.466844,98.175 64.023735,90.4125 64.015313,81.75 64.003504,69.603621 63.706271,66 62.716225,66 c -0.706076,0 -7.343576,2.204186 -14.75,4.89819 L 34.5,75.79638 34,87.319365 C 33.508758,98.640523 32.859822,101.68304 31.623539,98.461341 Z M 45.5,68.32808 C 59.627411,63.243091 59.592086,63.258752 58.775675,62.442342 57.667131,61.333797 34.448697,53.023963 32.426809,53.012132 29.639316,52.99582 6.6728479,61.481456 6.2751194,62.674642 6.037301,63.388097 29.329808,72.699838 32,72.958782 c 0.275,0.02667 6.35,-2.057147 13.5,-4.630702 z M 64,43.622445 C 64,26.05998 64.03665,26.189225 58.5,24.226924 56.85,23.64213 51.062099,21.551839 45.637998,19.581831 40.213896,17.611824 35.376396,16 34.887998,16 33.418752,16 33.770916,48.740298 35.25,49.654979 37.022954,50.751393 61.242795,59.771065 62.75,59.896211 63.703342,59.975368 64,56.113177 64,43.622445 Z"
       id="path9562"
       inkscape:connector-curvature="0" />
    <path
       style="fill:#fafafa"
       d="M 32.215033,88.904988 C 32.036238,79.264009 31.705084,77.061234 30.25,75.833972 29.2875,75.02217 23.775,72.67665 18,70.621705 3.4416833,65.441351 0,63.88543 0,62.484242 0,61.817637 6.6375,58.912328 14.75,56.028001 22.8625,53.143674 30.0625,50.327321 30.75,49.76944 32.528756,48.326045 32.538301,16.3461 30.76015,15.753384 29.336653,15.278884 25.017626,16.570108 13,21.062993 3.0933667,24.766665 -0.99394359,25.781359 0.51217672,24.163151 1.0688739,23.565023 5.5688739,21.681091 10.512177,19.976634 21.826263,16.075523 27,13.888548 27,13.007115 27,12.32845 19.532549,9.2853323 7.2287521,4.9499848 3.7795657,3.7346346 0.71550804,2.3486993 0.41973506,1.8701286 -0.40241673,0.53985905 1.1488068,0.80783282 7.5934495,3.1093873 26.045837,9.6992292 30.191207,10.999862 31.050095,10.469039 31.572543,10.146149 32.081112,7.5460237 32.180248,4.690983 L 32.360496,-0.5 32.74446,4.4806681 C 32.95564,7.2200356 33.628977,9.7706949 34.240763,10.1488 34.85255,10.526905 39.661155,9.2493224 44.926551,7.3097277 57.620193,2.6338183 66.288875,-0.04445866 66.864966,0.53163283 67.577748,1.2444143 67.256525,1.3890461 56,5.4236197 41.075953,10.77271 37.897638,12.192913 38.280479,13.341438 c 0.185542,0.556625 6.610838,3.204673 14.278435,5.884551 L 66.5,24.098494 66.242427,61.723487 c -0.141666,20.693746 -0.479166,37.846585 -0.75,38.11742 C 65.221592,100.11174 65,92.634891 65,83.225684 65,72.455126 64.614566,65.879822 63.959479,65.474957 62.710528,64.703063 37.231395,73.714569 34.780634,75.794983 33.375713,76.9876 33.00355,79.380142 32.745667,88.877264 L 32.430065,100.5 Z M 47.162039,68.36638 C 54.26559,65.817888 59.92548,63.276439 59.739571,62.718714 59.426607,61.77982 39.612998,53.872637 34.116526,52.49311 32.783321,52.158497 30.524201,52.333716 29.096259,52.882485 27.668316,53.431254 22,55.521885 16.5,57.528331 6.4056511,61.210835 4.1144222,62.447756 5.2618941,63.595227 c 1.2038001,1.203801 24.2549209,9.3085 26.6113519,9.356465 1.305285,0.02657 8.185242,-2.036821 15.288793,-4.585312 z M 65,43 C 65,31.106802 64.673839,26.9742 63.669388,26.140579 62.535978,25.199932 55.536681,22.451086 39.047209,16.470668 33.084191,14.307994 33,14.530944 33,32.484544 c 0,12.490877 0.315635,16.53252 1.358724,17.398207 0.747298,0.620202 6.709798,2.972285 13.25,5.226851 6.540202,2.254566 12.561517,4.467911 13.3807,4.918545 C 64.371818,61.888806 65,59.221664 65,43 Z"
       id="path9560"
       inkscape:connector-curvature="0" />
    <path
       style="fill:#f8f8f8"
       d="M 65.078947,82.79969 C 65.008743,67.05961 64.806195,64.983213 63.25,64.050425 61.583333,63.05142 61.583333,62.936662 63.25,61.640492 64.802333,60.433241 65,58.230583 65,42.139757 65,32.162891 65.3375,23.999801 65.75,23.999558 66.509457,23.99911 66.335682,97.654953 65.571873,99.5 65.344185,100.05 65.122368,92.534861 65.078947,82.79969 Z M 0.15,63.05 C 0.5797117,61.760865 1.9513066,61.529297 2.075,62.725 2.11625,63.12375 1.61,63.63 0.95,63.85 0.29,64.07 -0.07,63.71 0.15,63.05 Z M 29.466321,13.945506 c -0.397403,-0.643012 -0.1024,-1.571379 0.655564,-2.063037 C 32.145626,10.569755 35.5,11.266768 35.5,13 c 0,1.829374 -5.002894,2.613351 -6.033679,0.945506 z M 0.5,2 C 0.16008131,1.45 0.61008131,1 1.5,1 2.3899187,1 2.8399187,1.45 2.5,2 2.1600813,2.55 1.7100813,3 1.5,3 1.2899187,3 0.83991869,2.55 0.5,2 Z m 63,-1 C 66.23138,-0.17371426 67,-0.17371426 67,1 67,1.55 65.7625,1.9683716 64.25,1.9297147 61.813156,1.8674332 61.72775,1.7615621 63.5,1 Z"
       id="path9558"
       inkscape:connector-curvature="0" />
    <path
       style="fill:#f6f6f6"
       d="M 65.019929,82 C 64.773397,48.942322 65.09496,25.515315 65.805074,24.799339 66.532914,24.065492 66.308931,97.760348 65.578034,99.5 65.346958,100.05 65.09581,92.175 65.019929,82 Z M 0,63.059017 C 0,62.541476 0.375,61.886271 0.83333333,61.603006 1.2916667,61.31974 1.6666667,61.743182 1.6666667,62.543989 1.6666667,63.344795 1.2916667,64 0.83333333,64 0.375,64 0,63.576558 0,63.059017 Z M 31,13 c 0,-0.55 0.675,-1 1.5,-1 0.825,0 1.5,0.45 1.5,1 0,0.55 -0.675,1 -1.5,1 C 31.675,14 31,13.55 31,13 Z M 63,1.6069888 C 63,0.65835769 65.993378,0.18026912 66.526992,1.0436739 66.852065,1.5696533 66.191476,2 65.059017,2 63.926558,2 63,1.823145 63,1.6069888 Z"
       id="path9556"
       inkscape:connector-curvature="0" />
    <path
       style="fill:#f4f4f4"
       d="m 65,62.5 c 0,-20.808333 0.230443,-37.60289 0.512096,-37.321238 0.670745,0.670746 0.67283,73.969646 0.0021,74.640353 C 65.231398,100.10193 65,83.308333 65,62.5 Z"
       id="path9554"
       inkscape:connector-curvature="0" />
  </g>
</svg>
