<?xml version="1.0" encoding="UTF-8" standalone="no"?>
<svg
   xmlns:dc="http://purl.org/dc/elements/1.1/"
   xmlns:cc="http://creativecommons.org/ns#"
   xmlns:rdf="http://www.w3.org/1999/02/22-rdf-syntax-ns#"
   xmlns:svg="http://www.w3.org/2000/svg"
   xmlns="http://www.w3.org/2000/svg"
   xmlns:sodipodi="http://sodipodi.sourceforge.net/DTD/sodipodi-0.dtd"
   xmlns:inkscape="http://www.inkscape.org/namespaces/inkscape"
   viewBox="0 0 126.49582 84.715891"
   version="1.1"
   id="svg17"
   sodipodi:docname="codificab2.svg"
   inkscape:version="0.92.4 (5da689c313, 2019-01-14)"
   width="126.49582"
   height="84.715889">
  <metadata
     id="metadata21">
    <rdf:RDF>
      <cc:Work
         rdf:about="">
        <dc:format>image/svg+xml</dc:format>
        <dc:type
           rdf:resource="http://purl.org/dc/dcmitype/StillImage" />
        <dc:title></dc:title>
      </cc:Work>
    </rdf:RDF>
  </metadata>
  <sodipodi:namedview
     pagecolor="#ffffff"
     bordercolor="#666666"
     borderopacity="1"
     objecttolerance="10"
     gridtolerance="10"
     guidetolerance="10"
     inkscape:pageopacity="0"
     inkscape:pageshadow="2"
     inkscape:window-width="1920"
     inkscape:window-height="1017"
     id="namedview19"
     showgrid="false"
     inkscape:zoom="1.6815693"
     inkscape:cx="98.309269"
     inkscape:cy="15.610081"
     inkscape:window-x="-8"
     inkscape:window-y="-8"
     inkscape:window-maximized="1"
     inkscape:current-layer="svg17" />
  <defs
     id="SvgjsDefs1032">
    <linearGradient
       id="SvgjsLinearGradient1037">
      <stop
         id="SvgjsStop1038"
         stop-color="#8f5e25"
         offset="0" />
      <stop
         id="SvgjsStop1039"
         stop-color="#fbf4a1"
         offset="0.5" />
      <stop
         id="SvgjsStop1040"
         stop-color="#8f5e25"
         offset="1" />
    </linearGradient>
    <linearGradient
       id="SvgjsLinearGradient1041">
      <stop
         id="SvgjsStop1042"
         stop-color="#8f5e25"
         offset="0" />
      <stop
         id="SvgjsStop1043"
         stop-color="#fbf4a1"
         offset="0.5" />
      <stop
         id="SvgjsStop1044"
         stop-color="#8f5e25"
         offset="1" />
    </linearGradient>
  </defs>
  <g
     id="SvgjsG1033-1"
     featurekey="symbolFeature-0"
     transform="matrix(0.70153228,0,0,0.70153228,27.512375,24.997956)"
     style="fill:#ffffff">
    <path
       inkscape:connector-curvature="0"
       style="text-indent:0;text-transform:none;direction:ltr;baseline-shift:baseline;fill:#ffffff;enable-background:accumulate"
       d="m 29.219,14.875 c -2.477,0 -4.451,0.14 -5.938,0.437 -1.486,0.298 -2.741,0.807 -3.781,1.5 -1.362,0.868 -2.318,2.077 -2.875,3.626 -0.557,1.548 -0.844,4.209 -0.844,8 V 37.5 c 0,3.79 -0.669,6.445 -2.031,7.969 -1.362,1.523 -3.712,2.281 -7.0312,2.281 -0.1735,0 -0.441,-0.006 -0.8126,-0.031 -0.3715,-0.025 -0.6768,-0.031 -0.875,-0.031 v 4.718 c 0.1982,0 0.5035,-0.006 0.875,-0.031 0.3716,-0.025 0.6391,-0.062 0.8126,-0.063 3.3192,0.001 5.6692,0.771 7.0312,2.282 1.362,1.511 2.031,4.141 2.031,7.906 v 9.062 c 0,3.692 0.287,6.353 0.844,7.938 0.557,1.585 1.513,2.796 2.875,3.688 1.04,0.693 2.314,1.202 3.812,1.5 1.499,0.297 3.454,0.437 5.907,0.437 h 1.312 V 80.5 h -1.437 c -3.122,0 -5.235,-0.598 -6.313,-1.75 -1.077,-1.152 -1.625,-3.559 -1.625,-7.25 v -9 c 0,-4.112 -0.516,-7.028 -1.594,-8.75 -1.077,-1.722 -3,-2.944 -5.75,-3.688 2.75,-0.767 4.673,-2.028 5.75,-3.75 1.078,-1.721 1.594,-4.637 1.594,-8.75 v -8.968 c 0,-3.716 0.56,-6.18 1.625,-7.344 1.065,-1.164 3.097,-1.75 6.094,-1.75 0.173,0 0.441,0.038 0.813,0.062 0.371,0.025 0.645,0.032 0.843,0.032 v -4.719 z m 40.406,0 V 19.5 h 1.469 c 3.096,0 5.191,0.605 6.281,1.781 1.09,1.177 1.625,3.622 1.625,7.313 v 8.968 c 0,4.113 0.547,7.029 1.625,8.75 1.078,1.722 2.969,2.983 5.719,3.75 -2.75,0.744 -4.641,1.966 -5.719,3.688 C 79.547,55.472 79,58.388 79,62.5 v 8.906 c 0,3.741 -0.547,6.23 -1.625,7.406 -1.078,1.177 -3.09,1.75 -6.063,1.75 -0.173,0 -0.44,-0.006 -0.812,-0.031 C 70.128,80.506 69.823,80.5 69.625,80.5 v 4.625 h 1.531 c 2.527,0 4.52,-0.121 5.969,-0.406 1.449,-0.285 2.659,-0.762 3.625,-1.407 1.338,-0.891 2.267,-2.114 2.812,-3.687 0.545,-1.573 0.813,-4.272 0.813,-8.063 v -9 c 0,-3.765 0.688,-6.401 2.063,-7.937 1.374,-1.536 3.749,-2.312 7.093,-2.313 0.174,0.001 0.441,0.038 0.813,0.063 0.371,0.025 0.645,0.031 0.844,0.031 v -4.718 c -0.199,0 -0.473,0.006 -0.844,0.031 -0.372,0.025 -0.639,0.031 -0.813,0.031 -3.344,0 -5.719,-0.777 -7.093,-2.312 -1.375,-1.536 -2.063,-4.173 -2.063,-7.938 v -9.062 c 0,-3.766 -0.268,-6.44 -0.813,-8 -0.545,-1.561 -1.474,-2.758 -2.812,-3.626 -1.04,-0.668 -2.333,-1.159 -3.844,-1.468 -1.511,-0.31 -3.491,-0.469 -5.968,-0.469 z M 36.5,22.969 c -4.279,0 -7.781,3.564 -7.781,7.843 0,3.442 2.26,6.354 5.375,7.376 v 23.593 c -3.116,1.03 -5.375,3.996 -5.375,7.438 0,4.279 3.502,7.781 7.781,7.781 4.279,0 7.812,-3.502 7.812,-7.781 0,-3.442 -2.29,-6.408 -5.406,-7.438 v -0.375 c 0,-3.557 1.089,-4.956 3.094,-6.218 2.005,-1.263 5.155,-2.043 8.562,-2.876 3.408,-0.832 7.098,-1.742 10.157,-4.031 2.779,-2.079 4.783,-5.441 5.125,-10.062 3.144,-1.004 5.468,-3.944 5.468,-7.407 0,-4.279 -3.533,-7.843 -7.812,-7.843 -4.279,0 -7.781,3.564 -7.781,7.843 0,3.421 2.258,6.337 5.343,7.376 -0.253,3.289 -1.448,4.957 -3.218,6.281 -2.004,1.499 -5.064,2.37 -8.406,3.187 -3.343,0.817 -6.943,1.544 -10,3.469 -0.184,0.116 -0.354,0.248 -0.532,0.375 V 38.188 c 3.115,-1.022 5.406,-3.934 5.406,-7.376 0,-4.279 -3.533,-7.843 -7.812,-7.843 z m 0,4.812 c 1.685,0 3.031,1.346 3.031,3.031 0,1.686 -1.346,2.969 -3.031,2.969 -1.685,0 -3,-1.283 -3,-2.969 0,-1.685 1.315,-3.031 3,-3.031 z m 27,0 c 1.685,0 3.031,1.346 3.031,3.031 0,1.686 -1.346,2.969 -3.031,2.969 -1.685,0 -3,-1.283 -3,-2.969 0,-1.685 1.315,-3.031 3,-3.031 z m -27,38.407 c 1.685,0 3.031,1.345 3.031,3.031 0,1.685 -1.346,2.969 -3.031,2.969 -1.685,0 -3,-1.284 -3,-2.969 0,-1.686 1.315,-3.031 3,-3.031 z"
       id="path11-9" />
  </g>
  <g
     id="SvgjsG1034-0"
     featurekey="nameFeature-0"
     transform="matrix(0.87868729,0,0,0.87868729,-0.73809732,-8.6111354)"
     style="fill:#ffffff">
    <path
       inkscape:connector-curvature="0"
       d="m 17.72,33.4 v 6 c -2.04,0.68 -4.16,0.88 -6.28,0.88 -6.2,0 -10.6,-4.12 -10.6,-10.24 0,-6.36 4.56,-10.24 10.6,-10.24 2.12,0 4.24,0.2 6.28,0.88 v 6 c -1.76,-0.92 -3.96,-1.16 -5.92,-1.16 -1.32,0 -2.92,0.28 -3.84,1.32 -0.84,0.84 -1.12,2.04 -1.12,3.16 0,0.64 0.08,1.24 0.28,1.76 0.16,0.56 0.44,1.04 0.84,1.44 0.88,1.08 2.52,1.36 3.84,1.36 1.76,0 4.36,-0.32 5.92,-1.16 z m 13.2,1.24 c 2.92,0 4.6,-1.72 4.6,-4.64 0,-2.92 -1.68,-4.64 -4.6,-4.64 -2.92,0 -4.6,1.72 -4.6,4.64 0,2.92 1.68,4.64 4.6,4.64 z m 0,5.56 c -6.16,0 -10.6,-4.08 -10.6,-10.2 0,-6.32 4.6,-10.2 10.6,-10.2 6.2,0 10.6,4.08 10.6,10.2 0,6.28 -4.64,10.2 -10.6,10.2 z M 58.4,30 c 0,-3 -1.48,-4.64 -4.52,-4.64 -0.84,0 -1.56,0.12 -2.16,0.36 -1.12,0.52 -1.88,1.28 -2.24,2.48 -0.2,0.56 -0.28,1.16 -0.28,1.8 0,0.64 0.08,1.24 0.28,1.8 0.32,1.16 1.16,2 2.24,2.44 0.6,0.28 1.32,0.4 2.16,0.4 3.04,0 4.52,-1.64 4.52,-4.64 z m 0,-8 V 12 h 6 v 18 c 0,6.36 -4.52,10.2 -10.56,10.2 -6.16,0 -10.64,-4 -10.64,-10.12 0,-5.64 4.16,-10.28 9.84,-10.28 2.12,0 3.96,0.6 5.36,2.2 z m 9.8,-2 h 6 v 20 h -6 z m 3,-1.88 c -2.04,0 -3.48,-1.44 -3.48,-3.48 0,-2.08 1.44,-3.44 3.48,-3.44 2.08,0 3.44,1.36 3.44,3.44 0,2.12 -1.32,3.48 -3.44,3.48 z m 18.12,2.56 v 5.56 H 84.4 V 40 h -6 V 20.04 C 78.4,13.4 83.28,9.8 89.44,9.8 c 0.2,0 0.48,0 0.76,0.04 0.28,0.04 0.6,0.12 0.88,0.16 v 5.8 c -0.2,-0.04 -0.44,-0.08 -0.72,-0.12 -0.28,-0.04 -0.52,-0.08 -0.72,-0.08 -1,0 -1.8,0.12 -2.48,0.32 -1.12,0.4 -2.12,1.16 -2.48,2.36 C 84.48,18.8 84.4,19.4 84.4,20 v 0.68 z M 93.48,20 h 6 v 20 h -6 z m 3,-1.88 c -2.04,0 -3.48,-1.44 -3.48,-3.48 0,-2.08 1.44,-3.44 3.48,-3.44 2.08,0 3.44,1.36 3.44,3.44 0,2.12 -1.32,3.48 -3.44,3.48 z M 119.4,33.4 v 6 c -2.04,0.68 -4.16,0.88 -6.28,0.88 -6.2,0 -10.6,-4.12 -10.6,-10.24 0,-6.36 4.56,-10.24 10.6,-10.24 2.12,0 4.24,0.2 6.28,0.88 v 6 c -1.76,-0.92 -3.96,-1.16 -5.92,-1.16 -1.32,0 -2.92,0.28 -3.84,1.32 -0.84,0.84 -1.12,2.04 -1.12,3.16 0,0.64 0.08,1.24 0.28,1.76 0.16,0.56 0.44,1.04 0.84,1.44 0.88,1.08 2.52,1.36 3.84,1.36 1.76,0 4.36,-0.32 5.92,-1.16 z M 137.2,30 c -0.16,-2.92 -1.48,-4.64 -4.52,-4.64 -0.84,0 -1.56,0.12 -2.16,0.36 -1.84,0.84 -2.52,2.4 -2.52,4.32 0,0.64 0.08,1.24 0.28,1.76 0.6,2.08 2.4,2.84 4.4,2.84 3.04,0 4.52,-1.64 4.52,-4.64 z m 7.6,10 h -6 c -0.4,-1 -0.76,-2 -1,-3.04 -1.36,2.24 -3.44,3.24 -6,3.24 -5.72,0 -9.8,-4.8 -9.8,-10.28 0,-6.32 4.72,-10.12 10.68,-10.12 6.36,0 10.36,4.08 10.52,10.2 0.04,0.52 0.04,1.12 0.04,1.84 0,2.8 0.44,5.6 1.56,8.16 z"
       id="path14-9"
       style="fill:#ffffff" />
  </g>
</svg>
