<?xml version="1.0" encoding="UTF-8" standalone="no"?>
<!-- Created with Inkscape (http://www.inkscape.org/) -->

<svg
   xmlns:dc="http://purl.org/dc/elements/1.1/"
   xmlns:cc="http://creativecommons.org/ns#"
   xmlns:rdf="http://www.w3.org/1999/02/22-rdf-syntax-ns#"
   xmlns:svg="http://www.w3.org/2000/svg"
   xmlns="http://www.w3.org/2000/svg"
   xmlns:sodipodi="http://sodipodi.sourceforge.net/DTD/sodipodi-0.dtd"
   xmlns:inkscape="http://www.inkscape.org/namespaces/inkscape"
   width="135.48778mm"
   height="133.34949mm"
   viewBox="0 0 135.48778 133.34949"
   version="1.1"
   id="svg6577"
   inkscape:version="0.92.4 (5da689c313, 2019-01-14)"
   sodipodi:docname="lanzatucarrera.svg">
  <defs
     id="defs6571" />
  <sodipodi:namedview
     id="base"
     pagecolor="#ffffff"
     bordercolor="#666666"
     borderopacity="1.0"
     inkscape:pageopacity="0.0"
     inkscape:pageshadow="2"
     inkscape:zoom="0.98994949"
     inkscape:cx="-139.08892"
     inkscape:cy="110.26712"
     inkscape:document-units="mm"
     inkscape:current-layer="layer1"
     showgrid="false"
     inkscape:window-width="1920"
     inkscape:window-height="1017"
     inkscape:window-x="-8"
     inkscape:window-y="-8"
     inkscape:window-maximized="1" />
  <metadata
     id="metadata6574">
    <rdf:RDF>
      <cc:Work
         rdf:about="">
        <dc:format>image/svg+xml</dc:format>
        <dc:type
           rdf:resource="http://purl.org/dc/dcmitype/StillImage" />
        <dc:title></dc:title>
      </cc:Work>
    </rdf:RDF>
  </metadata>
  <g
     inkscape:label="Capa 1"
     inkscape:groupmode="layer"
     id="layer1"
     transform="translate(-37.693942,-52.991924)">
    <path
       id="path1036"
       style="fill:#2c5871;fill-opacity:1;fill-rule:nonzero;stroke:none;stroke-width:0.03527778"
       d="m 90.410711,117.69371 c -0.19507,0 -0.35276,-0.15769 -0.35276,-0.3528 v -1.76741 c 0,-0.19508 0.15769,-0.35277 0.35276,-0.35277 0.19474,0 0.35277,0.15769 0.35277,0.35277 v 1.76741 c 0,0.19511 -0.15803,0.3528 -0.35277,0.3528"
       inkscape:connector-curvature="0" />
    <path
       id="path1038"
       style="fill:#2c5871;fill-opacity:1;fill-rule:nonzero;stroke:none;stroke-width:0.03527778"
       d="m 91.294771,116.81 h -1.76811 c -0.1951,0 -0.35279,-0.15806 -0.35279,-0.35279 0,-0.19508 0.15769,-0.35277 0.35279,-0.35277 h 1.76811 c 0.19473,0 0.35279,0.15769 0.35279,0.35277 0,0.19473 -0.15806,0.35279 -0.35279,0.35279"
       inkscape:connector-curvature="0" />
    <path
       id="path1040"
       style="fill:#2c5871;fill-opacity:1;fill-rule:nonzero;stroke:none;stroke-width:0.03527778"
       d="m 114.33045,97.318307 c -0.19473,0 -0.35277,-0.158036 -0.35277,-0.352769 v -1.767414 c 0,-0.195085 0.15804,-0.352777 0.35277,-0.352777 0.1951,0 0.3528,0.157692 0.3528,0.352777 v 1.767414 c 0,0.194733 -0.1577,0.352769 -0.3528,0.352769"
       inkscape:connector-curvature="0" />
    <path
       id="path1042"
       style="fill:#2c5871;fill-opacity:1;fill-rule:nonzero;stroke:none;stroke-width:0.03527778"
       d="m 115.21453,96.434598 h -1.76779 c -0.19508,0 -0.35277,-0.158035 -0.35277,-0.352769 0,-0.195077 0.15769,-0.352774 0.35277,-0.352774 h 1.76779 c 0.19508,0 0.35277,0.157697 0.35277,0.352774 0,0.194734 -0.15769,0.352769 -0.35277,0.352769"
       inkscape:connector-curvature="0" />
    <path
       id="path1044"
       style="fill:#2c5871;fill-opacity:1;fill-rule:nonzero;stroke:none;stroke-width:0.03527778"
       d="m 120.09096,111.04878 c -0.19508,0 -0.35277,-0.15769 -0.35277,-0.35277 v -1.76707 c 0,-0.19508 0.15769,-0.35277 0.35277,-0.35277 0.19473,0 0.35279,0.15769 0.35279,0.35277 v 1.76707 c 0,0.19508 -0.15806,0.35277 -0.35279,0.35277"
       inkscape:connector-curvature="0" />
    <path
       id="path1046"
       style="fill:#2c5871;fill-opacity:1;fill-rule:nonzero;stroke:none;stroke-width:0.03527778"
       d="m 120.97504,110.16541 h -1.76779 c -0.19508,0 -0.35277,-0.15803 -0.35277,-0.35276 0,-0.19508 0.15769,-0.35277 0.35277,-0.35277 h 1.76779 c 0.19507,0 0.35277,0.15769 0.35277,0.35277 0,0.19473 -0.1577,0.35276 -0.35277,0.35276"
       inkscape:connector-curvature="0" />
    <path
       id="path1048"
       style="fill:#2c5871;fill-opacity:1;fill-rule:nonzero;stroke:none;stroke-width:0.03527778"
       d="m 81.327381,103.52051 c -0.19507,0 -0.35277,-0.15806 -0.35277,-0.3528 v -1.76776 c 0,-0.19507 0.1577,-0.35277 0.35277,-0.35277 0.19474,0 0.3528,0.1577 0.3528,0.35277 v 1.76776 c 0,0.19474 -0.15806,0.3528 -0.3528,0.3528"
       inkscape:connector-curvature="0" />
    <path
       id="path1050"
       style="fill:#2c5871;fill-opacity:1;fill-rule:nonzero;stroke:none;stroke-width:0.03527778"
       d="m 82.211461,102.6368 h -1.76779 c -0.19507,0 -0.35276,-0.15806 -0.35276,-0.35279 0,-0.19508 0.15769,-0.35277 0.35276,-0.35277 h 1.76779 c 0.19508,0 0.35277,0.15769 0.35277,0.35277 0,0.19473 -0.15769,0.35279 -0.35277,0.35279"
       inkscape:connector-curvature="0" />
    <path
       id="path1052"
       style="fill:#2c5871;fill-opacity:1;fill-rule:nonzero;stroke:none;stroke-width:0.03527778"
       d="m 142.68179,122.79064 c -0.19507,0 -0.35277,-0.15806 -0.35277,-0.35279 v -1.76776 c 0,-0.19508 0.1577,-0.35277 0.35277,-0.35277 0.19474,0 0.35277,0.15769 0.35277,0.35277 v 1.76776 c 0,0.19473 -0.15803,0.35279 -0.35277,0.35279"
       inkscape:connector-curvature="0" />
    <path
       id="path1054"
       style="fill:#2c5871;fill-opacity:1;fill-rule:nonzero;stroke:none;stroke-width:0.03527778"
       d="m 143.5655,121.90656 h -1.76776 c -0.1951,0 -0.35279,-0.15769 -0.35279,-0.35276 0,-0.19508 0.15769,-0.35277 0.35279,-0.35277 h 1.76776 c 0.19508,0 0.35277,0.15769 0.35277,0.35277 0,0.19507 -0.15769,0.35276 -0.35277,0.35276"
       inkscape:connector-curvature="0" />
    <path
       id="path1056"
       style="fill:#2c5871;fill-opacity:1;fill-rule:nonzero;stroke:none;stroke-width:0.03527778"
       d="m 76.452361,129.65462 c -0.19473,0 -0.35278,-0.15803 -0.35278,-0.35277 v -1.76741 c 0,-0.19508 0.15805,-0.35277 0.35278,-0.35277 0.19508,0 0.35278,0.15769 0.35278,0.35277 v 1.76741 c 0,0.19474 -0.1577,0.35277 -0.35278,0.35277"
       inkscape:connector-curvature="0" />
    <path
       id="path1058"
       style="fill:#2c5871;fill-opacity:1;fill-rule:nonzero;stroke:none;stroke-width:0.03527778"
       d="m 77.336421,128.77092 h -1.76812 c -0.19474,0 -0.35278,-0.1577 -0.35278,-0.35277 0,-0.19508 0.15804,-0.35277 0.35278,-0.35277 h 1.76812 c 0.19509,0 0.35278,0.15769 0.35278,0.35277 0,0.19507 -0.15769,0.35277 -0.35278,0.35277"
       inkscape:connector-curvature="0" />
    <path
       id="path1060"
       style="fill:#34ca9d;fill-opacity:1;fill-rule:nonzero;stroke:none;stroke-width:0.03527778"
       d="m 102.23336,103.73006 c 3.77049,0 6.99029,2.34738 8.28357,5.65891 0.39193,-1.00156 0.60926,-2.09164 0.6096,-3.23358 0,-4.91173 -3.98179,-8.892461 -8.89317,-8.892461 -4.911385,0 -8.892835,3.981101 -8.892464,8.892461 0,1.1416 0.217302,2.23202 0.608885,3.23358 1.293628,-3.3119 4.514136,-5.65891 8.283579,-5.65891"
       inkscape:connector-curvature="0" />
    <path
       id="path1062"
       style="fill:#2c5871;fill-opacity:1;fill-rule:nonzero;stroke:none;stroke-width:0.03527778"
       d="m 102.23336,103.37726 c 3.52602,0 6.66644,1.95123 8.23523,5.04122 0.20251,-0.73486 0.3048,-1.49262 0.30517,-2.26309 0,-4.70853 -3.83154,-8.539692 -8.5404,-8.539692 -2.280712,0 -4.42561,0.888312 -6.03851,2.501212 -1.6129,1.6129 -2.501185,3.75777 -2.501185,6.03848 0,0.77047 0.102314,1.52789 0.3048,2.26272 1.568794,-3.08997 4.709583,-5.04085 8.234895,-5.04085 z m 8.28357,6.36448 v 0 c -0.14533,0 -0.27551,-0.0892 -0.3288,-0.22437 -1.28905,-3.30094 -4.41147,-5.4342 -7.95477,-5.43454 -3.543304,0 -6.665387,2.13325 -7.954781,5.43488 -0.05329,0.13478 -0.183462,0.22403 -0.328798,0.22403 -0.145335,0 -0.27551,-0.0889 -0.328797,-0.22403 -0.419788,-1.0742 -0.632884,-2.20556 -0.632884,-3.36232 0,-2.46944 0.961681,-4.79108 2.707931,-6.537325 1.745906,-1.74625 4.06789,-2.707905 6.537329,-2.707905 5.09799,0 9.2456,4.14761 9.24594,9.24523 0,1.15713 -0.21341,2.28812 -0.63394,3.36232 -0.0529,0.13513 -0.18309,0.22403 -0.32843,0.22403"
       inkscape:connector-curvature="0" />
    <path
       id="path1064"
       style="fill:#34ca9d;fill-opacity:1;fill-rule:nonzero;stroke:none;stroke-width:0.03527778"
       d="m 104.50382,97.556432 v 6.472768 c 2.7559,0.72673 4.98899,2.73862 6.01311,5.35977 0.39193,-1.00156 0.60926,-2.09164 0.6096,-3.23358 0,-4.12644 -2.81128,-7.595658 -6.62271,-8.598958"
       inkscape:connector-curvature="0" />
    <path
       id="path1066"
       style="fill:#2c5871;fill-opacity:1;fill-rule:nonzero;stroke:none;stroke-width:0.03527778"
       d="m 104.85662,103.76144 c 2.42993,0.71898 4.46368,2.41795 5.61091,4.65984 0.2032,-0.73588 0.30586,-1.49471 0.30623,-2.26589 0,-3.72144 -2.41125,-7.000161 -5.91714,-8.128344 z m 5.66031,5.9803 v 0 c -0.14533,0 -0.27551,-0.0892 -0.3288,-0.22403 -0.98882,-2.53047 -3.14748,-4.45486 -5.77426,-5.14736 -0.15486,-0.0406 -0.26281,-0.18097 -0.26281,-0.34115 v -6.472768 c 0,-0.109353 0.0505,-0.212355 0.13758,-0.2794 0.0864,-0.06667 0.19897,-0.08996 0.30514,-0.06138 4.05379,1.0668 6.88518,4.743108 6.88552,8.939738 0,1.15713 -0.21341,2.28812 -0.63394,3.36233 -0.0529,0.13512 -0.18344,0.22402 -0.32843,0.22402"
       inkscape:connector-curvature="0" />
    <path
       id="path1068"
       style="fill:#ffffff;fill-opacity:1;fill-rule:nonzero;stroke:none;stroke-width:0.03527778"
       d="m 102.23336,104.88576 c 1.09397,0 2.1477,0.17108 3.13795,0.48506 1.46897,-2.97426 2.35585,-6.80966 2.35585,-11.001019 0,-6.658679 -2.23379,-12.423775 -5.4938,-15.251287 -3.25967,2.827512 -5.493468,8.592608 -5.494156,15.251287 0,4.191359 0.887571,8.027449 2.357252,11.001019 0.988824,-0.31398 2.043644,-0.48472 3.136904,-0.48506"
       inkscape:connector-curvature="0" />
    <path
       id="path1070"
       style="fill:#2c5871;fill-opacity:1;fill-rule:nonzero;stroke:none;stroke-width:0.03527778"
       d="m 102.23336,104.53296 c 1.00152,0 1.99318,0.13902 2.95169,0.41313 1.41287,-2.98556 2.18935,-6.727141 2.18935,-10.576289 0,-6.219471 -1.96287,-11.840633 -5.14104,-14.77786 -3.177464,2.936875 -5.140673,8.558389 -5.141387,14.77786 0,3.849862 0.776817,7.591789 2.19075,10.576289 0.957797,-0.27411 1.948737,-0.41275 2.950637,-0.41313 z m 3.13795,1.19063 c -0.0356,0 -0.0712,-0.005 -0.10654,-0.0167 -1.96072,-0.6209 -4.10491,-0.62055 -6.061422,0 -0.167217,0.0533 -0.346419,-0.0241 -0.423333,-0.17992 -1.543394,-3.12245 -2.393236,-7.08485 -2.393606,-11.157306 0,-6.56731 2.15265,-12.513734 5.615891,-15.517987 0.13229,-0.115007 0.3302,-0.115007 0.46249,0 3.46355,3.004608 5.61514,8.950677 5.61514,15.517987 0,4.071398 -0.84984,8.034166 -2.39252,11.156936 -0.0603,0.12348 -0.18486,0.19685 -0.3161,0.19685"
       inkscape:connector-curvature="0" />
    <path
       id="path1072"
       style="fill:#fcbe0f;fill-opacity:1;fill-rule:nonzero;stroke:none;stroke-width:0.03527778"
       d="m 102.23336,85.421947 c 1.38078,0 2.73439,0.04833 4.05519,0.136171 -0.96981,-2.738967 -2.37456,-4.981927 -4.05519,-6.439604 -1.68029,1.458028 -3.085045,3.700637 -4.054823,6.439604 1.3208,-0.08784 2.673693,-0.136171 4.054823,-0.136171"
       inkscape:connector-curvature="0" />
    <path
       id="path1074"
       style="fill:#2c5871;fill-opacity:1;fill-rule:nonzero;stroke:none;stroke-width:0.03527778"
       d="m 102.23336,79.591941 c -1.42698,1.32221 -2.640545,3.237089 -3.536954,5.580591 2.373124,-0.136877 4.703234,-0.136877 7.074244,0 -0.89604,-2.343502 -2.10995,-4.258381 -3.53729,-5.580591 z m -4.054823,6.318956 c -0.109722,0 -0.214153,-0.05151 -0.281172,-0.140055 -0.07162,-0.09419 -0.09067,-0.21872 -0.05114,-0.330552 0.99695,-2.816576 2.434165,-5.094464 4.156075,-6.588124 0.13229,-0.115007 0.32948,-0.115359 0.46249,-2.65e-4 1.72191,1.49366 3.15947,3.7719 4.15608,6.588477 0.0395,0.111831 0.0204,0.23636 -0.0515,0.330552 -0.0716,0.0949 -0.18804,0.143933 -0.30446,0.139348 -2.69804,-0.179565 -5.36257,-0.179565 -8.062727,0 -0.0082,2.64e-4 -0.01561,7.93e-4 -0.02355,7.93e-4"
       inkscape:connector-curvature="0" />
    <path
       id="path1076"
       style="fill:#34ca9d;fill-opacity:1;fill-rule:nonzero;stroke:none;stroke-width:0.03527778"
       d="m 102.23336,96.723523 c -0.69922,1.176867 -1.17864,3.573987 -1.17864,6.343647 0,2.76932 0.47942,5.16679 1.17864,6.34365 0.69921,-1.17686 1.17898,-3.57433 1.17898,-6.34399 0,-2.76932 -0.47943,-5.16644 -1.17898,-6.343306"
       inkscape:connector-curvature="0" />
    <path
       id="path1078"
       style="fill:#2c5871;fill-opacity:1;fill-rule:nonzero;stroke:none;stroke-width:0.03527778"
       d="m 102.23336,97.533863 c -0.51046,1.28516 -0.82585,3.348567 -0.82585,5.533307 0,2.18477 0.31539,4.24781 0.82585,5.53297 0.51083,-1.28551 0.82621,-3.34891 0.82621,-5.53331 0,-2.1844 -0.31538,-4.247807 -0.82621,-5.532967 z m 0,12.229757 c -0.12417,0 -0.23953,-0.0656 -0.30303,-0.17251 -0.75777,-1.27529 -1.22838,-3.77508 -1.22838,-6.52394 0,-2.74918 0.47061,-5.248616 1.22838,-6.523907 0.12663,-0.214128 0.47942,-0.214128 0.60642,0 0.75777,1.275291 1.22836,3.774727 1.22836,6.523567 0,2.74849 -0.47059,5.24827 -1.22836,6.52428 -0.0635,0.10689 -0.17885,0.17251 -0.30339,0.17251"
       inkscape:connector-curvature="0" />
    <path
       id="path1080"
       style="fill:#34ca9d;fill-opacity:1;fill-rule:nonzero;stroke:none;stroke-width:0.03527778"
       d="m 102.20195,96.781044 v 12.571566 c 0.0109,0.0188 0.0209,0.0399 0.0314,0.0582 0.69921,-1.17686 1.17898,-3.57433 1.17898,-6.34399 0,-2.76931 -0.47942,-5.166438 -1.17898,-6.343305 -0.0103,0.01879 -0.0204,0.03916 -0.0314,0.05752"
       inkscape:connector-curvature="0" />
    <path
       id="path1082"
       style="fill:#2c5871;fill-opacity:1;fill-rule:nonzero;stroke:none;stroke-width:0.03527778"
       d="m 102.55475,98.540682 v 9.052638 c 0.31818,-1.23825 0.50482,-2.84657 0.50482,-4.52649 0,-1.67992 -0.18664,-3.288242 -0.50482,-4.526148 z m -0.32139,11.222938 c 0,0 0,0 0,0 -0.12489,0 -0.24025,-0.067 -0.3034,-0.17463 -0.003,-0.005 -0.0209,-0.0378 -0.023,-0.0423 -0.0268,-0.0508 -0.0568,-0.13724 -0.0568,-0.19404 V 96.781044 c 0,-0.06456 0.0172,-0.127371 0.0505,-0.182404 0,-0.0026 0.0243,-0.04445 0.0254,-0.0462 0.0614,-0.110781 0.17708,-0.179917 0.30337,-0.18169 0.13229,-0.0061 0.24379,0.06422 0.30834,0.172509 0.75777,1.275291 1.22836,3.774731 1.22836,6.523561 0,2.7485 -0.47059,5.24828 -1.22836,6.52429 -0.0635,0.10689 -0.17885,0.1725 -0.30339,0.1725"
       inkscape:connector-curvature="0" />
    <path
       id="path1084"
       style="fill:#34ca9d;fill-opacity:1;fill-rule:nonzero;stroke:none;stroke-width:0.03527778"
       d="m 102.23336,94.369801 c -1.70252,-7.94e-4 -3.087506,-1.385004 -3.087506,-3.087511 0,-1.702151 1.384986,-3.087158 3.087506,-3.08751 1.70251,0 3.08681,1.385359 3.08681,3.08751 0,1.702507 -1.3843,3.087511 -3.08681,3.087511 v 0"
       inkscape:connector-curvature="0" />
    <path
       id="path1086"
       style="fill:#2c5871;fill-opacity:1;fill-rule:nonzero;stroke:none;stroke-width:0.03527778"
       d="m 102.23336,88.547557 c -1.50778,2.65e-4 -2.734737,1.227315 -2.734737,2.734733 0,1.507419 1.226957,2.734027 2.734737,2.734734 1.50778,0 2.73401,-1.226609 2.73401,-2.734734 0,-1.507773 -1.22623,-2.734733 -2.73401,-2.734733 z m 0,6.175023 v 0 c -1.89688,-7.94e-4 -3.440301,-1.544108 -3.440301,-3.44029 0,-1.896533 1.543421,-3.439935 3.440301,-3.440289 1.89653,0 3.43958,1.543404 3.43958,3.440289 0,1.896886 -1.54305,3.44029 -3.43958,3.44029"
       inkscape:connector-curvature="0" />
    <path
       id="path1088"
       style="fill:#cceef5;fill-opacity:1;fill-rule:nonzero;stroke:none;stroke-width:0.03527778"
       d="m 102.23336,89.401632 c -1.03683,0 -1.88066,0.843844 -1.88066,1.880658 0,1.037167 0.84349,1.880307 1.88066,1.880307 1.03716,0 1.881,-0.842788 1.881,-1.880307 0,-1.03646 -0.84418,-1.880658 -1.881,-1.880658 v 0"
       inkscape:connector-curvature="0" />
    <path
       id="path1090"
       style="fill:#2c5871;fill-opacity:1;fill-rule:nonzero;stroke:none;stroke-width:0.03527778"
       d="m 102.23336,89.754409 c -0.84209,0 -1.52789,0.685448 -1.52789,1.527881 0,0.842434 0.6858,1.527527 1.52789,1.527527 0.84277,0 1.52823,-0.685093 1.52823,-1.527527 0,-0.842433 -0.68546,-1.527881 -1.52823,-1.527881 z m 0,3.760965 c -1.23156,0 -2.233431,-1.00189 -2.233431,-2.233084 0,-1.231548 1.001871,-2.233435 2.233431,-2.233435 1.2319,0 2.23379,1.001887 2.23379,2.233435 0,1.231194 -1.00189,2.233084 -2.23379,2.233084"
       inkscape:connector-curvature="0" />
    <path
       id="path1092"
       style="fill:#2c5871;fill-opacity:1;fill-rule:nonzero;stroke:none;stroke-width:0.03527778"
       d="m 94.320198,137.94419 c -2.466257,0 -4.472517,-2.00694 -4.472517,-4.47323 h 0.70557 c 0,2.07751 1.689783,3.76767 3.766947,3.76767 2.076794,0 3.766608,-1.68979 3.766608,-3.76695 v -24.96679 h 0.705565 v 24.96679 c 0,2.46591 -2.006256,4.47251 -4.472173,4.47251"
       inkscape:connector-curvature="0" />
    <path
       id="path1094"
       style="fill:#2c5871;fill-opacity:1;fill-rule:nonzero;stroke:none;stroke-width:0.03527778"
       d="m 109.95601,152.54991 c -4.25839,0 -7.72337,-3.46464 -7.72337,-7.72372 V 113.9098 h 0.70557 v 30.91639 c 0,3.8699 3.14819,7.01815 7.0178,7.01815 v 0.70557"
       inkscape:connector-curvature="0" />
    <path
       id="path1096"
       style="fill:#2c5871;fill-opacity:1;fill-rule:nonzero;stroke:none;stroke-width:0.03527778"
       d="m 119.81156,144.35698 c 0,0 0,0 0,0 -0.79126,0 -1.58396,-0.0674 -2.35585,-0.20037 l 0.11996,-0.69532 c 0.73237,0.12628 1.48484,0.19015 2.23589,0.19015 0,0 0,0 0,0 3.48792,0 6.76664,-1.35784 9.2329,-3.82413 2.46697,-2.46697 3.82519,-5.74603 3.82519,-9.23429 h 0.70553 c 0,3.67664 -1.43155,7.13316 -4.03188,9.73314 -2.59926,2.59961 -6.05578,4.03082 -9.73174,4.03082"
       inkscape:connector-curvature="0" />
    <path
       id="path1098"
       style="fill:#2c5871;fill-opacity:1;fill-rule:nonzero;stroke:none;stroke-width:0.03527778"
       d="m 109.98599,140.23408 c -2.54106,-2.58905 -3.94086,-6.0131 -3.94086,-9.64106 v -23.53979 h 0.70554 v 23.53979 c 0,3.44204 1.32786,6.69043 3.73909,9.14717 l -0.50377,0.49389"
       inkscape:connector-curvature="0" />
    <path
       id="path1100"
       style="fill:#2c5871;fill-opacity:1;fill-rule:nonzero;stroke:none;stroke-width:0.03527778"
       d="m 119.88072,141.26808 c -6.23501,0 -11.3076,-5.07225 -11.3076,-11.30723 0,-6.23501 5.07259,-11.30723 11.3076,-11.30723 6.23499,0 11.30723,5.07222 11.30723,11.30723 h -0.70556 c 0,-5.84554 -4.75615,-10.60169 -10.60167,-10.60169 -5.84589,0 -10.60204,4.75615 -10.60204,10.60169 0,5.84551 4.75615,10.60166 10.60204,10.60166 v 0.70557"
       inkscape:connector-curvature="0" />
    <path
       id="path1102"
       style="fill:#2c5871;fill-opacity:1;fill-rule:nonzero;stroke:none;stroke-width:0.03527778"
       d="m 119.88072,137.75264 c -1.99673,0 -3.99309,-0.75989 -5.51286,-2.27894 l 0.49882,-0.49884 c 2.76471,2.7633 7.26334,2.7633 10.02805,0 2.76437,-2.76506 2.76437,-7.26334 0,-10.02805 -2.76505,-2.76436 -7.26368,-2.76436 -10.02805,0 l -0.49882,-0.49882 c 3.03916,-3.0399 7.98513,-3.0399 11.02572,0 3.03916,3.03954 3.03916,7.98581 0,11.02571 -1.52014,1.51905 -3.5165,2.27894 -5.51286,2.27894"
       inkscape:connector-curvature="0" />
    <path
       id="path1104"
       style="fill:#2c5871;fill-opacity:1;fill-rule:nonzero;stroke:none;stroke-width:0.03527778"
       d="m 86.041911,154.32966 c -0.46672,0 -0.93768,-0.0285 -1.41253,-0.0882 -6.1863,-0.77473 -10.58932,-6.43819 -9.81497,-12.62486 0.375,-2.99648 1.89512,-5.66809 4.27955,-7.52157 2.38442,-1.85349 5.34847,-2.66806 8.34461,-2.29201 l -0.0875,0.69993 c -2.80953,-0.35174 -5.588,0.41132 -7.82426,2.1491 -2.23555,1.73779 -3.66077,4.24252 -4.01249,7.05205 -0.72602,5.80072 3.40254,11.11107 9.20256,11.83746 5.80424,0.72456 11.110382,-3.40294 11.837113,-9.20327 l 0.699902,0.0875 c -0.715089,5.71214 -5.598235,9.90389 -11.211985,9.90389"
       inkscape:connector-curvature="0" />
    <path
       id="path1106"
       style="fill:#2c5871;fill-opacity:1;fill-rule:nonzero;stroke:none;stroke-width:0.03527778"
       d="m 86.038021,151.20014 c -0.33689,0 -0.67733,-0.0212 -1.01986,-0.0638 -4.47394,-0.561 -7.6581,-4.65632 -7.09825,-9.13024 0.27129,-2.16712 1.37055,-4.09927 3.09492,-5.44018 1.72437,-1.34056 3.86787,-1.93077 6.03462,-1.65841 l -0.0875,0.70025 c -1.97909,-0.2494 -3.9384,0.28998 -5.51426,1.51553 -1.57515,1.22486 -2.57951,2.99016 -2.82751,4.97031 -0.51153,4.08797 2.39782,7.83063 6.48545,8.34284 4.09117,0.51043 7.830609,-2.3989 8.342154,-6.48653 l 0.699903,0.0875 c -0.516467,4.13068 -4.048467,7.16278 -8.109667,7.16278"
       inkscape:connector-curvature="0" />
    <path
       id="path1108"
       style="fill:#2c5871;fill-opacity:1;fill-rule:nonzero;stroke:none;stroke-width:0.03527778"
       d="m 93.962825,140.00654 c -0.899927,0 -1.79316,-0.21344 -2.617604,-0.635 -1.36948,-0.70061 -2.38442,-1.89301 -2.8575,-3.35703 -0.47273,-1.46405 -0.34713,-3.02472 0.35349,-4.3942 0.70133,-1.36984 1.8937,-2.38442 3.357373,-2.85749 1.464733,-0.47273 3.025087,-0.34679 4.3942,0.35454 l -0.321734,0.62759 c -1.201208,-0.61526 -2.571035,-0.72533 -3.855508,-0.31046 -1.284441,0.41487 -2.330791,1.3053 -2.945681,2.50718 -0.61524,1.20158 -0.72568,2.57141 -0.31044,3.85622 0.41521,1.28448 1.30561,2.33045 2.50719,2.945 1.201898,0.61524 2.570323,0.72602 3.855854,0.31044 1.284816,-0.41521 2.33045,-1.30527 2.945685,-2.50719 l 0.628306,0.32102 c -0.70096,1.36985 -1.893014,2.38479 -3.357033,2.85787 -0.582798,0.18838 -1.1811,0.28151 -1.776598,0.28151"
       inkscape:connector-curvature="0" />
    <path
       id="path1110"
       style="fill:#2c5871;fill-opacity:1;fill-rule:nonzero;stroke:none;stroke-width:0.03527778"
       d="m 131.86211,151.38754 c -3.17817,0 -5.76368,-2.58561 -5.76368,-5.76373 h 0.70554 c 0,2.78907 2.26872,5.05817 5.05814,5.05817 2.78905,0 5.05812,-2.2691 5.05812,-5.05886 h 0.70556 c 0,3.17852 -2.58587,5.76442 -5.76368,5.76442"
       inkscape:connector-curvature="0" />
    <path
       id="path1112"
       style="fill:#2c5871;fill-opacity:1;fill-rule:nonzero;stroke:none;stroke-width:0.03527778"
       d="m 132.3313,154.09648 c -0.77081,0 -1.54483,-0.12097 -2.29942,-0.36449 -1.89476,-0.61238 -3.43781,-1.9254 -4.3448,-3.69853 l 0.62831,-0.32092 c 0.82089,1.60473 2.21789,2.79355 3.93311,3.3478 1.71661,0.55425 3.5447,0.40706 5.14879,-0.4141 1.60515,-0.82129 2.79399,-2.21837 3.34785,-3.93348 0.55456,-1.71524 0.40746,-3.54404 -0.41381,-5.14953 -1.69579,-3.31221 -5.77109,-4.62949 -9.08261,-2.93264 l -0.32174,-0.62828 c 3.65972,-1.87256 8.15906,-0.4191 10.03231,3.23956 0.90699,1.77339 1.06961,3.79306 0.45754,5.6878 -0.61206,1.89479 -1.9251,3.43752 -3.69815,4.3444 -1.06646,0.5461 -2.22287,0.82241 -3.38738,0.82241"
       inkscape:connector-curvature="0" />
    <path
       id="path1114"
       style="fill:#2c5871;fill-opacity:1;fill-rule:nonzero;stroke:none;stroke-width:0.03527778"
       d="m 110.75188,156.17401 c -1.70603,0 -3.42617,-0.52392 -4.90186,-1.61049 l 0.41842,-0.56832 c 3.36444,2.47827 8.11916,1.75643 10.59778,-1.60833 2.47793,-3.36447 1.75614,-8.11842 -1.60867,-10.59704 -3.36479,-2.47687 -8.11916,-1.75543 -10.59815,1.60901 l -0.56761,-0.41838 c 2.70899,-3.67808 7.90575,-4.46654 11.58417,-1.75861 3.6784,2.70934 4.46686,7.90573 1.75789,11.58344 -1.62208,2.2021 -4.13633,3.36872 -6.68197,3.36872"
       inkscape:connector-curvature="0" />
  </g>
</svg>
