<svg xmlns="http://www.w3.org/2000/svg" viewBox="0 0 200 140.34509589898335" style="width: 200px; height: 140.345px; position: absolute; top: 50%; left: 50%; transform: translate(-50%, -50%) scale(1.44608); z-index: 0; cursor: pointer;"><defs id="SvgjsDefs1032"><linearGradient id="SvgjsLinearGradient1037"><stop id="SvgjsStop1038" stop-color="#8f5e25" offset="0"/><stop id="SvgjsStop1039" stop-color="#fbf4a1" offset="0.5"/><stop id="SvgjsStop1040" stop-color="#8f5e25" offset="1"/></linearGradient><linearGradient id="SvgjsLinearGradient1041"><stop id="SvgjsStop1042" stop-color="#8f5e25" offset="0"/><stop id="SvgjsStop1043" stop-color="#fbf4a1" offset="0.5"/><stop id="SvgjsStop1044" stop-color="#8f5e25" offset="1"/></linearGradient></defs><g id="SvgjsG1033" featurekey="symbolFeature-0" transform="matrix(1.1091784960591633,0,0,1.1091784960591633,44.41950122594214,-16.499030128880054)" fill="url(#SvgjsLinearGradient1037)"><path xmlns="http://www.w3.org/2000/svg" style="baseline-shift:baseline;block-progression:tb;color:;direction:ltr;text-indent:0;enable-background:accumulate;text-transform:none;" fill="url(#SvgjsLinearGradient1037)" d="M29.219,14.875c-2.477,0-4.451,0.14-5.938,0.437-1.486,0.298-2.741,0.807-3.781,1.5-1.362,0.868-2.318,2.077-2.875,3.626-0.557,1.548-0.844,4.209-0.844,8v9.062c0,3.79-0.669,6.445-2.031,7.969-1.362,1.523-3.712,2.281-7.0312,2.281-0.1735,0-0.441-0.006-0.8126-0.031-0.3715-0.025-0.6768-0.031-0.875-0.031v4.718c0.1982,0,0.5035-0.006,0.875-0.031,0.3716-0.025,0.6391-0.062,0.8126-0.063,3.3192,0.001,5.6692,0.771,7.0312,2.282s2.031,4.141,2.031,7.906v9.062c0,3.692,0.287,6.353,0.844,7.938s1.513,2.796,2.875,3.688c1.04,0.693,2.314,1.202,3.812,1.5,1.499,0.297,3.454,0.437,5.907,0.437h1.312v-4.625h-1.437c-3.122,0-5.235-0.598-6.313-1.75-1.077-1.152-1.625-3.559-1.625-7.25v-9c0-4.112-0.516-7.028-1.594-8.75-1.077-1.722-3-2.944-5.75-3.688,2.75-0.767,4.673-2.028,5.75-3.75,1.078-1.721,1.594-4.637,1.594-8.75v-8.968c0-3.716,0.56-6.18,1.625-7.344s3.097-1.75,6.094-1.75c0.173,0,0.441,0.038,0.813,0.062,0.371,0.025,0.645,0.032,0.843,0.032v-4.719h-1.312zm40.406,0v4.625h1.469c3.096,0,5.191,0.605,6.281,1.781,1.09,1.177,1.625,3.622,1.625,7.313v8.968c0,4.113,0.547,7.029,1.625,8.75,1.078,1.722,2.969,2.983,5.719,3.75-2.75,0.744-4.641,1.966-5.719,3.688s-1.625,4.638-1.625,8.75v8.906c0,3.741-0.547,6.23-1.625,7.406-1.078,1.177-3.09,1.75-6.063,1.75-0.173,0-0.44-0.006-0.812-0.031s-0.677-0.031-0.875-0.031v4.625h1.531c2.527,0,4.52-0.121,5.969-0.406s2.659-0.762,3.625-1.407c1.338-0.891,2.267-2.114,2.812-3.687s0.813-4.272,0.813-8.063v-9c0-3.765,0.688-6.401,2.063-7.937,1.374-1.536,3.749-2.312,7.093-2.313,0.174,0.001,0.441,0.038,0.813,0.063,0.371,0.025,0.645,0.031,0.844,0.031v-4.718c-0.199,0-0.473,0.006-0.844,0.031-0.372,0.025-0.639,0.031-0.813,0.031-3.344,0-5.719-0.777-7.093-2.312-1.375-1.536-2.063-4.173-2.063-7.938v-9.062c0-3.766-0.268-6.44-0.813-8-0.545-1.561-1.474-2.758-2.812-3.626-1.04-0.668-2.333-1.159-3.844-1.468-1.511-0.31-3.491-0.469-5.968-0.469h-1.313zm-33.125,8.094c-4.279,0-7.781,3.564-7.781,7.843,0,3.442,2.26,6.354,5.375,7.376v23.593c-3.116,1.03-5.375,3.996-5.375,7.438,0,4.279,3.502,7.781,7.781,7.781s7.812-3.502,7.812-7.781c0-3.442-2.29-6.408-5.406-7.438v-0.375c0-3.557,1.089-4.956,3.094-6.218,2.005-1.263,5.155-2.043,8.562-2.876,3.408-0.832,7.098-1.742,10.157-4.031,2.779-2.079,4.783-5.441,5.125-10.062,3.144-1.004,5.468-3.944,5.468-7.407,0-4.279-3.533-7.843-7.812-7.843s-7.781,3.564-7.781,7.843c0,3.421,2.258,6.337,5.343,7.376-0.253,3.289-1.448,4.957-3.218,6.281-2.004,1.499-5.064,2.37-8.406,3.187-3.343,0.817-6.943,1.544-10,3.469-0.184,0.116-0.354,0.248-0.532,0.375v-13.312c3.115-1.022,5.406-3.934,5.406-7.376,0-4.279-3.533-7.843-7.812-7.843zm0,4.812c1.685,0,3.031,1.346,3.031,3.031,0,1.686-1.346,2.969-3.031,2.969s-3-1.283-3-2.969c0-1.685,1.315-3.031,3-3.031zm27,0c1.685,0,3.031,1.346,3.031,3.031,0,1.686-1.346,2.969-3.031,2.969s-3-1.283-3-2.969c0-1.685,1.315-3.031,3-3.031zm-27,38.407c1.685,0,3.031,1.345,3.031,3.031,0,1.685-1.346,2.969-3.031,2.969s-3-1.284-3-2.969c0-1.686,1.315-3.031,3-3.031z"/></g><g id="SvgjsG1034" featurekey="nameFeature-0" transform="matrix(1.3892747337635034,0,0,1.3892747337635034,-1.16698833851658,84.38510601921891)" fill="url(#SvgjsLinearGradient1041)"><path d="M17.72 33.4 l0 6 c-2.04 0.68 -4.16 0.88 -6.28 0.88 c-6.2 0 -10.6 -4.12 -10.6 -10.24 c0 -6.36 4.56 -10.24 10.6 -10.24 c2.12 0 4.24 0.2 6.28 0.88 l0 6 c-1.76 -0.92 -3.96 -1.16 -5.92 -1.16 c-1.32 0 -2.92 0.28 -3.84 1.32 c-0.84 0.84 -1.12 2.04 -1.12 3.16 c0 0.64 0.08 1.24 0.28 1.76 c0.16 0.56 0.44 1.04 0.84 1.44 c0.88 1.08 2.52 1.36 3.84 1.36 c1.76 0 4.36 -0.32 5.92 -1.16 z M30.92 34.64 c2.92 0 4.6 -1.72 4.6 -4.64 s-1.68 -4.64 -4.6 -4.64 s-4.6 1.72 -4.6 4.64 s1.68 4.64 4.6 4.64 z M30.92 40.2 c-6.16 0 -10.6 -4.08 -10.6 -10.2 c0 -6.32 4.6 -10.2 10.6 -10.2 c6.2 0 10.6 4.08 10.6 10.2 c0 6.28 -4.64 10.2 -10.6 10.2 z M58.4 30 c0 -3 -1.48 -4.64 -4.52 -4.64 c-0.84 0 -1.56 0.12 -2.16 0.36 c-1.12 0.52 -1.88 1.28 -2.24 2.48 c-0.2 0.56 -0.28 1.16 -0.28 1.8 s0.08 1.24 0.28 1.8 c0.32 1.16 1.16 2 2.24 2.44 c0.6 0.28 1.32 0.4 2.16 0.4 c3.04 0 4.52 -1.64 4.52 -4.64 z M58.4 22 l0 -10 l6 0 l0 18 c0 6.36 -4.52 10.2 -10.56 10.2 c-6.16 0 -10.64 -4 -10.64 -10.12 c0 -5.64 4.16 -10.28 9.84 -10.28 c2.12 0 3.96 0.6 5.36 2.2 z M68.2 20 l6 0 l0 20 l-6 0 l0 -20 z M71.2 18.12 c-2.04 0 -3.48 -1.44 -3.48 -3.48 c0 -2.08 1.44 -3.44 3.48 -3.44 c2.08 0 3.44 1.36 3.44 3.44 c0 2.12 -1.32 3.48 -3.44 3.48 z M89.32000000000001 20.68 l0 5.56 l-4.92 0 l0 13.76 l-6 0 l0 -19.96 c0 -6.64 4.88 -10.24 11.04 -10.24 c0.2 0 0.48 0 0.76 0.04 s0.6 0.12 0.88 0.16 l0 5.8 c-0.2 -0.04 -0.44 -0.08 -0.72 -0.12 s-0.52 -0.08 -0.72 -0.08 c-1 0 -1.8 0.12 -2.48 0.32 c-1.12 0.4 -2.12 1.16 -2.48 2.36 c-0.2 0.52 -0.28 1.12 -0.28 1.72 l0 0.68 l4.92 0 z M93.48 20 l6 0 l0 20 l-6 0 l0 -20 z M96.48 18.12 c-2.04 0 -3.48 -1.44 -3.48 -3.48 c0 -2.08 1.44 -3.44 3.48 -3.44 c2.08 0 3.44 1.36 3.44 3.44 c0 2.12 -1.32 3.48 -3.44 3.48 z M119.4 33.4 l0 6 c-2.04 0.68 -4.16 0.88 -6.28 0.88 c-6.2 0 -10.6 -4.12 -10.6 -10.24 c0 -6.36 4.56 -10.24 10.6 -10.24 c2.12 0 4.24 0.2 6.28 0.88 l0 6 c-1.76 -0.92 -3.96 -1.16 -5.92 -1.16 c-1.32 0 -2.92 0.28 -3.84 1.32 c-0.84 0.84 -1.12 2.04 -1.12 3.16 c0 0.64 0.08 1.24 0.28 1.76 c0.16 0.56 0.44 1.04 0.84 1.44 c0.88 1.08 2.52 1.36 3.84 1.36 c1.76 0 4.36 -0.32 5.92 -1.16 z M137.20000000000002 30 c-0.16 -2.92 -1.48 -4.64 -4.52 -4.64 c-0.84 0 -1.56 0.12 -2.16 0.36 c-1.84 0.84 -2.52 2.4 -2.52 4.32 c0 0.64 0.08 1.24 0.28 1.76 c0.6 2.08 2.4 2.84 4.4 2.84 c3.04 0 4.52 -1.64 4.52 -4.64 z M144.8 40 l-6 0 c-0.4 -1 -0.76 -2 -1 -3.04 c-1.36 2.24 -3.44 3.24 -6 3.24 c-5.72 0 -9.8 -4.8 -9.8 -10.28 c0 -6.32 4.72 -10.12 10.68 -10.12 c6.36 0 10.36 4.08 10.52 10.2 c0.04 0.52 0.04 1.12 0.04 1.84 c0 2.8 0.44 5.6 1.56 8.16 z"/></g></svg>