<?xml version="1.0" encoding="UTF-8" standalone="no"?>
<!-- Created with Inkscape (http://www.inkscape.org/) -->

<svg
   xmlns:dc="http://purl.org/dc/elements/1.1/"
   xmlns:cc="http://creativecommons.org/ns#"
   xmlns:rdf="http://www.w3.org/1999/02/22-rdf-syntax-ns#"
   xmlns:svg="http://www.w3.org/2000/svg"
   xmlns="http://www.w3.org/2000/svg"
   xmlns:sodipodi="http://sodipodi.sourceforge.net/DTD/sodipodi-0.dtd"
   xmlns:inkscape="http://www.inkscape.org/namespaces/inkscape"
   width="135.48778mm"
   height="133.34949mm"
   viewBox="0 0 135.48778 133.34949"
   version="1.1"
   id="svg6577"
   inkscape:version="0.92.4 (5da689c313, 2019-01-14)"
   sodipodi:docname="register.svg">
  <defs
     id="defs6571" />
  <sodipodi:namedview
     id="base"
     pagecolor="#ffffff"
     bordercolor="#666666"
     borderopacity="1.0"
     inkscape:pageopacity="0.0"
     inkscape:pageshadow="2"
     inkscape:zoom="0.98994949"
     inkscape:cx="0.87504812"
     inkscape:cy="110.26712"
     inkscape:document-units="mm"
     inkscape:current-layer="layer1"
     showgrid="false"
     inkscape:window-width="1920"
     inkscape:window-height="1017"
     inkscape:window-x="-8"
     inkscape:window-y="-8"
     inkscape:window-maximized="1" />
  <metadata
     id="metadata6574">
    <rdf:RDF>
      <cc:Work
         rdf:about="">
        <dc:format>image/svg+xml</dc:format>
        <dc:type
           rdf:resource="http://purl.org/dc/dcmitype/StillImage" />
        <dc:title></dc:title>
      </cc:Work>
    </rdf:RDF>
  </metadata>
  <g
     inkscape:label="Capa 1"
     inkscape:groupmode="layer"
     id="layer1"
     transform="translate(-37.693942,-52.991924)">
    <g
       id="g261"
       transform="translate(198.04672,31.270535)">
      <path
         inkscape:connector-curvature="0"
         d="m -87.287346,99.361982 c -4.168431,0 -8.137181,-1.585032 -11.175286,-4.462992 l -0.143933,-0.136173 0.05503,-0.1905 c 0.263869,-0.910873 1.075611,-1.77659 2.346325,-2.50331 0.08535,-0.04868 0.157321,-0.08961 0.232463,-0.129823 l 0.170392,-0.08819 c 0.127,-0.06421 0.255058,-0.128058 0.389122,-0.189442 l 0.03315,-0.01553 c 0.131947,-0.05997 0.270245,-0.117475 0.409231,-0.174625 l 0.362664,-0.149931 0.08006,0.384175 0.01191,0.0441 c 0.01138,0.05151 0.02514,0.09878 0.0381,0.145698 l 0.0172,0.06032 c 0.02717,0.09913 0.04868,0.178858 0.07654,0.256469 0.01799,0.05186 0.03916,0.101952 0.0607,0.152048 l 0.02037,0.04974 c 0.03527,0.08361 0.06913,0.164746 0.108664,0.244827 0.02715,0.05398 0.05715,0.107244 0.08747,0.160867 l 0.02037,0.03598 c 0.04374,0.07761 0.0889,0.155927 0.137927,0.232482 0.03844,0.05856 0.07903,0.115358 0.119936,0.172154 0.06633,0.09243 0.121708,0.166158 0.179917,0.238125 0.05046,0.06209 0.103028,0.122414 0.156633,0.182033 0.0635,0.07126 0.12737,0.140406 0.195104,0.208492 0.05855,0.05927 0.118877,0.116416 0.180604,0.173921 0.07022,0.06491 0.143934,0.12982 0.220504,0.194027 0.06525,0.05468 0.131921,0.108656 0.200369,0.161218 0.07972,0.06209 0.162269,0.121357 0.245877,0.179917 0.07268,0.05151 0.144648,0.100542 0.219446,0.148873 0.08924,0.0575 0.179546,0.111125 0.271277,0.164748 0.07797,0.04551 0.155575,0.09137 0.236352,0.134408 0.09631,0.05221 0.194734,0.100542 0.293873,0.148167 0.09067,0.0441 0.170048,0.0829 0.252227,0.119237 0.09737,0.04304 0.197909,0.08291 0.298106,0.122767 l 0.06104,0.024 c 0.07265,0.02928 0.145679,0.05821 0.220477,0.08537 0.104061,0.03739 0.209894,0.07055 0.315727,0.103716 l 0.09774,0.03069 c 0.06596,0.02151 0.131922,0.04269 0.199655,0.06138 0.111125,0.03104 0.225795,0.05821 0.340095,0.08502 l 0.118163,0.02893 c 0.06033,0.01482 0.119962,0.02963 0.18169,0.04233 0.112183,0.02328 0.227541,0.04163 0.3429,0.06068 l 0.162983,0.02752 c 0.05292,0.0095 0.105489,0.01871 0.159094,0.02612 0.149225,0.02045 0.301995,0.03352 0.455083,0.04727 l 0.103029,0.01058 c 0.04233,0.0049 0.08501,0.0095 0.128058,0.01236 0.239184,0.01622 0.476594,0.02434 0.705194,0.02434 0.2286,0 0.465667,-0.0081 0.70485,-0.02434 0.04199,-0.0028 0.08326,-0.0071 0.124884,-0.01198 l 0.174281,-0.01693 c 0.129804,-0.01198 0.259635,-0.024 0.386979,-0.04127 0.05646,-0.0074 0.110781,-0.01728 0.165471,-0.02716 l 0.169677,-0.02893 c 0.110781,-0.01765 0.221536,-0.03598 0.329856,-0.05821 0.06173,-0.0127 0.122052,-0.02752 0.182377,-0.04268 l 0.148167,-0.03563 c 0.104431,-0.02469 0.207777,-0.04939 0.309748,-0.07796 0.07019,-0.01939 0.138641,-0.04163 0.207063,-0.0635 l 0.06562,-0.02082 c 0.115015,-0.03633 0.2286,-0.07161 0.339381,-0.110773 0.0748,-0.02716 0.147453,-0.05609 0.220134,-0.08502 l 0.04411,-0.01765 c 0.109696,-0.04339 0.214127,-0.08467 0.315383,-0.12982 0.0762,-0.03351 0.149225,-0.06879 0.22188,-0.104423 l 0.03106,-0.01482 c 0.09983,-0.04833 0.198596,-0.09666 0.294216,-0.148166 0.08006,-0.04304 0.158036,-0.08819 0.236353,-0.134057 0.09102,-0.05398 0.182377,-0.108302 0.270933,-0.1651 0.07443,-0.04833 0.147452,-0.09807 0.219789,-0.14887 0.08361,-0.05856 0.166159,-0.118534 0.246222,-0.180272 0.06739,-0.05186 0.134408,-0.105833 0.200025,-0.161218 0.07657,-0.0635 0.149939,-0.128765 0.221191,-0.194733 0.06175,-0.0568 0.121365,-0.113949 0.179229,-0.172157 0.06842,-0.06879 0.132636,-0.138287 0.195421,-0.208843 0.05398,-0.06033 0.107262,-0.12065 0.157004,-0.182386 0.05821,-0.07161 0.113586,-0.146404 0.167561,-0.220839 0.04516,-0.06279 0.09067,-0.12559 0.132635,-0.189794 0.04868,-0.0755 0.0935,-0.153813 0.137584,-0.23213 0.04093,-0.07161 0.0762,-0.13335 0.10832,-0.197201 0.03916,-0.07973 0.07302,-0.160867 0.107236,-0.242359 l 0.02143,-0.05151 c 0.02117,-0.05045 0.0427,-0.100187 0.06069,-0.151694 0.02752,-0.07726 0.04903,-0.155927 0.07019,-0.234243 l 0.02514,-0.08784 c 0.01296,-0.04622 0.02619,-0.09172 0.03598,-0.137938 l 0.0127,-0.04798 0.07477,-0.390173 0.366554,0.156633 0.09665,0.03775 0.170392,0.07444 c 0.160523,0.0702 0.319273,0.143933 0.472017,0.219781 0.05363,0.02681 0.19931,0.102659 0.19931,0.102659 0.107606,0.0568 0.211667,0.113948 0.313267,0.172156 1.262247,0.724252 2.068697,1.585735 2.332567,2.490962 l 0.0558,0.190148 -0.14428,0.136877 c -3.038475,2.879725 -7.007939,4.465463 -11.177773,4.465463"
         style="fill:#fcbe0f;fill-opacity:1;fill-rule:nonzero;stroke:none;stroke-width:0.03527778"
         id="path40" />
      <path
         inkscape:connector-curvature="0"
         d="m -94.665332,91.314415 c 1.192371,-0.450498 2.593605,-0.791633 4.128188,-0.992365 0,7.94e-4 0,0.0011 0,0.0019 -1.533895,0.200377 -2.936531,0.540102 -4.128558,0.9906 z m 7.297208,-24.484893 c -8.969375,0 -16.266236,7.296853 -16.266236,16.266228 0,4.574823 1.90111,8.711848 4.951939,11.670594 0.281172,-1.383594 1.781175,-2.608085 4.016375,-3.451929 0.240585,2.67476 3.414527,4.792133 7.297922,4.792133 3.880909,0 7.055909,-2.116666 7.297553,-4.790723 -0.0209,-0.0078 -0.04093,-0.01588 -0.0621,-0.02363 -0.10123,-0.0374 -0.204602,-0.07444 -0.308663,-0.110421 -0.03493,-0.01236 -0.06879,-0.02506 -0.104087,-0.03669 -0.138986,-0.04692 -0.280458,-0.09243 -0.424021,-0.136173 -0.03704,-0.01164 -0.07551,-0.02223 -0.112898,-0.03387 -0.118533,-0.03563 -0.238839,-0.0702 -0.360548,-0.103365 -0.03315,-0.0095 -0.06773,-0.01871 -0.101944,-0.02787 -0.823727,-0.221192 -1.714156,-0.396875 -2.655014,-0.519994 0,-7.94e-4 0,-0.0013 0,-0.0019 0.941573,0.123119 1.831287,0.29986 2.655014,0.521758 0.03421,0.0088 0.06808,0.01834 0.101944,0.02787 0.121709,0.03352 0.242015,0.06773 0.360548,0.103365 0.03739,0.01164 0.07549,0.02222 0.112898,0.03387 0.143563,0.04374 0.285035,0.08925 0.424021,0.136173 0.0353,0.01164 0.06916,0.02434 0.104087,0.03669 0.104061,0.03598 0.207433,0.07303 0.308663,0.110421 0.02037,0.0074 0.04199,0.01447 0.06244,0.02223 0,7.93e-4 0,0.0011 0,0.0013 2.233797,0.843491 3.736634,2.065514 4.018494,3.44805 3.0494,-2.958394 4.94983,-7.094361 4.94983,-11.668125 0,-8.969375 -7.296872,-16.266229 -16.265877,-16.266229"
         style="fill:#cceef5;fill-opacity:1;fill-rule:nonzero;stroke:none;stroke-width:0.03527778"
         id="path42" />
      <path
         inkscape:connector-curvature="0"
         d="m -94.279755,91.549011 c 0.408861,2.378781 3.372194,4.204758 6.911631,4.204758 3.538009,0 6.501342,-1.825625 6.911261,-4.2037 -0.02355,-0.0085 -0.04762,-0.01693 -0.07162,-0.0254 v 0 c -0.0045,-0.0013 -0.0095,-0.0032 -0.01402,-0.0049 0,0 0,0 0,0 -0.0026,-2.64e-4 -0.0032,-0.0011 -0.0045,-0.0013 v -2.64e-4 c -0.0026,-2.65e-4 -0.0029,-0.0011 -0.0042,-0.0013 -0.0026,-7.94e-4 -0.0034,-0.0011 -0.005,-0.0019 l -0.09983,-0.03492 c -0.13724,-0.04657 -0.274823,-0.09102 -0.415211,-0.133702 l -0.113956,-0.03387 c -0.113241,-0.03387 -0.230716,-0.06773 -0.349594,-0.100542 0,0 0,0 0,0 0,0 0,0 0,-2.64e-4 l -0.01508,-0.0042 c -0.0098,-0.0024 -0.02037,-0.0053 -0.02037,-0.0053 l -0.0635,-0.01765 c -0.0077,-0.0021 -0.01561,-0.0039 -0.02355,-0.006 -0.808223,-0.216252 -1.679575,-0.38594 -2.586223,-0.504473 -0.175683,-0.02328 -0.306916,-0.17286 -0.306916,-0.349954 0,-0.1016 0.04373,-0.198966 0.119935,-0.265996 0.07657,-0.06667 0.175684,-0.09913 0.278712,-0.08537 0.941917,0.123118 1.850655,0.301625 2.700867,0.530576 l 0.104775,0.02857 c 0.0029,7.94e-4 0.0056,0.0013 0.0077,0.0024 0.119592,0.03246 0.240242,0.06738 0.359489,0.103013 l 0.115359,0.03457 c 0.03667,0.01093 0.07303,0.02257 0.109696,0.03387 0.101256,0.03175 0.202142,0.06456 0.301995,0.09807 0.0026,2.64e-4 0.0026,7.94e-4 0.004,0.0013 0.004,0.0011 0.0074,0.0021 0.01085,0.0035 0.0026,7.93e-4 0.0045,0.0013 0.0071,0.0024 l 0.105145,0.03704 c 0.10795,0.03739 0.213784,0.07514 0.31713,0.113241 l 0.06316,0.02257 c 0.01085,0.0042 0.02143,0.0088 0.03209,0.0141 2.087033,0.793395 3.486153,1.880303 4.020983,3.106912 2.86665,-2.980971 4.43865,-6.868229 4.43865,-11.009136 0,-8.774641 -7.138463,-15.913451 -15.913104,-15.913451 -8.775012,0 -15.913469,7.13881 -15.913469,15.913451 0,4.142317 1.57234,8.030282 4.440421,11.011252 0.536919,-1.23472 1.946619,-2.328333 4.050242,-3.122787 0.0053,-0.0019 0.01032,-0.0035 0.01508,-0.0053 l 0.193675,-0.07126 c 1.192054,-0.429684 2.537883,-0.744361 3.999098,-0.935212 0.152743,-0.01765 0.29456,0.0575 0.361606,0.19191 0.02434,0.04904 0.03739,0.104775 0.03739,0.159456 0,0.177094 -0.131233,0.326671 -0.306916,0.349954 -1.389936,0.181681 -2.66454,0.475898 -3.788834,0.875242 z m 6.911631,4.910314 c -3.813175,0 -7.025931,-2.009423 -7.580497,-4.653139 -1.931459,0.805391 -3.157723,1.897239 -3.388069,3.030362 -0.02567,0.126294 -0.11819,0.2286 -0.2413,0.2667 -0.123481,0.03845 -0.257175,0.0056 -0.349965,-0.08396 -3.262495,-3.163359 -5.059175,-7.398102 -5.059175,-11.923536 0,-9.163756 7.455242,-16.619008 16.619006,-16.619008 9.163394,0 16.618637,7.455252 16.618637,16.619008 0,4.524023 -1.79599,8.757709 -5.05706,11.921419 -0.0924,0.08961 -0.22683,0.122415 -0.34959,0.08361 -0.12348,-0.0381 -0.21627,-0.140404 -0.24167,-0.266345 -0.23035,-1.130655 -1.457673,-2.22109 -3.390189,-3.026834 -0.555625,2.643011 -3.768381,4.651727 -7.580128,4.651727"
         style="fill:#2c5871;fill-opacity:1;fill-rule:nonzero;stroke:none;stroke-width:0.03527778"
         id="path44" />
      <path
         inkscape:connector-curvature="0"
         d="m -94.204957,91.149667 c 0.117475,-0.03986 0.237755,-0.07796 0.358775,-0.115358 0.04302,-0.01376 0.08501,-0.02787 0.128058,-0.04127 0.134409,-0.04057 0.271278,-0.07902 0.408861,-0.117123 0.02998,-0.0081 0.05927,-0.01728 0.0889,-0.02506 0.152056,-0.04127 0.306917,-0.08043 0.46355,-0.118534 0.01376,-0.0032 0.0268,-0.0067 0.04022,-0.0099 0.687572,-0.165452 1.416764,-0.300212 2.179452,-0.40005 -0.02926,-0.200025 -0.04831,-0.403929 -0.04831,-0.613479 v -2.630664 c 0.879819,0.711552 1.998477,1.139118 3.217333,1.139118 1.219888,0 2.337144,-0.427566 3.216619,-1.139118 v 2.630664 c 0,0.20955 -0.01879,0.413454 -0.04834,0.613479 0.764831,0.09984 1.495425,0.235305 2.18477,0.401109 0.0085,0.0021 0.01667,0.0042 0.0254,0.0063 0.162269,0.03951 0.322078,0.08008 0.479055,0.122414 0.02143,0.006 0.04199,0.01236 0.0635,0.01799 0.14605,0.03987 0.291412,0.08149 0.433229,0.124531 0.02998,0.0088 0.05855,0.01905 0.08818,0.02787 1.006819,0.312915 1.897592,0.695325 2.633478,1.134181 -0.662147,-4.405489 -1.323605,-8.810979 -1.985778,-13.216114 -0.744008,-4.17054 -3.924644,-6.746169 -7.090119,-6.746169 -3.165475,0 -6.346481,2.575629 -7.090833,6.746169 -0.661829,4.405489 -1.323631,8.810625 -1.985804,13.216114 0.602562,-0.359129 1.310217,-0.680156 2.097617,-0.956733 0.04762,-0.01659 0.09385,-0.03422 0.142187,-0.05045"
         style="fill:#34ca9d;fill-opacity:1;fill-rule:nonzero;stroke:none;stroke-width:0.03527778"
         id="path46" />
      <path
         inkscape:connector-curvature="0"
         d="m -87.368124,72.547342 c -2.778495,0 -5.986991,2.217208 -6.7437,6.455481 l -1.878541,12.504561 c 0.463179,-0.231775 0.97401,-0.446265 1.52646,-0.640292 l 0.146394,-0.05186 c 0.119592,-0.04057 0.243073,-0.07973 0.366554,-0.118182 l 0.128058,-0.04057 c 0.1397,-0.04233 0.2794,-0.08149 0.419444,-0.12065 l 0.09173,-0.02574 c 0.153803,-0.04163 0.311838,-0.08185 0.471647,-0.12065 0,0 0.04093,-0.0099 0.04093,-0.0099 0.59936,-0.144285 1.22801,-0.264935 1.87325,-0.359127 -0.0082,-0.106892 -0.01244,-0.210257 -0.01244,-0.311502 v -2.630665 c 0,-0.136173 0.07832,-0.259998 0.201084,-0.318558 0.121708,-0.05856 0.267414,-0.04163 0.373591,0.0441 0.857621,0.694267 1.893359,1.060802 2.995454,1.060802 1.102069,0 2.137463,-0.366535 2.994713,-1.060802 0.105833,-0.08537 0.251883,-0.102306 0.373592,-0.0441 0.122766,0.05856 0.201083,0.182385 0.201083,0.318558 v 2.630665 c 0,0.1016 -0.004,0.204962 -0.01243,0.311502 0.64381,0.09384 1.274233,0.21449 1.878541,0.360185 0.191559,0.04657 0.354172,0.0882 0.51435,0.131233 l 0.04056,0.01164 c 0.172852,0.04762 0.321389,0.08961 0.466381,0.134057 l 0.05466,0.01693 c 0,2.64e-4 0.03458,0.0113 0.03564,0.0113 0.764117,0.237418 1.459098,0.512585 2.074334,0.820912 l -1.880311,-12.5137 c -0.754591,-4.228393 -3.963088,-6.445602 -6.741213,-6.445602 z m -9.076637,19.962283 c -0.06842,0 -0.137213,-0.01976 -0.19685,-0.05997 -0.112871,-0.07585 -0.172138,-0.210254 -0.152029,-0.345016 l 1.985777,-13.216467 c 0.729536,-4.086929 3.857625,-7.046381 7.439739,-7.046381 3.582088,0 6.709834,2.959452 7.437597,7.036856 l 1.987206,13.225992 c 0.02011,0.134762 -0.03916,0.269171 -0.152056,0.345016 -0.11393,0.07655 -0.260694,0.08008 -0.377825,0.01024 -0.709084,-0.423686 -1.569853,-0.793399 -2.557278,-1.100315 l -0.08255,-0.02612 c -0.14216,-0.04339 -0.284691,-0.08396 -0.427222,-0.122766 l 0.02963,-0.358423 -0.09242,0.340783 c -0.153802,-0.04198 -0.31115,-0.08184 -0.470244,-0.12065 -0.7112,-0.171098 -1.434042,-0.303742 -2.17207,-0.40005 -0.09419,-0.01236 -0.178859,-0.06173 -0.236009,-0.137231 -0.05715,-0.07549 -0.08112,-0.170744 -0.06736,-0.264229 0.02998,-0.20179 0.04445,-0.38594 0.04445,-0.561975 v -1.950157 c -0.85762,0.52705 -1.852083,0.81139 -2.86385,0.81139 -1.012137,0 -2.00697,-0.284692 -2.864564,-0.81139 v 1.950157 c 0,0.173566 0.01455,0.357716 0.04445,0.562679 0.01376,0.09349 -0.01058,0.188383 -0.06739,0.263879 -0.05715,0.07514 -0.141817,0.124529 -0.235638,0.136877 -0.740834,0.09701 -1.461559,0.229306 -2.142437,0.392994 l -0.123111,-0.333021 0.08326,0.3429 c -0.153458,0.03739 -0.30517,0.07549 -0.454739,0.116062 l -0.0875,0.02469 c -0.134408,0.03739 -0.268102,0.07514 -0.399679,0.114652 l -0.124196,0.03986 c -0.119935,0.03739 -0.237754,0.07444 -0.352425,0.113241 l -0.139329,0.04939 c -0.772954,0.27164 -1.456981,0.583497 -2.032715,0.926748 -0.05575,0.03316 -0.118189,0.04974 -0.180631,0.04974"
         style="fill:#2c5871;fill-opacity:1;fill-rule:nonzero;stroke:none;stroke-width:0.03527778"
         id="path48" />
      <path
         inkscape:connector-curvature="0"
         d="m -62.833497,53.844123 c -3.75179,0 -6.80474,3.052234 -6.80474,6.804377 0,3.751792 3.05295,6.804025 6.80474,6.804025 3.75179,0 6.80403,-3.052233 6.80403,-6.804025 0,-3.752143 -3.05224,-6.804377 -6.80403,-6.804377 z m 0,14.313959 c -4.14126,0 -7.51028,-3.368675 -7.51028,-7.509582 0,-4.141258 3.36902,-7.509933 7.51028,-7.509933 4.14092,0 7.50959,3.368675 7.50959,7.509933 0,4.140907 -3.36867,7.509582 -7.50959,7.509582"
         style="fill:#2c5871;fill-opacity:1;fill-rule:nonzero;stroke:none;stroke-width:0.03527778"
         id="path50" />
      <path
         inkscape:connector-curvature="0"
         d="m -64.961087,60.026555 c -0.39937,0 -0.7973,-0.07126 -1.18216,-0.210963 l 0.24024,-0.66322 c 0.30832,0.111828 0.6251,0.168626 0.94192,0.168626 1.12993,0 2.15228,-0.697089 2.54317,-1.734608 0.0646,-0.171098 0.11076,-0.349602 0.13759,-0.529518 l 0.69778,0.103716 c -0.0339,0.229304 -0.0928,0.456494 -0.17534,0.67451 -0.49387,1.310569 -1.78152,2.191457 -3.2032,2.191457"
         style="fill:#2c5871;fill-opacity:1;fill-rule:nonzero;stroke:none;stroke-width:0.03527778"
         id="path52" />
      <path
         inkscape:connector-curvature="0"
         d="m -59.587927,60.600172 c -0.0406,0 -0.0808,-0.0071 -0.11925,-0.02082 -1.29892,-0.466725 -2.31106,-1.541285 -2.70793,-2.874785 l 0.67627,-0.201084 c 0.28329,0.951442 0.93874,1.745896 1.79811,2.202744 V 59.309 c 0,-1.21638 -0.77399,-2.302933 -1.9258,-2.704042 l 0.23212,-0.666398 c 1.43476,0.499533 2.39924,1.8542 2.39924,3.37044 v 0.938387 c 0,0.115006 -0.0561,0.222605 -0.14994,0.288573 -0.0603,0.04233 -0.13123,0.06421 -0.20282,0.06421"
         style="fill:#2c5871;fill-opacity:1;fill-rule:nonzero;stroke:none;stroke-width:0.03527778"
         id="path54" />
      <path
         inkscape:connector-curvature="0"
         d="m -64.630207,60.01068 v 1.067152 c 0,1.006123 0.81847,1.824566 1.82423,1.824566 1.00647,0 1.82491,-0.818443 1.82491,-1.824566 v -1.221317 c -0.45789,-0.37465 -0.83783,-0.843843 -1.11265,-1.368073 -0.56021,0.85443 -1.49154,1.4224 -2.53649,1.522238 z m 1.82423,3.597275 c -1.39489,0 -2.52976,-1.134888 -2.52976,-2.530123 v -1.405467 c 0,-0.204258 0.18555,-0.366535 0.39227,-0.351015 1.1416,-2.64e-4 2.17135,-0.7239 2.54529,-1.800577 0.049,-0.141816 0.18275,-0.237066 0.33303,-0.237066 0.003,0 0.004,0 0.007,0 0.1524,0.0028 0.28575,0.103716 0.33057,0.249415 0.22754,0.741185 0.6932,1.405112 1.31161,1.869368 0.0886,0.06667 0.14076,0.17145 0.14076,0.282223 v 1.393119 c 0,1.395235 -1.13487,2.530123 -2.53047,2.530123"
         style="fill:#2c5871;fill-opacity:1;fill-rule:nonzero;stroke:none;stroke-width:0.03527778"
         id="path56" />
      <path
         inkscape:connector-curvature="0"
         d="m -63.821267,63.394172 v 0.495651 c 0,0.427215 0.60606,0.911577 1.01494,1.157111 0.375,-0.226484 1.01669,-0.706612 1.01669,-1.157111 v -0.495651 c -0.63674,0.2794 -1.39417,0.279751 -2.03163,0 z m 1.01529,2.409825 c -0.055,0 -0.10973,-0.01304 -0.16053,-0.03845 -0.15943,-0.08184 -1.56032,-0.827617 -1.56032,-1.875719 v -1.119364 c 0,-0.135819 0.078,-0.259644 0.20074,-0.318204 0.12171,-0.05856 0.2681,-0.04163 0.37359,0.04409 0.65791,0.53199 1.63758,0.531284 2.29375,0 0.10618,-0.08573 0.25154,-0.102658 0.37394,-0.04409 0.12276,0.05856 0.20074,0.182385 0.20074,0.318204 v 1.119364 c 0,1.048102 -1.40158,1.793875 -1.56105,1.875719 -0.0508,0.0254 -0.10549,0.03845 -0.16086,0.03845"
         style="fill:#2c5871;fill-opacity:1;fill-rule:nonzero;stroke:none;stroke-width:0.03527778"
         id="path58" />
      <path
         inkscape:connector-curvature="0"
         d="m -67.181477,65.877022 c 1.22166,1.017762 2.75625,1.575503 4.34798,1.575503 1.61007,0 3.15772,-0.568325 4.38573,-1.605843 -0.35065,-0.574675 -1.42205,-1.081617 -2.77071,-1.30316 -0.34184,0.710141 -1.31585,1.171926 -1.44111,1.228725 -0.0931,0.04233 -0.20002,0.04233 -0.29244,0 -0.12523,-0.0568 -1.09855,-0.518584 -1.44111,-1.228725 -1.37935,0.226128 -2.45919,0.74577 -2.78834,1.3335 z m 4.34798,2.28106 c -1.84751,0 -3.62445,-0.680157 -5.0038,-1.915584 -0.0988,-0.08855 -0.14004,-0.225425 -0.10549,-0.353835 0.27236,-1.021291 1.70815,-1.82104 3.74616,-2.087033 0.19015,-0.02363 0.36618,0.107595 0.39441,0.297743 0.0536,0.359834 0.62299,0.757415 0.99624,0.957792 0.37393,-0.200377 0.94332,-0.597958 0.99695,-0.95744 0.0286,-0.190145 0.20426,-0.322437 0.39441,-0.298095 1.99459,0.259995 3.42477,1.039635 3.73169,2.03482 0.0406,0.130882 0.003,0.27305 -0.0995,0.365125 -1.38679,1.261888 -3.18066,1.956507 -5.05108,1.956507"
         style="fill:#2c5871;fill-opacity:1;fill-rule:nonzero;stroke:none;stroke-width:0.03527778"
         id="path60" />
      <path
         inkscape:connector-curvature="0"
         d="m -64.174057,62.417682 c 0.079,0 0.15769,0.02681 0.22156,0.07867 0.65791,0.53199 1.63758,0.531284 2.29375,0 0.10618,-0.08573 0.25154,-0.102658 0.37394,-0.04409 0.054,0.02574 0.0995,0.0642 0.13335,0.11077 0.51117,-0.227187 0.93064,-0.555977 1.21073,-0.952852 v -2.301168 c 0,-1.57974 -1.2855,-2.864908 -2.86525,-2.864908 -1.57938,0 -2.86457,1.285168 -2.86457,2.864908 v 2.30152 c 0.28012,0.396875 0.69993,0.725665 1.21111,0.9525 0.0339,-0.04657 0.0794,-0.08502 0.13335,-0.11077 0.0483,-0.02294 0.10017,-0.03457 0.15203,-0.03457 z m 1.36808,1.190273 c -0.40217,0 -0.79904,-0.09737 -1.15464,-0.279755 -0.003,0.0013 -0.003,0.0028 -0.005,0.0039 -0.0907,0.06667 -0.20777,0.08537 -0.31466,0.05186 -0.88371,-0.279752 -1.60833,-0.803627 -2.03941,-1.474965 -0.0367,-0.0568 -0.0561,-0.123118 -0.0561,-0.190852 v -2.40913 c 0,-1.968855 1.6016,-3.570465 3.5701,-3.570465 1.96921,0 3.57081,1.60161 3.57081,3.570465 v 2.408766 c 0,0.06773 -0.0193,0.133702 -0.0561,0.190852 -0.43108,0.671336 -1.15535,1.195565 -2.03906,1.475317 -0.10689,0.03422 -0.224,0.01482 -0.31467,-0.05186 -0.003,-0.0011 -0.003,-0.0024 -0.005,-0.0039 -0.35595,0.182388 -0.75282,0.279755 -1.1557,0.279755"
         style="fill:#2c5871;fill-opacity:1;fill-rule:nonzero;stroke:none;stroke-width:0.03527778"
         id="path62" />
      <path
         inkscape:connector-curvature="0"
         d="m -132.35964,84.293784 c -3.75144,0 -6.80403,3.052233 -6.80403,6.804377 0,3.751791 3.05259,6.804025 6.80403,6.804025 3.75214,0 6.80437,-3.052234 6.80437,-6.804025 0,-3.752144 -3.05223,-6.804377 -6.80437,-6.804377 z m 0,14.313958 c -4.14056,0 -7.50959,-3.369027 -7.50959,-7.509581 0,-4.140904 3.36903,-7.509934 7.50959,-7.509934 4.14125,0 7.50993,3.36903 7.50993,7.509934 0,4.140554 -3.36868,7.509581 -7.50993,7.509581"
         style="fill:#2c5871;fill-opacity:1;fill-rule:nonzero;stroke:none;stroke-width:0.03527778"
         id="path64" />
      <path
         inkscape:connector-curvature="0"
         d="m -121.79501,64.570332 c -3.75214,0 -6.80438,3.052585 -6.80438,6.804377 0,3.751791 3.05224,6.804377 6.80438,6.804377 3.75178,0 6.80439,-3.052586 6.80439,-6.804377 0,-3.751792 -3.05261,-6.804377 -6.80439,-6.804377 z m 0,14.31431 c -4.14126,0 -7.50993,-3.369027 -7.50993,-7.509933 0,-4.140904 3.36867,-7.509934 7.50993,-7.509934 4.1409,0 7.50992,3.36903 7.50992,7.509934 0,4.140906 -3.36902,7.509933 -7.50992,7.509933"
         style="fill:#2c5871;fill-opacity:1;fill-rule:nonzero;stroke:none;stroke-width:0.03527778"
         id="path66" />
      <path
         inkscape:connector-curvature="0"
         d="m -110.1918,96.343615 c -3.75213,0 -6.80437,3.052585 -6.80437,6.804375 0,3.75179 3.05224,6.80438 6.80437,6.80438 3.75179,0 6.80403,-3.05259 6.80403,-6.80438 0,-3.75179 -3.05224,-6.804375 -6.80403,-6.804375 z m 0,14.314305 c -4.14091,0 -7.50993,-3.36902 -7.50993,-7.50993 0,-4.140904 3.36902,-7.509931 7.50993,-7.509931 4.14092,0 7.50959,3.369027 7.50959,7.509931 0,4.14091 -3.36867,7.50993 -7.50959,7.50993"
         style="fill:#2c5871;fill-opacity:1;fill-rule:nonzero;stroke:none;stroke-width:0.03527778"
         id="path68" />
      <path
         inkscape:connector-curvature="0"
         d="m -87.368124,67.182298 c -8.775012,0 -15.913466,7.138811 -15.913466,15.913452 0,8.774642 7.138454,15.9131 15.913466,15.9131 8.774642,0 15.913097,-7.138458 15.913097,-15.9131 0,-8.774641 -7.138455,-15.913452 -15.913097,-15.913452 z m 0,32.532109 c -9.163764,0 -16.619006,-7.455255 -16.619006,-16.618657 0,-9.163756 7.455242,-16.619008 16.619006,-16.619008 9.163394,0 16.618637,7.455252 16.618637,16.619008 0,9.163402 -7.455243,16.618657 -16.618637,16.618657"
         style="fill:#2c5871;fill-opacity:1;fill-rule:nonzero;stroke:none;stroke-width:0.03527778"
         id="path70" />
      <path
         inkscape:connector-curvature="0"
         d="m -56.663417,88.406819 c -3.75213,0 -6.80436,3.052588 -6.80436,6.804379 0,3.752144 3.05223,6.804372 6.80436,6.804372 3.7518,0 6.80437,-3.052228 6.80437,-6.804372 0,-3.751791 -3.05257,-6.804379 -6.80437,-6.804379 z m 0,14.314311 c -4.14125,0 -7.50993,-3.368673 -7.50993,-7.509932 0,-4.140906 3.36868,-7.509933 7.50993,-7.509933 4.14092,0 7.50994,3.369027 7.50994,7.509933 0,4.141259 -3.36902,7.509932 -7.50994,7.509932"
         style="fill:#2c5871;fill-opacity:1;fill-rule:nonzero;stroke:none;stroke-width:0.03527778"
         id="path72" />
      <path
         inkscape:connector-curvature="0"
         d="m -49.831527,67.83035 c -1.06151,0 -1.92474,0.863248 -1.92474,1.924405 0,1.061154 0.86323,1.924402 1.92474,1.924402 1.06116,0 1.92442,-0.863248 1.92442,-1.924402 0,-1.061157 -0.86326,-1.924405 -1.92442,-1.924405 z m 0,4.554363 c -1.45026,0 -2.6303,-1.17969 -2.6303,-2.629958 0,-1.450271 1.18004,-2.629958 2.6303,-2.629958 1.44992,0 2.62996,1.179687 2.62996,2.629958 0,1.450268 -1.18004,2.629958 -2.62996,2.629958"
         style="fill:#2c5871;fill-opacity:1;fill-rule:nonzero;stroke:none;stroke-width:0.03527778"
         id="path74" />
      <path
         inkscape:connector-curvature="0"
         d="m -68.375277,111.74871 c -1.06082,0 -1.92442,0.8636 -1.92442,1.9244 0,1.06116 0.8636,1.92441 1.92442,1.92441 1.06114,0 1.9244,-0.86325 1.9244,-1.92441 0,-1.0608 -0.86326,-1.9244 -1.9244,-1.9244 z m 0,4.55436 c -1.44991,0 -2.62995,-1.17969 -2.62995,-2.62996 0,-1.44991 1.18004,-2.62995 2.62995,-2.62995 1.45026,0 2.62996,1.18004 2.62996,2.62995 0,1.45027 -1.1797,2.62996 -2.62996,2.62996"
         style="fill:#2c5871;fill-opacity:1;fill-rule:nonzero;stroke:none;stroke-width:0.03527778"
         id="path76" />
      <path
         inkscape:connector-curvature="0"
         d="m -122.70412,112.39958 c -1.0608,0 -1.9244,0.86325 -1.9244,1.92441 0,1.06115 0.8636,1.9244 1.9244,1.9244 1.06116,0 1.92476,-0.86325 1.92476,-1.9244 0,-1.06116 -0.8636,-1.92441 -1.92476,-1.92441 z m 0,4.55437 c -1.44991,0 -2.62996,-1.18004 -2.62996,-2.62996 0,-1.44992 1.18005,-2.62996 2.62996,-2.62996 1.45027,0 2.63032,1.18004 2.63032,2.62996 0,1.44992 -1.18005,2.62996 -2.63032,2.62996"
         style="fill:#2c5871;fill-opacity:1;fill-rule:nonzero;stroke:none;stroke-width:0.03527778"
         id="path78" />
      <path
         inkscape:connector-curvature="0"
         d="m -111.64277,55.793573 c -1.06151,0 -1.92477,0.863249 -1.92477,1.924402 0,1.061157 0.86326,1.924405 1.92477,1.924405 1.06116,0 1.92439,-0.863248 1.92439,-1.924405 0,-1.061153 -0.86323,-1.924402 -1.92439,-1.924402 z m 0,4.554361 c -1.45026,0 -2.6303,-1.180042 -2.6303,-2.629959 0,-1.450268 1.18004,-2.629958 2.6303,-2.629958 1.44991,0 2.62996,1.17969 2.62996,2.629958 0,1.449917 -1.18005,2.629959 -2.62996,2.629959"
         style="fill:#2c5871;fill-opacity:1;fill-rule:nonzero;stroke:none;stroke-width:0.03527778"
         id="path80" />
      <path
         inkscape:connector-curvature="0"
         d="m -96.677938,56.769357 c -1.061508,0 -1.924764,0.863248 -1.924764,1.924402 0,1.061156 0.863256,1.924404 1.924764,1.924404 1.061164,0 1.924394,-0.863248 1.924394,-1.924404 0,-1.061154 -0.86323,-1.924402 -1.924394,-1.924402 z m 0,4.55436 c -1.450261,0 -2.630302,-1.179687 -2.630302,-2.629958 0,-1.450269 1.180041,-2.629959 2.630302,-2.629959 1.449917,0 2.629958,1.17969 2.629958,2.629959 0,1.450271 -1.180041,2.629958 -2.629958,2.629958"
         style="fill:#2c5871;fill-opacity:1;fill-rule:nonzero;stroke:none;stroke-width:0.03527778"
         id="path82" />
      <path
         inkscape:connector-curvature="0"
         d="m -129.25449,93.472357 c -0.0504,0 -0.10231,-0.0113 -0.15135,-0.03422 -0.3302,-0.157338 -0.68826,-0.288925 -1.06291,-0.391229 l 0.18591,-0.680863 c 0.29739,0.08114 0.58561,0.179565 0.86078,0.293158 0.23847,-0.544687 0.36371,-1.150408 0.36371,-1.769885 0,-2.137481 -1.48096,-3.876323 -3.30129,-3.876323 -1.82034,0 -3.30095,1.738842 -3.30095,3.876323 0,0.619125 0.12489,1.224492 0.36372,1.769533 0.27446,-0.113241 0.56233,-0.211314 0.86007,-0.292806 l 0.18591,0.680863 c -0.37535,0.102658 -0.73271,0.234243 -1.06256,0.390877 -0.1711,0.08149 -0.37359,0.0141 -0.46214,-0.151694 -0.38629,-0.719315 -0.59055,-1.54799 -0.59055,-2.396773 0,-2.526594 1.7974,-4.581877 4.0065,-4.581877 2.20944,0 4.00685,2.055283 4.00685,4.581877 0,0.84949 -0.20426,1.678517 -0.59055,2.397125 -0.0635,0.117827 -0.18486,0.185915 -0.31115,0.185915"
         style="fill:#2c5871;fill-opacity:1;fill-rule:nonzero;stroke:none;stroke-width:0.03527778"
         id="path84" />
      <path
         inkscape:connector-curvature="0"
         d="m -131.55672,93.301259 0.2226,0.275518 -0.18979,-0.297743 c 0.042,-0.02646 0.0832,-0.05362 0.12347,-0.08432 l 0.0356,-0.02963 c 0.0381,-0.03034 0.078,-0.06244 0.11712,-0.09843 0.019,-0.02011 0.0332,-0.03457 0.0483,-0.04833 0.0399,-0.03987 0.0699,-0.0695 0.0984,-0.101248 v 0 c 0.001,-0.0013 0.003,-0.0028 0.004,-0.0046 0.41593,-0.466373 0.73272,-1.183923 0.91617,-2.07645 0.007,-0.0374 0.0141,-0.07514 0.0204,-0.113596 h -1.94236 c -0.0314,0 -0.0621,-0.0042 -0.091,-0.01198 -0.0293,0.0078 -0.06,0.01198 -0.0914,0.01198 h -0.73166 c -0.0893,0 -0.17145,-0.03351 -0.23424,-0.08925 -0.0628,0.05574 -0.145,0.08925 -0.23425,0.08925 h -1.07385 c 0.006,0.03916 0.013,0.07797 0.0208,0.116417 0.32596,1.59385 1.05551,2.57175 2.0013,2.681816 0.004,2.65e-4 0.008,7.94e-4 0.0127,0.0013 0.0522,0.006 0.10407,0.0095 0.15734,0.0099 0.0109,-0.0011 0.0321,-0.0024 0.0378,-0.0028 0.0448,-0.0011 0.0896,-0.0021 0.13406,-0.0071 0.005,-0.0011 0.0621,-0.01024 0.0677,-0.01093 0.0296,-0.0046 0.0642,-0.0088 0.0984,-0.01659 l 0.0476,-0.01376 c 0.0579,-0.01516 0.0861,-0.02188 0.1143,-0.03175 l 0.0261,-0.01236 c 0.0519,-0.01905 0.0889,-0.03246 0.12524,-0.05009 0.0173,-0.0095 0.031,-0.01659 0.0452,-0.02363 0.0356,-0.01765 0.0748,-0.03704 0.11359,-0.06173 z m -0.80292,0.936273 c -0.079,0 -0.15699,-0.0046 -0.23531,-0.01304 -0.004,-2.65e-4 -0.007,-7.94e-4 -0.0109,-0.0011 -1.27423,-0.141816 -2.23096,-1.324326 -2.62396,-3.245553 -0.0363,-0.18415 -0.0596,-0.375709 -0.072,-0.588082 -0.005,-0.09701 0.0293,-0.19191 0.0956,-0.262466 0.0667,-0.07056 0.15946,-0.110419 0.25683,-0.110419 h 1.15746 l 0.19156,-1.37654 c 0.024,-0.173918 0.17321,-0.303741 0.34925,-0.303741 v 0 c 0.17604,0 0.32491,0.129468 0.34925,0.303741 l 0.19262,1.37654 h 0.10548 l 0.0582,-0.585258 c 0.018,-0.180272 0.16968,-0.317855 0.35101,-0.317855 0.18133,0 0.33267,0.137232 0.35102,0.317855 l 0.0586,0.585258 h 2.01542 c 0.0974,0 0.18979,0.03986 0.25682,0.110419 0.0663,0.07056 0.10089,0.165451 0.0952,0.262466 -0.0124,0.216252 -0.0349,0.402519 -0.0716,0.585965 -0.21237,1.033637 -0.5775,1.84432 -1.08479,2.410883 -0.003,0.0032 -0.007,0.0067 -0.01,0.01024 -0.0353,0.03845 -0.072,0.07514 -0.10831,0.111125 -0.004,0.0035 -0.0272,0.02681 -0.0307,0.03034 -0.002,0.0021 -0.037,0.03775 -0.0392,0.03951 -0.0593,0.05539 -0.11253,0.09843 -0.16615,0.141113 -0.019,0.01622 -0.0332,0.02822 -0.0476,0.0388 -0.0526,0.04057 -0.11042,0.07902 -0.16934,0.116417 l -0.0409,0.02716 c -0.0557,0.03493 -0.11571,0.06632 -0.17709,0.09666 -0.019,0.0113 -0.0413,0.02257 -0.0646,0.03211 -0.0367,0.01905 -0.0984,0.04304 -0.16228,0.06562 -0.008,0.0049 -0.0257,0.01236 -0.043,0.01871 -0.0522,0.01799 -0.0974,0.02999 -0.14252,0.04163 l -0.14534,-0.325967 0.10089,0.33796 c -0.006,0.0019 -0.0444,0.01236 -0.0508,0.01376 -0.0575,0.01304 -0.10795,0.02082 -0.16122,0.02822 -0.0437,0.0074 -0.0642,0.01093 -0.084,0.01341 -0.0653,0.0071 -0.12982,0.0095 -0.19615,0.0113 -0.008,0.0013 -0.0279,0.0028 -0.048,0.0028"
         style="fill:#2c5871;fill-opacity:1;fill-rule:nonzero;stroke:none;stroke-width:0.03527778"
         id="path86" />
      <path
         inkscape:connector-curvature="0"
         d="m -133.33119,90.943644 c -0.14888,0 -0.26988,0.121004 -0.26988,0.269523 0,0.149577 0.121,0.270227 0.26988,0.270227 0.14887,0 0.26987,-0.12065 0.26987,-0.270227 0,-0.148519 -0.121,-0.269523 -0.26987,-0.269523 v 0"
         style="fill:#2c5871;fill-opacity:1;fill-rule:nonzero;stroke:none;stroke-width:0.03527778"
         id="path88" />
      <path
         inkscape:connector-curvature="0"
         d="m -131.38739,90.943644 c -0.14887,0 -0.26987,0.121004 -0.26987,0.269523 0,0.149577 0.121,0.270227 0.26987,0.270227 0.14887,0 0.26988,-0.12065 0.26988,-0.270227 0,-0.148519 -0.12101,-0.269523 -0.26988,-0.269523 v 0"
         style="fill:#2c5871;fill-opacity:1;fill-rule:nonzero;stroke:none;stroke-width:0.03527778"
         id="path90" />
      <path
         inkscape:connector-curvature="0"
         d="m -125.96202,76.892507 h -0.70556 c 0,-1.618192 1.40512,-2.935113 3.13161,-2.935113 v 0.705556 c -1.33773,0 -2.42605,1.000125 -2.42605,2.229557"
         style="fill:#2c5871;fill-opacity:1;fill-rule:nonzero;stroke:none;stroke-width:0.03527778"
         id="path92" />
      <path
         inkscape:connector-curvature="0"
         d="m -116.7891,76.892507 h -0.70554 c 0,-1.229432 -1.08834,-2.229557 -2.42606,-2.229557 v -0.705556 c 1.72684,0 3.1316,1.316921 3.1316,2.935113"
         style="fill:#2c5871;fill-opacity:1;fill-rule:nonzero;stroke:none;stroke-width:0.03527778"
         id="path94" />
      <path
         inkscape:connector-curvature="0"
         d="m -121.8698,67.123032 c -0.59372,0 -1.16875,0.282223 -1.57762,0.773641 -0.55633,0.668515 -0.75494,1.618544 -0.55951,2.674409 0.36231,1.914525 1.21427,3.058935 2.27895,3.059993 1.06257,-0.0011 1.91453,-1.14582 2.2786,-3.061758 0.19507,-1.054452 -0.004,-2.004483 -0.56092,-2.67335 -0.43604,-0.524579 -1.05869,-0.811035 -1.69545,-0.769054 -0.0145,0.0011 -0.0296,0.0011 -0.0441,0 -0.0402,-0.0024 -0.0804,-0.0039 -0.11995,-0.0039 z m 0.14217,7.2136 c -2.6e-4,0 -2.6e-4,0 -7.9e-4,0 -1.43051,-0.0011 -2.54141,-1.36031 -2.97215,-3.635727 -0.2346,-1.26718 0.018,-2.42288 0.71049,-3.255433 0.57538,-0.691092 1.40123,-1.067859 2.26201,-1.024115 0.84737,-0.04727 1.68487,0.33161 2.2599,1.023408 0.69321,0.832908 0.94615,1.988608 0.71226,3.254375 -0.4332,2.277182 -1.54376,3.636433 -2.9718,3.637492"
         style="fill:#2c5871;fill-opacity:1;fill-rule:nonzero;stroke:none;stroke-width:0.03527778"
         id="path96" />
      <path
         inkscape:connector-curvature="0"
         d="m -123.57971,68.078355 c 0.055,0.01236 0.10689,0.03775 0.15063,0.07479 0.58491,0.493538 1.14124,0.738013 1.7011,0.747538 0.55845,-0.0088 1.11478,-0.253296 1.70109,-0.747538 0.0434,-0.03669 0.0949,-0.06209 0.14923,-0.07444 -0.43074,-0.625827 -1.10208,-0.99695 -1.82809,-0.951794 -0.0145,0.0011 -0.0296,0.0011 -0.0441,0 -0.72814,-0.04586 -1.39877,0.326319 -1.82986,0.951442 z m 1.85173,1.527879 c -0.002,0 -0.004,0 -0.005,0 -0.63888,-0.0095 -1.2566,-0.238829 -1.88066,-0.699911 -0.1711,0.172157 -0.36089,0.318207 -0.56621,0.436034 -0.11994,0.06879 -0.26987,0.06138 -0.38205,-0.01976 -0.11254,-0.08114 -0.16722,-0.220837 -0.13935,-0.356658 0.31715,-1.552575 1.55645,-2.625019 2.97356,-2.544585 1.40653,-0.08043 2.65394,0.991658 2.97215,2.543881 0.0279,0.136171 -0.0265,0.276225 -0.1397,0.357362 -0.1129,0.08079 -0.26247,0.08855 -0.38277,0.01905 -0.2046,-0.118533 -0.39334,-0.264228 -0.56373,-0.435327 -0.62547,0.461786 -1.24319,0.691092 -1.88101,0.699911 -0.002,0 -0.003,0 -0.005,0"
         style="fill:#2c5871;fill-opacity:1;fill-rule:nonzero;stroke:none;stroke-width:0.03527778"
         id="path98" />
      <path
         inkscape:connector-curvature="0"
         d="m -123.81819,70.50723 -0.003,0.06879 c -0.004,0.09701 0.0307,0.187325 0.0995,0.26035 0.0875,0.09349 0.21731,0.14887 0.35666,0.152045 l 0.34255,-0.0042 c 0.13899,-0.0063 0.27763,-0.06738 0.36865,-0.167217 0.0441,-0.04833 0.0956,-0.127 0.0907,-0.226835 l -0.002,-0.06703 c -0.41028,-0.10513 -0.8449,-0.110773 -1.25271,-0.01588 z m 0.45191,1.186743 c -0.002,0 -0.004,0 -0.005,0 -0.33161,-0.0053 -0.64664,-0.142168 -0.86501,-0.375356 -0.20073,-0.214135 -0.30339,-0.487892 -0.28928,-0.77117 l 0.007,-0.193324 c 10e-4,-0.06103 0.0113,-0.129823 0.0261,-0.197556 0.0272,-0.121708 0.11642,-0.220133 0.23495,-0.258937 0.68756,-0.224367 1.44498,-0.2159 2.13642,0.02328 0.11889,0.04092 0.20673,0.142169 0.23072,0.265287 0.0138,0.06985 0.0236,0.129472 0.0254,0.18768 l 0.007,0.189793 c 0.0124,0.259292 -0.0847,0.520349 -0.27411,0.728486 -0.21661,0.237066 -0.53375,0.382058 -0.87066,0.397229 l -0.35877,0.0046 c -0.002,0 -0.004,0 -0.005,0"
         style="fill:#2c5871;fill-opacity:1;fill-rule:nonzero;stroke:none;stroke-width:0.03527778"
         id="path100" />
      <path
         inkscape:connector-curvature="0"
         d="m -120.89049,70.50723 -0.002,0.06033 c -0.005,0.105127 0.031,0.196143 0.10019,0.269875 0.0875,0.09278 0.21696,0.147812 0.35596,0.150987 l 0.34325,-0.0042 c 0.13864,-0.0063 0.27693,-0.06703 0.36795,-0.167217 0.0437,-0.04798 0.0949,-0.126294 0.09,-0.225777 -2.7e-4,-0.02363 -10e-4,-0.04622 -0.002,-0.06808 -0.41099,-0.10513 -0.84455,-0.110773 -1.25342,-0.01588 z m 0.45262,1.186743 c -0.002,0 -0.004,0 -0.005,0 -0.33056,-0.0053 -0.64453,-0.141464 -0.8629,-0.372885 -0.20108,-0.213783 -0.3048,-0.487891 -0.2921,-0.771879 l 0.008,-0.191559 c 0.003,-0.07055 0.0124,-0.135466 0.0261,-0.198612 0.0261,-0.122766 0.11572,-0.22225 0.23531,-0.261408 0.68827,-0.224367 1.44462,-0.2159 2.13747,0.02294 0.11959,0.04163 0.2078,0.144288 0.23143,0.269171 0.0127,0.0695 0.0222,0.130175 0.0233,0.189794 0.003,0.05362 0.005,0.119944 0.007,0.185915 0.013,0.256468 -0.084,0.517877 -0.2734,0.72672 -0.21661,0.237773 -0.53375,0.382765 -0.87065,0.39723 l -0.35878,0.0046 c -0.002,0 -0.003,0 -0.005,0"
         style="fill:#2c5871;fill-opacity:1;fill-rule:nonzero;stroke:none;stroke-width:0.03527778"
         id="path102" />
      <path
         inkscape:connector-curvature="0"
         d="m -121.24291,70.96584 h -0.86113 v -0.705556 h 0.86113 v 0.705556"
         style="fill:#2c5871;fill-opacity:1;fill-rule:nonzero;stroke:none;stroke-width:0.03527778"
         id="path104" />
      <path
         inkscape:connector-curvature="0"
         d="m -103.93811,99.307652 -0.44521,-0.547862 5.205255,-4.2291 0.445188,0.54751 -5.205233,4.229452"
         style="fill:#2c5871;fill-opacity:1;fill-rule:nonzero;stroke:none;stroke-width:0.03527778"
         id="path106" />
      <path
         inkscape:connector-curvature="0"
         d="m -117.24948,100.52685 -9.21772,-5.66596 0.36936,-0.600781 9.21772,5.665964 -0.36936,0.600777"
         style="fill:#2c5871;fill-opacity:1;fill-rule:nonzero;stroke:none;stroke-width:0.03527778"
         id="path108" />
      <path
         inkscape:connector-curvature="0"
         d="m -102.8639,76.920375 -12.14577,-4.120795 0.22682,-0.668163 12.14544,4.120798 -0.22649,0.66816"
         style="fill:#2c5871;fill-opacity:1;fill-rule:nonzero;stroke:none;stroke-width:0.03527778"
         id="path110" />
      <path
         inkscape:connector-curvature="0"
         d="m -75.411447,72.083088 -0.45826,-0.536575 7.37447,-6.289675 0.45792,0.536927 -7.37413,6.289323"
         style="fill:#2c5871;fill-opacity:1;fill-rule:nonzero;stroke:none;stroke-width:0.03527778"
         id="path112" />
      <path
         inkscape:connector-curvature="0"
         d="m -63.808937,93.690019 -8.93268,-3.765902 0.27446,-0.650169 8.93233,3.76555 -0.27411,0.650521"
         style="fill:#2c5871;fill-opacity:1;fill-rule:nonzero;stroke:none;stroke-width:0.03527778"
         id="path114" />
      <path
         inkscape:connector-curvature="0"
         d="m -120.73632,112.85467 -0.46461,-0.53129 5.20489,-4.55436 0.46461,0.53129 -5.20489,4.55436"
         style="fill:#2c5871;fill-opacity:1;fill-rule:nonzero;stroke:none;stroke-width:0.03527778"
         id="path116" />
      <path
         inkscape:connector-curvature="0"
         d="m -118.3198,65.326334 -0.52705,-0.468842 5.2056,-5.855758 0.52705,0.468841 -5.2056,5.855759"
         style="fill:#2c5871;fill-opacity:1;fill-rule:nonzero;stroke:none;stroke-width:0.03527778"
         id="path118" />
      <path
         inkscape:connector-curvature="0"
         d="m -114.94829,69.308138 -0.3288,-0.624416 16.482829,-8.675513 0.328454,0.624416 -16.482483,8.675513"
         style="fill:#2c5871;fill-opacity:1;fill-rule:nonzero;stroke:none;stroke-width:0.03527778"
         id="path120" />
      <path
         inkscape:connector-curvature="0"
         d="m -51.789787,68.18454 -4.77131,-3.90384 0.44624,-0.5461 4.77169,3.90384 -0.44662,0.5461"
         style="fill:#2c5871;fill-opacity:1;fill-rule:nonzero;stroke:none;stroke-width:0.03527778"
         id="path122" />
      <path
         inkscape:connector-curvature="0"
         d="m -66.228977,112.11983 -0.60468,-0.36301 6.32921,-10.54876 0.60499,0.36336 -6.32952,10.54841"
         style="fill:#2c5871;fill-opacity:1;fill-rule:nonzero;stroke:none;stroke-width:0.03527778"
         id="path124" />
      <path
         inkscape:connector-curvature="0"
         d="m -59.499407,93.78915 c 0.23355,0.06315 0.47096,0.0949 0.70803,0.0949 1.49437,0 2.7097,-1.189566 2.7097,-2.651831 0,-0.05539 -0.003,-0.111477 -0.007,-0.170392 -0.18378,-0.03634 -0.36687,-0.05503 -0.54716,-0.05503 -1.5522,0 -2.81974,1.240719 -2.86385,2.782358 z m 0.70803,0.800452 c -0.39899,0 -0.79693,-0.07126 -1.1825,-0.211312 -0.1397,-0.0508 -0.23212,-0.183092 -0.23212,-0.331258 V 93.8717 c 0,-1.968852 1.6016,-3.570464 3.57044,-3.570464 0.31856,0 0.64278,0.04551 0.96309,0.135466 0.13335,0.03704 0.23249,0.148873 0.25365,0.28575 0.0286,0.185915 0.0427,0.352425 0.0427,0.509765 0,1.851025 -1.53209,3.357385 -3.41524,3.357385"
         style="fill:#2c5871;fill-opacity:1;fill-rule:nonzero;stroke:none;stroke-width:0.03527778"
         id="path126" />
      <path
         inkscape:connector-curvature="0"
         d="m -55.719377,91.159544 c 0.0564,1.319742 0.80856,2.504371 1.94873,3.109738 V 93.8717 c 0,-1.243541 -0.79832,-2.325158 -1.94873,-2.712156 z m 2.30153,4.003675 c -0.0402,0 -0.0808,-0.0071 -0.11925,-0.02082 -1.72932,-0.621596 -2.89102,-2.285648 -2.89102,-4.141258 0,-0.09278 0.006,-0.183798 0.0124,-0.274463 l 0.003,-0.04198 c 0.007,-0.10019 0.0561,-0.192616 0.1351,-0.254354 0.0794,-0.06174 0.18169,-0.08643 0.27977,-0.06879 1.69968,0.307975 2.93299,1.78435 2.93299,3.51014 v 0.938741 c 0,0.114652 -0.0558,0.222602 -0.14994,0.288574 -0.0603,0.04233 -0.13124,0.0642 -0.20283,0.0642"
         style="fill:#2c5871;fill-opacity:1;fill-rule:nonzero;stroke:none;stroke-width:0.03527778"
         id="path128" />
      <path
         inkscape:connector-curvature="0"
         d="m -58.460117,94.573727 v 1.067155 c 0,1.00612 0.81846,1.824566 1.82456,1.824566 1.00579,0 1.82457,-0.818446 1.82457,-1.824566 v -1.221671 c -0.45754,-0.37465 -0.83748,-0.843138 -1.11299,-1.367719 -0.55986,0.854427 -1.4912,1.4224 -2.53614,1.522235 z m 1.82456,3.597275 c -1.39488,0 -2.5301,-1.135237 -2.5301,-2.53012 v -1.405467 c 0,-0.206023 0.18733,-0.372533 0.3965,-0.350663 1.13737,-7.94e-4 2.16713,-0.724252 2.54106,-1.800929 0.0494,-0.141816 0.18309,-0.237066 0.33303,-0.237066 0.003,0 0.004,0 0.007,0 0.15277,0.0028 0.28575,0.103362 0.33057,0.249412 0.22754,0.741188 0.69284,1.405115 1.31127,1.869371 0.0885,0.06703 0.14111,0.171096 0.14111,0.282221 v 1.393121 c 0,1.394883 -1.13488,2.53012 -2.53013,2.53012"
         style="fill:#2c5871;fill-opacity:1;fill-rule:nonzero;stroke:none;stroke-width:0.03527778"
         id="path130" />
      <path
         inkscape:connector-curvature="0"
         d="m -57.651177,97.957573 v 0.4953 c 0,0.666396 0.45542,1.208617 1.01562,1.208617 0.56023,0 1.016,-0.542221 1.016,-1.208617 v -0.4953 c -0.63711,0.279046 -1.39416,0.279046 -2.03162,0 z m 1.01562,2.409467 c -0.94932,0 -1.72119,-0.858656 -1.72119,-1.914167 v -1.119364 c 0,-0.136173 0.078,-0.259644 0.20074,-0.318207 0.12205,-0.05856 0.26776,-0.04198 0.37394,0.0441 0.65651,0.531284 1.63689,0.530932 2.2934,0 0.10584,-0.08572 0.25189,-0.102658 0.3736,-0.0441 0.12276,0.05856 0.20108,0.182034 0.20108,0.318207 v 1.119364 c 0,1.055511 -0.77258,1.914167 -1.72157,1.914167"
         style="fill:#2c5871;fill-opacity:1;fill-rule:nonzero;stroke:none;stroke-width:0.03527778"
         id="path132" />
      <path
         inkscape:connector-curvature="0"
         d="m -84.199844,90.323815 c 0.02963,-0.200379 0.04834,-0.404638 0.04834,-0.614892 v -2.630664 c -0.879475,0.711552 -1.996731,1.139118 -3.216619,1.139118 -1.218856,0 -2.337514,-0.427566 -3.217333,-1.139118 v 2.630664 c 0,0.210254 0.01905,0.414513 0.04868,0.614892 -1.534583,0.200377 -2.936531,0.540102 -4.129272,0.9906 0.240585,2.67476 3.414527,4.792133 7.297922,4.792133 3.881597,0 7.057311,-2.117373 7.297897,-4.792133 -1.192742,-0.450146 -2.595034,-0.790223 -4.129617,-0.9906"
         style="fill:#f1fafc;fill-opacity:1;fill-rule:nonzero;stroke:none;stroke-width:0.03527778"
         id="path134" />
      <path
         inkscape:connector-curvature="0"
         d="m -94.279755,91.548659 c 0.408861,2.378781 3.372194,4.20511 6.911631,4.20511 3.539067,0 6.502744,-1.826329 6.911605,-4.20511 -1.124638,-0.398992 -2.397813,-0.693209 -3.789177,-0.87489 -0.09385,-0.01236 -0.178515,-0.06173 -0.235665,-0.137229 -0.05715,-0.0755 -0.08112,-0.170746 -0.06736,-0.264231 0.02998,-0.202494 0.04445,-0.386644 0.04445,-0.563386 v -1.948039 c -0.858308,0.531635 -1.835864,0.809273 -2.86385,0.809273 -1.012137,0 -2.00697,-0.284692 -2.864564,-0.81139 v 1.950156 c 0,0.175329 0.01482,0.359834 0.04479,0.563034 0.01376,0.09384 -0.01032,0.189087 -0.06736,0.264229 -0.05681,0.07585 -0.141817,0.125237 -0.235664,0.137583 -1.392053,0.181681 -2.665598,0.475898 -3.788834,0.87489 z m 6.911631,4.910666 c -4.031562,0 -7.39177,-2.246135 -7.649289,-5.113514 -0.01402,-0.157692 0.07866,-0.305504 0.226483,-0.361596 1.145832,-0.432506 2.444406,-0.756004 3.865034,-0.962731 -0.0082,-0.106892 -0.01244,-0.210609 -0.01244,-0.312561 v -2.630664 c 0,-0.136173 0.07832,-0.259998 0.201084,-0.318559 0.121708,-0.05856 0.267414,-0.04163 0.373591,0.0441 0.857621,0.694267 1.893359,1.060802 2.995454,1.060802 1.102069,0 2.137463,-0.366535 2.994713,-1.060802 0.105833,-0.08537 0.251883,-0.102306 0.373592,-0.0441 0.122766,0.05856 0.201083,0.182386 0.201083,0.318559 v 2.630664 c 0,0.101952 -0.0042,0.205669 -0.01243,0.312209 1.419913,0.207079 2.718858,0.530577 3.865721,0.963083 0.147823,0.05609 0.240612,0.203904 0.226483,0.361596 -0.257519,2.867379 -3.617727,5.113514 -7.649263,5.113514"
         style="fill:#2c5871;fill-opacity:1;fill-rule:nonzero;stroke:none;stroke-width:0.03527778"
         id="path136" />
      <path
         inkscape:connector-curvature="0"
         d="m -61.011387,100.44007 c 1.222,1.01776 2.75624,1.5755 4.34797,1.5755 1.60973,0 3.15736,-0.56867 4.38539,-1.6062 -0.34784,-0.570786 -1.40758,-1.074553 -2.74391,-1.298213 -0.2427,0.744712 -0.87807,1.255883 -1.61362,1.255883 -0.73517,0 -1.37088,-0.511171 -1.61358,-1.255883 -1.36703,0.228245 -2.43523,0.74436 -2.76225,1.328913 z m 4.34797,2.28106 c -1.84713,0 -3.62444,-0.68016 -5.00414,-1.91558 -0.0991,-0.0889 -0.1397,-0.22578 -0.10549,-0.35419 0.27339,-1.021645 1.70849,-1.821041 3.74616,-2.086328 0.19224,-0.02434 0.36581,0.107595 0.39476,0.297743 0.0861,0.578557 0.50516,0.998715 0.99657,0.998715 0.49144,0 0.91054,-0.420158 0.99661,-0.998715 0.0282,-0.190148 0.2018,-0.322439 0.39442,-0.297743 1.99495,0.259643 3.42476,1.039283 3.73168,2.034118 0.0398,0.13123 0.003,0.27305 -0.0999,0.36512 -1.38676,1.26224 -3.18063,1.95686 -5.05071,1.95686"
         style="fill:#2c5871;fill-opacity:1;fill-rule:nonzero;stroke:none;stroke-width:0.03527778"
         id="path138" />
      <path
         inkscape:connector-curvature="0"
         d="m -54.913987,98.412657 c 0.405,0.06703 0.7874,0.156985 1.14334,0.269168 V 93.8717 c 0,-1.579385 -1.2855,-2.864908 -2.86491,-2.864908 -1.57972,0 -2.8649,1.285523 -2.8649,2.864908 v 4.810125 c 0.35597,-0.112183 0.73837,-0.202141 1.14371,-0.269168 v -1.079148 c 0,-0.136173 0.078,-0.259644 0.20074,-0.318207 0.12205,-0.05856 0.26776,-0.04198 0.37394,0.0441 0.65651,0.531284 1.63689,0.530932 2.2934,0 0.10584,-0.08572 0.25189,-0.102658 0.3736,-0.0441 0.12276,0.05856 0.20108,0.182034 0.20108,0.318207 z m 1.49614,1.122537 c -0.0444,0 -0.0893,-0.0081 -0.13161,-0.0254 -0.51223,-0.206021 -1.12958,-0.360537 -1.78646,-0.446617 -0.0935,-0.01198 -0.17849,-0.06138 -0.2353,-0.136525 -0.0572,-0.07549 -0.0815,-0.170391 -0.0677,-0.263877 0.01,-0.06879 0.0193,-0.137935 0.0193,-0.209902 v -0.4953 c -0.63712,0.279046 -1.39417,0.279046 -2.03163,0 v 0.4953 c 0,0.07197 0.009,0.141111 0.019,0.209902 0.0138,0.09349 -0.0109,0.188384 -0.0681,0.263877 -0.0568,0.07514 -0.14144,0.124532 -0.23529,0.136525 -0.65651,0.08608 -1.27389,0.240596 -1.78612,0.446617 -0.10864,0.04375 -0.23212,0.03069 -0.32915,-0.03493 -0.097,-0.06562 -0.1552,-0.175329 -0.1552,-0.292452 v -5.310717 c 0,-1.968852 1.6016,-3.570464 3.57045,-3.570464 1.96887,0 3.57047,1.601612 3.57047,3.570464 v 5.310717 c 0,0.117123 -0.0582,0.226835 -0.15558,0.292452 -0.0593,0.04022 -0.12806,0.06033 -0.19719,0.06033"
         style="fill:#2c5871;fill-opacity:1;fill-rule:nonzero;stroke:none;stroke-width:0.03527778"
         id="path140" />
      <path
         inkscape:connector-curvature="0"
         d="m -133.41057,93.970477 c 0.007,0.65899 0.46002,1.193096 1.016,1.193096 0.54539,0 0.99131,-0.513646 1.01459,-1.156054 -0.0145,0.0081 -0.0303,0.01587 -0.0473,0.02257 -0.0367,0.01905 -0.0984,0.04304 -0.16228,0.06562 -0.008,0.0049 -0.0257,0.01236 -0.043,0.01871 -0.0522,0.01799 -0.0974,0.02999 -0.14252,0.04163 l -0.14534,-0.325967 0.10089,0.337961 c -0.006,0.0019 -0.0445,0.01236 -0.0508,0.01376 -0.0575,0.01304 -0.10795,0.02082 -0.16122,0.02822 -0.0437,0.0074 -0.0638,0.01093 -0.084,0.01341 -0.0653,0.0071 -0.12982,0.0095 -0.19614,0.0113 -0.008,0.0013 -0.0279,0.0028 -0.048,0.0028 -0.079,0 -0.15699,-0.0046 -0.23531,-0.01304 -0.004,-2.64e-4 -0.007,-7.93e-4 -0.0113,-0.0011 -0.27869,-0.0314 -0.54962,-0.117121 -0.80433,-0.252942 z m 1.016,1.89865 c -0.94932,0 -1.72156,-0.85866 -1.72156,-1.913818 v -0.681567 c 0,-0.141817 0.085,-0.270227 0.21626,-0.32526 0.13088,-0.05503 0.28222,-0.0254 0.38347,0.07338 0.29457,0.289631 0.62441,0.4572 0.98001,0.498827 0.004,2.64e-4 0.008,0.0011 0.0124,0.0013 0.0547,0.0063 0.10901,0.0099 0.1644,0.0099 0.0755,-0.0039 0.1203,-0.0049 0.16475,-0.0099 0.005,-0.0011 0.0621,-0.01024 0.0674,-0.01093 0.03,-0.0046 0.0646,-0.0088 0.0988,-0.01659 l 0.0476,-0.01376 c 0.0579,-0.01516 0.0861,-0.02188 0.1143,-0.03175 l 0.0261,-0.01236 c 0.0519,-0.01905 0.0889,-0.03246 0.12523,-0.05009 0.0173,-0.0095 0.031,-0.01659 0.0452,-0.02363 0.0356,-0.01765 0.0748,-0.03704 0.1136,-0.06174 l 0.1778,0.219782 v -0.01482 l -0.14499,-0.22719 c 0.042,-0.02646 0.0832,-0.05362 0.12347,-0.08431 l 0.0356,-0.02963 c 0.0335,-0.02716 0.0691,-0.05715 0.10442,-0.08819 0.10372,-0.09207 0.25153,-0.115359 0.37889,-0.05786 0.12629,0.0568 0.20813,0.18274 0.20813,0.321734 v 0.614539 c 0,1.055159 -0.77223,1.913819 -1.7212,1.913819"
         style="fill:#2c5871;fill-opacity:1;fill-rule:nonzero;stroke:none;stroke-width:0.03527778"
         id="path142" />
      <path
         inkscape:connector-curvature="0"
         d="m -136.46563,96.519298 c 1.17793,0.893938 2.62573,1.382888 4.10599,1.382888 1.49295,0 2.95028,-0.496359 4.13349,-1.40335 -0.50165,-1.038225 -1.39206,-1.858434 -2.4638,-2.276475 -0.11712,0.929216 -0.83714,1.646766 -1.70462,1.646766 -0.85548,0 -1.56739,-0.697441 -1.69968,-1.607608 -1.03188,0.432858 -1.88807,1.244954 -2.37138,2.257779 z m 4.10599,2.088444 c -1.73214,0 -3.42371,-0.606425 -4.76321,-1.70815 -0.11924,-0.09843 -0.16087,-0.262467 -0.10301,-0.405694 0.6036,-1.484137 1.82845,-2.600679 3.36056,-3.063171 0.10689,-0.03316 0.22296,-0.01236 0.31221,0.05433 0.0896,0.06632 0.14252,0.17145 0.14252,0.283279 v 0.186973 c 0,0.666043 0.45579,1.208264 1.016,1.208264 0.56021,0 1.01565,-0.542221 1.01565,-1.208264 v -0.216252 c 0,-0.110421 0.0515,-0.21449 0.13899,-0.280813 0.0882,-0.06703 0.2025,-0.0889 0.30798,-0.05927 1.55469,0.4318 2.85009,1.57974 3.46533,3.07058 0.0589,0.142875 0.018,0.307268 -0.10089,0.406045 -1.34408,1.116896 -3.04624,1.73214 -4.79213,1.73214"
         style="fill:#2c5871;fill-opacity:1;fill-rule:nonzero;stroke:none;stroke-width:0.03527778"
         id="path144" />
      <path
         inkscape:connector-curvature="0"
         d="m -122.92072,73.976798 v 1.064684 c 0,0.343604 0.27975,0.623004 0.62371,0.623004 h 1.21955 c 0.34361,0 0.62336,-0.2794 0.62336,-0.623004 v -1.117248 c -0.38841,0.270933 -0.81985,0.412043 -1.27353,0.412398 -0.42121,-2.65e-4 -0.82515,-0.123121 -1.19309,-0.359834 z m 1.84326,2.393244 h -1.21955 c -0.73272,0 -1.32927,-0.595842 -1.32927,-1.32856 v -1.464027 c 0,-0.140758 0.0251,-0.281165 0.0758,-0.42898 0.0406,-0.117475 0.14005,-0.204962 0.26211,-0.230362 0.12171,-0.02468 0.24765,0.01553 0.33197,0.10795 0.36618,0.400754 0.77999,0.60466 1.22872,0.605012 0.47237,-2.64e-4 0.90417,-0.224012 1.28165,-0.663927 0.0794,-0.09278 0.20037,-0.138289 0.32208,-0.118885 0.12065,0.01871 0.22331,0.09878 0.27058,0.211312 0.0699,0.1651 0.10478,0.339373 0.10478,0.51788 v 1.464027 c 0,0.732718 -0.5962,1.32856 -1.32892,1.32856"
         style="fill:#2c5871;fill-opacity:1;fill-rule:nonzero;stroke:none;stroke-width:0.03527778"
         id="path146" />
      <path
         inkscape:connector-curvature="0"
         d="m -110.67757,99.956059 c -0.88159,0 -1.5988,0.717191 -1.5988,1.599141 v 2.62996 c 0,0.88159 0.71721,1.59879 1.5988,1.59879 h 1.05762 c 0.88196,0 1.59951,-0.7172 1.59951,-1.59879 v -2.62996 c 0,-0.88195 -0.71755,-1.599141 -1.59951,-1.599141 z m 1.05762,6.533441 h -1.05762 c -1.27035,0 -2.30434,-1.03399 -2.30434,-2.30434 v -2.62996 c 0,-1.27106 1.03399,-2.304698 2.30434,-2.304698 h 1.05762 c 1.27106,0 2.30505,1.033638 2.30505,2.304698 v 2.62996 c 0,1.27035 -1.03399,2.30434 -2.30505,2.30434"
         style="fill:#2c5871;fill-opacity:1;fill-rule:nonzero;stroke:none;stroke-width:0.03527778"
         id="path148" />
      <path
         inkscape:connector-curvature="0"
         d="m -111.47733,102.3687 c -0.26881,0 -0.48718,0.21908 -0.48718,0.48754 0,0.26917 0.21837,0.48789 0.48718,0.48789 0.26882,0 0.48789,-0.21872 0.48789,-0.48789 0,-0.26846 -0.21907,-0.48754 -0.48789,-0.48754 z m 0,1.68099 c -0.65791,0 -1.19274,-0.53552 -1.19274,-1.19345 0,-0.65793 0.53483,-1.19309 1.19274,-1.19309 0.65794,0 1.19346,0.53516 1.19346,1.19309 0,0.65793 -0.53552,1.19345 -1.19346,1.19345"
         style="fill:#2c5871;fill-opacity:1;fill-rule:nonzero;stroke:none;stroke-width:0.03527778"
         id="path150" />
      <path
         inkscape:connector-curvature="0"
         d="m -108.8202,102.3687 c -0.26881,0 -0.48754,0.21908 -0.48754,0.48754 0,0.26917 0.21873,0.48789 0.48754,0.48789 0.26882,0 0.48755,-0.21872 0.48755,-0.48789 0,-0.26846 -0.21873,-0.48754 -0.48755,-0.48754 z m 0,1.68099 c -0.65794,0 -1.19308,-0.53552 -1.19308,-1.19345 0,-0.65793 0.53514,-1.19309 1.19308,-1.19309 0.65794,0 1.19309,0.53516 1.19309,1.19309 0,0.65793 -0.53515,1.19345 -1.19309,1.19345"
         style="fill:#2c5871;fill-opacity:1;fill-rule:nonzero;stroke:none;stroke-width:0.03527778"
         id="path152" />
      <path
         inkscape:connector-curvature="0"
         d="m -109.82384,103.12788 h -0.75848 v -0.70556 h 0.75848 v 0.70556"
         style="fill:#2c5871;fill-opacity:1;fill-rule:nonzero;stroke:none;stroke-width:0.03527778"
         id="path154" />
      <path
         inkscape:connector-curvature="0"
         d="m -112.56141,103.99536 c -0.70273,0 -1.27457,-0.5715 -1.27457,-1.27459 v -1.02975 c 0,-0.70309 0.57184,-1.27494 1.27457,-1.27494 v 0.70555 c -0.31361,0 -0.56903,0.25542 -0.56903,0.56939 v 1.02975 c 0,0.31363 0.25542,0.56904 0.56903,0.56904 v 0.70555"
         style="fill:#2c5871;fill-opacity:1;fill-rule:nonzero;stroke:none;stroke-width:0.03527778"
         id="path156" />
      <path
         inkscape:connector-curvature="0"
         d="m -107.73575,103.99536 v -0.70555 c 0.31361,0 0.56867,-0.25541 0.56867,-0.56904 v -1.02975 c 0,-0.31397 -0.25506,-0.56939 -0.56867,-0.56939 v -0.70555 c 0.70273,0 1.27423,0.57185 1.27423,1.27494 v 1.02975 c 0,0.70309 -0.5715,1.27459 -1.27423,1.27459"
         style="fill:#2c5871;fill-opacity:1;fill-rule:nonzero;stroke:none;stroke-width:0.03527778"
         id="path158" />
      <path
         inkscape:connector-curvature="0"
         d="m -109.52822,108.27879 h -1.30141 c -0.55351,0 -1.0033,-0.45014 -1.0033,-1.0033 v -1.08479 h 0.70557 v 1.08479 c 0,0.16404 0.13369,0.29774 0.29773,0.29774 h 1.30141 c 0.16404,0 0.29773,-0.1337 0.29773,-0.29774 v -1.08479 h 0.70557 v 1.08479 c 0,0.55316 -0.45014,1.0033 -1.0033,1.0033"
         style="fill:#2c5871;fill-opacity:1;fill-rule:nonzero;stroke:none;stroke-width:0.03527778"
         id="path160" />
      <path
         inkscape:connector-curvature="0"
         d="m -114.21487,108.6298 c 1.17475,0.86607 2.56223,1.32257 4.02307,1.32257 1.50038,0 2.91748,-0.47908 4.10951,-1.38677 -0.006,-0.87665 -0.72107,-1.58785 -1.59948,-1.58785 h -0.84315 v 0.29774 c 0,0.55316 -0.45014,1.0033 -1.0033,1.0033 h -1.30141 c -0.55351,0 -1.0033,-0.45014 -1.0033,-1.0033 v -0.29774 h -0.78279 c -0.88197,0 -1.59915,0.71719 -1.59915,1.59914 z m 4.02307,2.02812 c -1.67605,0 -3.2639,-0.54398 -4.59176,-1.57339 -0.0864,-0.067 -0.13687,-0.16968 -0.13687,-0.27869 v -0.22895 c 0,-1.27071 1.03399,-2.3047 2.30471,-2.3047 h 1.13559 c 0.19507,0 0.35277,0.15769 0.35277,0.35278 v 0.65052 c 0,0.16404 0.13369,0.29774 0.29773,0.29774 h 1.30141 c 0.16404,0 0.29773,-0.1337 0.29773,-0.29774 v -0.65052 c 0,-0.19509 0.1577,-0.35278 0.3528,-0.35278 h 1.19592 c 1.27105,0 2.30505,1.03399 2.30505,2.3047 v 0.16051 c 0,0.10725 -0.0487,0.20849 -0.1323,0.27552 -1.32609,1.06045 -2.9891,1.645 -4.68278,1.645"
         style="fill:#2c5871;fill-opacity:1;fill-rule:nonzero;stroke:none;stroke-width:0.03527778"
         id="path162" />
      <path
         inkscape:connector-curvature="0"
         d="m -82.20134,80.029759 h -12.368398 c -0.102658,0 -0.200369,-0.0448 -0.267044,-0.122415 -0.06739,-0.07796 -0.09702,-0.181327 -0.08186,-0.282927 l 0.110781,-0.736248 c 0.729536,-4.086929 3.857625,-7.046381 7.439739,-7.046381 3.582088,0 6.709834,2.959452 7.437597,7.036856 l 0.112183,0.745421 -0.697442,0.105833 -0.110754,-0.736248 c -0.754962,-4.2291 -3.963459,-6.446308 -6.741584,-6.446308 -2.778495,0 -5.986991,2.217208 -6.7437,6.455481 l -0.048,0.321379 h 11.958479 v 0.705557"
         style="fill:#2c5871;fill-opacity:1;fill-rule:nonzero;stroke:none;stroke-width:0.03527778"
         id="path164" />
      <path
         inkscape:connector-curvature="0"
         d="m -92.486594,79.676982 v 3.422295 c 0,2.827163 2.291292,5.1181 5.11847,5.1181 2.82575,0 5.118444,-2.290937 5.118444,-5.1181 v -3.422295 c -3.41241,0 -6.824133,0 -10.236914,0"
         style="fill:#ffffff;fill-opacity:1;fill-rule:nonzero;stroke:none;stroke-width:0.03527778"
         id="path166" />
      <path
         inkscape:connector-curvature="0"
         d="m -92.133799,80.029759 v 3.069518 c 0,2.627842 2.137463,4.765323 4.765675,4.765323 2.627842,0 4.765675,-2.137481 4.765675,-4.765323 v -3.069518 z m 4.765675,8.540398 c -3.016964,0 -5.471239,-2.453923 -5.471239,-5.47088 v -3.422295 c 0,-0.194734 0.157692,-0.35278 0.352769,-0.35278 h 10.236914 c 0.195078,0 0.352769,0.158046 0.352769,0.35278 v 3.422295 c 0,3.016957 -2.454619,5.47088 -5.471213,5.47088"
         style="fill:#2c5871;fill-opacity:1;fill-rule:nonzero;stroke:none;stroke-width:0.03527778"
         id="path168" />
      <path
         inkscape:connector-curvature="0"
         d="m -92.440027,81.057048 c -0.0053,0.05997 -0.0087,0.119592 -0.0087,0.178859 -0.004,1.020585 0.883365,1.908527 1.973448,1.938512 1.090427,-0.02998 1.976596,-0.917575 1.973421,-1.938512 0,-0.05927 -0.0034,-0.118888 -0.0085,-0.178507 -1.28905,-0.329141 -2.640171,-0.329141 -3.929592,-2.64e-4"
         style="fill:#cceef5;fill-opacity:1;fill-rule:nonzero;stroke:none;stroke-width:0.03527778"
         id="path170" />
      <path
         inkscape:connector-curvature="0"
         d="m -92.092524,81.337507 c 0.05432,0.789516 0.770467,1.455912 1.617134,1.483783 0.846296,-0.02787 1.563158,-0.694973 1.617133,-1.483783 -1.061164,-0.231423 -2.1717,-0.231423 -3.234267,0 z m 1.617134,2.189691 c -0.0032,0 -0.0066,0 -0.0095,-2.64e-4 -1.282012,-0.03493 -2.321296,-1.063271 -2.316692,-2.29235 0,-0.06773 0.004,-0.137583 0.0098,-0.207785 0.01296,-0.149225 0.118877,-0.274109 0.264239,-0.31115 1.341252,-0.342548 2.765055,-0.341842 4.104217,2.64e-4 0.14605,0.03704 0.252227,0.162984 0.264583,0.312915 0.0056,0.06914 0.0095,0.13829 0.0095,0.207081 0.004,1.227667 -1.03505,2.256013 -2.316692,2.290938 -0.0032,2.64e-4 -0.0063,2.64e-4 -0.0095,2.64e-4"
         style="fill:#2c5871;fill-opacity:1;fill-rule:nonzero;stroke:none;stroke-width:0.03527778"
         id="path172" />
      <path
         inkscape:connector-curvature="0"
         d="m -87.560052,81.057048 c -0.0056,0.05997 -0.0093,0.119592 -0.0093,0.178859 -0.0034,1.020585 0.883338,1.908527 1.973422,1.938512 1.090797,-0.02998 1.976966,-0.917575 1.973791,-1.938512 0,-0.05927 -0.004,-0.118888 -0.0087,-0.178507 -1.28905,-0.329141 -2.640198,-0.329141 -3.929248,-2.64e-4"
         style="fill:#cceef5;fill-opacity:1;fill-rule:nonzero;stroke:none;stroke-width:0.03527778"
         id="path174" />
      <path
         inkscape:connector-curvature="0"
         d="m -87.212919,81.337507 c 0.05469,0.789516 0.770837,1.455912 1.617133,1.483783 0.846323,-0.02787 1.563529,-0.694973 1.617504,-1.483431 -1.061164,-0.232127 -2.17207,-0.231775 -3.234637,-2.65e-4 z m 1.617133,2.189691 c -0.0032,0 -0.0066,0 -0.0095,-2.64e-4 -1.281641,-0.03493 -2.320925,-1.063271 -2.316691,-2.29235 0,-0.06844 0.004,-0.138994 0.01032,-0.209902 0.01402,-0.148519 0.119592,-0.272344 0.26424,-0.309033 1.340538,-0.342548 2.76471,-0.341842 4.103846,2.64e-4 0.14605,0.03704 0.252254,0.162984 0.264583,0.312915 0.0056,0.06844 0.0095,0.136877 0.0098,0.204965 0.004,1.229783 -1.03542,2.258129 -2.317062,2.293054 -0.0032,2.64e-4 -0.0063,2.64e-4 -0.0095,2.64e-4"
         style="fill:#2c5871;fill-opacity:1;fill-rule:nonzero;stroke:none;stroke-width:0.03527778"
         id="path176" />
      <path
         inkscape:connector-curvature="0"
         d="m -87.650355,81.575277 h -0.894635 v -0.705554 h 0.894635 v 0.705554"
         style="fill:#2c5871;fill-opacity:1;fill-rule:nonzero;stroke:none;stroke-width:0.03527778"
         id="path178" />
    </g>
  </g>
</svg>
