<?xml version="1.0" encoding="UTF-8" standalone="no"?>
<!-- Created with Inkscape (http://www.inkscape.org/) -->

<svg
   xmlns:dc="http://purl.org/dc/elements/1.1/"
   xmlns:cc="http://creativecommons.org/ns#"
   xmlns:rdf="http://www.w3.org/1999/02/22-rdf-syntax-ns#"
   xmlns:svg="http://www.w3.org/2000/svg"
   xmlns="http://www.w3.org/2000/svg"
   xmlns:sodipodi="http://sodipodi.sourceforge.net/DTD/sodipodi-0.dtd"
   xmlns:inkscape="http://www.inkscape.org/namespaces/inkscape"
   width="135.48778mm"
   height="133.34949mm"
   viewBox="0 0 135.48778 133.34949"
   version="1.1"
   id="svg6577"
   inkscape:version="0.92.4 (5da689c313, 2019-01-14)"
   sodipodi:docname="online5.svg">
  <defs
     id="defs6571" />
  <sodipodi:namedview
     id="base"
     pagecolor="#ffffff"
     bordercolor="#666666"
     borderopacity="1.0"
     inkscape:pageopacity="0.0"
     inkscape:pageshadow="2"
     inkscape:zoom="0.98994949"
     inkscape:cx="-66.670765"
     inkscape:cy="224.28564"
     inkscape:document-units="mm"
     inkscape:current-layer="layer1"
     showgrid="false"
     inkscape:window-width="1920"
     inkscape:window-height="1017"
     inkscape:window-x="-8"
     inkscape:window-y="-8"
     inkscape:window-maximized="1" />
  <metadata
     id="metadata6574">
    <rdf:RDF>
      <cc:Work
         rdf:about="">
        <dc:format>image/svg+xml</dc:format>
        <dc:type
           rdf:resource="http://purl.org/dc/dcmitype/StillImage" />
        <dc:title></dc:title>
      </cc:Work>
    </rdf:RDF>
  </metadata>
  <g
     inkscape:label="Capa 1"
     inkscape:groupmode="layer"
     id="layer1"
     transform="translate(-37.693942,-52.991924)">
    <rect
       style="fill:#ffc107;fill-opacity:1;stroke:none;stroke-width:0.26458332"
       id="rect8329"
       width="46.33025"
       height="62.099277"
       x="92.663513"
       y="83.8936" />
    <text
       xml:space="preserve"
       style="font-style:normal;font-weight:normal;font-size:4.74242783px;line-height:1.25;font-family:sans-serif;letter-spacing:0px;word-spacing:0px;fill:#ffffff;fill-opacity:1;stroke:none;stroke-width:0.11856069;"
       x="78.724113"
       y="159.82179"
       id="text6767"><tspan
         sodipodi:role="line"
         id="tspan6765"
         x="78.724113"
         y="159.82179"
         style="font-style:normal;font-variant:normal;font-weight:bold;font-stretch:normal;font-family:'Microsoft YaHei';-inkscape-font-specification:'Microsoft YaHei Bold';letter-spacing:0.24341667px;fill:#ffffff;fill-opacity:1;stroke-width:0.11856069;">PROGRAMA ONLINE</tspan></text>
    <g
       id="g6815"
       transform="translate(72.430042,51.850288)">
      <path
         inkscape:connector-curvature="0"
         d="M 83.880081,10.371081 H -17.062697 V 9.9957244 H 83.880081 v 0.3753566"
         style="fill:#8dc2d5;fill-opacity:1;fill-rule:nonzero;stroke:none;stroke-width:0.03527778"
         id="path18" />
      <path
         inkscape:connector-curvature="0"
         d="M 83.880081,126.43884 H -17.062697 v -0.37535 H 83.880081 v 0.37535"
         style="fill:#8dc2d5;fill-opacity:1;fill-rule:nonzero;stroke:none;stroke-width:0.03527778"
         id="path24" />
      <path
         inkscape:connector-curvature="0"
         d="m 91.630251,118.68867 h -0.37535 V 17.745899 h 0.37535 V 118.68867"
         style="fill:#8dc2d5;fill-opacity:1;fill-rule:nonzero;stroke:none;stroke-width:0.03527778"
         id="path30" />
      <path
         inkscape:connector-curvature="0"
         d="m -24.437515,118.68867 h -0.375354 V 17.745899 h 0.375354 V 118.68867"
         style="fill:#8dc2d5;fill-opacity:1;fill-rule:nonzero;stroke:none;stroke-width:0.03527778"
         id="path36" />
    </g>
    <path
       id="path498"
       style="fill:#2c5871;fill-opacity:1;fill-rule:nonzero;stroke:none;stroke-width:0.03527778"
       d="m 138.99382,80.50553 -45.978933,0.0018 0.001,65.48755 45.977883,-0.002 z m 0.002,65.48755 v 0.35277 z m 0,0.70555 H 93.014797 c -0.38806,0 -0.70415,-0.31574 -0.70415,-0.70379 V 80.50553 c 0,-0.388056 0.31609,-0.703792 0.70415,-0.703792 H 138.9962 c 0.3877,0 0.70309,0.315736 0.70309,0.703792 v 65.48931 c 0,0.38805 -0.31539,0.70379 -0.70309,0.70379"
       inkscape:connector-curvature="0" />
    <path
       id="path500"
       style="fill:#cceef5;fill-opacity:1;fill-rule:nonzero;stroke:none;stroke-width:0.03527778"
       d="M 139.3466,83.893604 V 80.50553 c 0,-0.194028 -0.15734,-0.351014 -0.35031,-0.351014 H 93.014887 c -0.19403,0 -0.35137,0.156986 -0.35137,0.351014 v 3.388074 H 139.3466"
       inkscape:connector-curvature="0" />
    <path
       id="path502"
       style="fill:#2c5871;fill-opacity:1;fill-rule:nonzero;stroke:none;stroke-width:0.03527778"
       d="M 93.016297,83.540824 H 138.99382 V 80.50553 l -45.978933,0.0018 z m 46.330303,0.70556 H 92.663517 c -0.19473,0 -0.35278,-0.15769 -0.35278,-0.35278 V 80.50553 c 0,-0.388056 0.31609,-0.703792 0.70415,-0.703792 h 45.981403 c 0.3877,0 0.70309,0.315736 0.70309,0.703792 v 3.388074 c 0,0.19509 -0.15769,0.35278 -0.35278,0.35278"
       inkscape:connector-curvature="0" />
    <path
       id="path504"
       style="fill:#ffffff;fill-opacity:1;fill-rule:nonzero;stroke:none;stroke-width:0.03527778"
       d="m 98.879457,81.991074 c 0,0.33055 -0.26775,0.59867 -0.59795,0.59867 -0.33056,0 -0.59867,-0.26812 -0.59867,-0.59867 0,-0.3309 0.26811,-0.59831 0.59867,-0.59831 0.3302,0 0.59795,0.26741 0.59795,0.59831"
       inkscape:connector-curvature="0" />
    <path
       id="path506"
       style="fill:#2c5871;fill-opacity:1;fill-rule:nonzero;stroke:none;stroke-width:0.03527778"
       d="m 98.281507,81.745544 c -0.13582,0 -0.24589,0.11042 -0.24589,0.24553 0,0.13547 0.11007,0.24589 0.24589,0.24589 0.13546,0 0.24518,-0.11042 0.24518,-0.24589 0,-0.13511 -0.10972,-0.24553 -0.24518,-0.24553 z m 0,1.19697 c -0.52458,0 -0.95145,-0.42686 -0.95145,-0.95144 0,-0.52458 0.42687,-0.95109 0.95145,-0.95109 0.52423,0 0.95073,0.42651 0.95073,0.95109 0,0.52458 -0.4265,0.95144 -0.95073,0.95144"
       inkscape:connector-curvature="0" />
    <path
       id="path508"
       style="fill:#ffffff;fill-opacity:1;fill-rule:nonzero;stroke:none;stroke-width:0.03527778"
       d="m 96.925077,81.991074 c 0,0.33055 -0.26706,0.59867 -0.59761,0.59867 -0.33055,0 -0.59796,-0.26812 -0.59796,-0.59867 0,-0.3309 0.26741,-0.59831 0.59796,-0.59831 0.33055,0 0.59761,0.26741 0.59761,0.59831"
       inkscape:connector-curvature="0" />
    <path
       id="path510"
       style="fill:#2c5871;fill-opacity:1;fill-rule:nonzero;stroke:none;stroke-width:0.03527778"
       d="m 96.327467,81.745544 c -0.13547,0 -0.24518,0.11042 -0.24518,0.24553 0,0.13547 0.10971,0.24589 0.24518,0.24589 0.13512,0 0.24483,-0.11042 0.24483,-0.24589 0,-0.13511 -0.10971,-0.24553 -0.24483,-0.24553 z m 0,1.19697 c -0.52423,0 -0.95073,-0.42686 -0.95073,-0.95144 0,-0.52458 0.4265,-0.95109 0.95073,-0.95109 0.52388,0 0.95038,0.42651 0.95038,0.95109 0,0.52458 -0.4265,0.95144 -0.95038,0.95144"
       inkscape:connector-curvature="0" />
    <path
       id="path512"
       style="fill:#ffffff;fill-opacity:1;fill-rule:nonzero;stroke:none;stroke-width:0.03527778"
       d="m 94.972097,81.991074 c 0,0.33055 -0.26846,0.59867 -0.59937,0.59867 -0.33091,0 -0.59796,-0.26812 -0.59796,-0.59867 0,-0.3309 0.26705,-0.59831 0.59796,-0.59831 0.33091,0 0.59937,0.26741 0.59937,0.59831"
       inkscape:connector-curvature="0" />
    <path
       id="path514"
       style="fill:#2c5871;fill-opacity:1;fill-rule:nonzero;stroke:none;stroke-width:0.03527778"
       d="m 94.372727,81.745544 c -0.13547,0 -0.24518,0.11042 -0.24518,0.24553 0,0.13547 0.10971,0.24589 0.24518,0.24589 0.13617,0 0.24659,-0.11042 0.24659,-0.24589 0,-0.13511 -0.11042,-0.24553 -0.24659,-0.24553 z m 0,1.19697 c -0.52423,0 -0.95074,-0.42686 -0.95074,-0.95144 0,-0.52458 0.42651,-0.95109 0.95074,-0.95109 0.52493,0 0.95215,0.42651 0.95215,0.95109 0,0.52458 -0.42722,0.95144 -0.95215,0.95144"
       inkscape:connector-curvature="0" />
    <path
       id="path516"
       style="fill:#2c5871;fill-opacity:1;fill-rule:nonzero;stroke:none;stroke-width:0.03527778"
       d="m 104.82342,89.999834 h -8.349193 v -0.70555 h 8.349193 v 0.70555"
       inkscape:connector-curvature="0" />
    <path
       id="path518"
       style="fill:#2c5871;fill-opacity:1;fill-rule:nonzero;stroke:none;stroke-width:0.03527778"
       d="m 112.14532,91.528424 h -11.61415 v -0.70556 h 11.61415 v 0.70556"
       inkscape:connector-curvature="0" />
    <path
       id="path520"
       style="fill:#2c5871;fill-opacity:1;fill-rule:nonzero;stroke:none;stroke-width:0.03527778"
       d="m 110.99703,93.057014 h -10.46586 v -0.70556 h 10.46586 v 0.70556"
       inkscape:connector-curvature="0" />
    <path
       id="path522"
       style="fill:#2c5871;fill-opacity:1;fill-rule:nonzero;stroke:none;stroke-width:0.03527778"
       d="m 108.88036,94.585594 h -8.34919 v -0.70555 h 8.34919 v 0.70555"
       inkscape:connector-curvature="0" />
    <path
       id="path524"
       style="fill:#2c5871;fill-opacity:1;fill-rule:nonzero;stroke:none;stroke-width:0.03527778"
       d="m 104.82342,107.28595 h -8.349193 v -0.70556 h 8.349193 v 0.70556"
       inkscape:connector-curvature="0" />
    <path
       id="path526"
       style="fill:#2c5871;fill-opacity:1;fill-rule:nonzero;stroke:none;stroke-width:0.03527778"
       d="m 122.90504,108.81453 h -22.37387 v -0.70555 h 22.37387 v 0.70555"
       inkscape:connector-curvature="0" />
    <path
       id="path528"
       style="fill:#2c5871;fill-opacity:1;fill-rule:nonzero;stroke:none;stroke-width:0.03527778"
       d="m 119.40337,110.34312 h -18.8722 v -0.70556 h 18.8722 v 0.70556"
       inkscape:connector-curvature="0" />
    <path
       id="path530"
       style="fill:#2c5871;fill-opacity:1;fill-rule:nonzero;stroke:none;stroke-width:0.03527778"
       d="m 110.99703,111.8717 h -8.34919 v -0.70555 h 8.34919 v 0.70555"
       inkscape:connector-curvature="0" />
    <path
       id="path532"
       style="fill:#2c5871;fill-opacity:1;fill-rule:nonzero;stroke:none;stroke-width:0.03527778"
       d="m 104.82342,98.995674 h -8.349193 v -0.70556 h 8.349193 v 0.70556"
       inkscape:connector-curvature="0" />
    <path
       id="path534"
       style="fill:#2c5871;fill-opacity:1;fill-rule:nonzero;stroke:none;stroke-width:0.03527778"
       d="m 134.83951,100.52425 h -34.30834 v -0.705546 h 34.30834 v 0.705546"
       inkscape:connector-curvature="0" />
    <path
       id="path536"
       style="fill:#2c5871;fill-opacity:1;fill-rule:nonzero;stroke:none;stroke-width:0.03527778"
       d="m 133.69087,102.05284 h -33.1597 v -0.70556 h 33.1597 v 0.70556"
       inkscape:connector-curvature="0" />
    <path
       id="path538"
       style="fill:#2c5871;fill-opacity:1;fill-rule:nonzero;stroke:none;stroke-width:0.03527778"
       d="m 108.88036,103.58142 h -8.34919 v -0.70555 h 8.34919 v 0.70555"
       inkscape:connector-curvature="0" />
    <path
       id="path540"
       style="fill:#ffffff;fill-opacity:1;fill-rule:nonzero;stroke:none;stroke-width:0.03527778"
       d="m 65.319007,111.97083 h 3.48509 v -5.28955 h -3.48509 z m 3.83787,0.70556 H 64.96623 c -0.195088,0 -0.35278,-0.15805 -0.35278,-0.35278 v -5.9951 c 0,-0.19474 0.157692,-0.35278 0.35278,-0.35278 h 4.190647 c 0.19473,0 0.35278,0.15804 0.35278,0.35278 v 5.9951 c 0,0.19473 -0.15805,0.35278 -0.35278,0.35278"
       inkscape:connector-curvature="0" />
    <path
       id="path542"
       style="fill:#ffffff;fill-opacity:1;fill-rule:nonzero;stroke:none;stroke-width:0.03527778"
       d="m 67.07443,112.40228 c -0.09737,0 -0.17639,-0.079 -0.17639,-0.17639 v -5.79966 c 0,-0.0974 0.07902,-0.17639 0.17639,-0.17639 0.09772,0 0.176387,0.079 0.176387,0.17639 v 5.79966 c 0,0.0974 -0.07867,0.17639 -0.176387,0.17639"
       inkscape:connector-curvature="0" />
    <path
       id="path544"
       style="fill:#ffffff;fill-opacity:1;fill-rule:nonzero;stroke:none;stroke-width:0.03527778"
       d="m 69.183687,108.46352 h -4.218164 c -0.09772,0 -0.176389,-0.079 -0.176389,-0.17639 0,-0.0977 0.07867,-0.17639 0.176389,-0.17639 h 4.218164 c 0.0974,0 0.17639,0.0787 0.17639,0.17639 0,0.0974 -0.079,0.17639 -0.17639,0.17639"
       inkscape:connector-curvature="0" />
    <path
       id="path546"
       style="fill:#ffffff;fill-opacity:1;fill-rule:nonzero;stroke:none;stroke-width:0.03527778"
       d="m 69.183687,110.47118 h -4.218164 c -0.09772,0 -0.176389,-0.0787 -0.176389,-0.17639 0,-0.0974 0.07867,-0.17639 0.176389,-0.17639 h 4.218164 c 0.0974,0 0.17639,0.079 0.17639,0.17639 0,0.0977 -0.079,0.17639 -0.17639,0.17639"
       inkscape:connector-curvature="0" />
    <path
       id="path548"
       style="fill:#ffffff;fill-opacity:1;fill-rule:nonzero;stroke:none;stroke-width:0.03527778"
       d="m 63.967867,109.55254 h -1.308452 c -0.195085,0 -0.352777,-0.15804 -0.352777,-0.35278 0,-0.19473 0.157692,-0.35277 0.352777,-0.35277 h 1.308452 c 0.194733,0 0.35278,0.15804 0.35278,0.35277 0,0.19474 -0.158047,0.35278 -0.35278,0.35278"
       inkscape:connector-curvature="0" />
    <path
       id="path550"
       style="fill:#ffffff;fill-opacity:1;fill-rule:nonzero;stroke:none;stroke-width:0.03527778"
       d="m 61.123422,105.35872 c -0.195088,0 -0.35278,-0.15805 -0.35278,-0.35278 v -0.76799 c 0,-0.19474 0.157692,-0.35278 0.35278,-0.35278 0.195085,0 0.352776,0.15804 0.352776,0.35278 v 0.76799 c 0,0.19473 -0.157691,0.35278 -0.352776,0.35278"
       inkscape:connector-curvature="0" />
    <path
       id="path552"
       style="fill:#ffffff;fill-opacity:1;fill-rule:nonzero;stroke:none;stroke-width:0.03527778"
       d="m 65.503509,105.35872 c -0.195086,0 -0.352777,-0.15805 -0.352777,-0.35278 v -0.76799 c 0,-0.19474 0.157691,-0.35278 0.352777,-0.35278 0.195088,0 0.352779,0.15804 0.352779,0.35278 v 0.76799 c 0,0.19473 -0.157691,0.35278 -0.352779,0.35278"
       inkscape:connector-curvature="0" />
    <path
       id="path554"
       style="fill:#ffffff;fill-opacity:1;fill-rule:nonzero;stroke:none;stroke-width:0.03527778"
       d="m 63.313817,109.42625 c -0.195085,0 -0.352777,-0.15769 -0.352777,-0.35278 v -4.60763 c 0,-0.19473 0.157692,-0.35278 0.352777,-0.35278 0.195088,0 0.35278,0.15805 0.35278,0.35278 v 4.60763 c 0,0.19509 -0.157692,0.35278 -0.35278,0.35278"
       inkscape:connector-curvature="0" />
    <path
       id="path556"
       style="fill:#ffffff;fill-opacity:1;fill-rule:nonzero;stroke:none;stroke-width:0.03527778"
       d="m 65.503509,104.59072 h -4.380087 c -0.195088,0 -0.35278,-0.15769 -0.35278,-0.35277 0,-0.19474 0.157692,-0.35278 0.35278,-0.35278 h 4.380087 c 0.195088,0 0.352779,0.15804 0.352779,0.35278 0,0.19508 -0.157691,0.35277 -0.352779,0.35277"
       inkscape:connector-curvature="0" />
    <path
       id="path558"
       style="fill:#ffffff;fill-opacity:1;fill-rule:nonzero;stroke:none;stroke-width:0.03527778"
       d="m 79.656597,149.62422 c -0.036,0 -0.0734,-0.006 -0.10971,-0.0176 -0.18521,-0.0607 -0.2861,-0.25964 -0.22542,-0.44485 l 2.4765,-7.56709 c 0.0473,-0.14499 0.18238,-0.24306 0.33513,-0.24306 0.1524,0 0.28752,0.0981 0.33514,0.24306 l 2.4758,7.56709 c 0.0603,0.18521 -0.0406,0.38417 -0.22578,0.44485 -0.18415,0.0617 -0.38417,-0.0406 -0.44485,-0.22543 l -2.14031,-6.54226 -2.14136,6.54226 c -0.0483,0.14852 -0.18661,0.24307 -0.33514,0.24307"
       inkscape:connector-curvature="0" />
    <path
       id="path560"
       style="fill:#ffffff;fill-opacity:1;fill-rule:nonzero;stroke:none;stroke-width:0.03527778"
       d="m 80.315237,149.62422 h -1.18145 c -0.19509,0 -0.35278,-0.15805 -0.35278,-0.35278 0,-0.19509 0.15769,-0.35278 0.35278,-0.35278 h 1.18145 c 0.19509,0 0.35278,0.15769 0.35278,0.35278 0,0.19473 -0.15769,0.35278 -0.35278,0.35278"
       inkscape:connector-curvature="0" />
    <path
       id="path562"
       style="fill:#ffffff;fill-opacity:1;fill-rule:nonzero;stroke:none;stroke-width:0.03527778"
       d="m 85.131707,149.62422 h -1.1818 c -0.19508,0 -0.35278,-0.15805 -0.35278,-0.35278 0,-0.19509 0.1577,-0.35278 0.35278,-0.35278 h 1.1818 c 0.19474,0 0.35278,0.15769 0.35278,0.35278 0,0.19473 -0.15804,0.35278 -0.35278,0.35278"
       inkscape:connector-curvature="0" />
    <path
       id="path564"
       style="fill:#ffffff;fill-opacity:1;fill-rule:nonzero;stroke:none;stroke-width:0.03527778"
       d="m 83.714247,147.28989 h -3.16582 c -0.19509,0 -0.35278,-0.1577 -0.35278,-0.35278 0,-0.19473 0.15769,-0.35278 0.35278,-0.35278 h 3.16582 c 0.19509,0 0.35278,0.15805 0.35278,0.35278 0,0.19508 -0.15769,0.35278 -0.35278,0.35278"
       inkscape:connector-curvature="0" />
    <path
       id="path566"
       style="fill:#ffffff;fill-opacity:1;fill-rule:nonzero;stroke:none;stroke-width:0.03527778"
       d="m 86.567517,143.81785 c -0.13793,0.0363 -0.29316,0.0737 -0.46778,0.11218 -0.38841,0.0857 -0.65934,0.14746 -0.80751,0.18732 -0.10089,0.0279 -0.20108,0.0843 -0.29492,0.16616 -0.0427,0.0363 -0.0868,0.0921 -0.0868,0.23143 0,0.12417 0.0416,0.21907 0.13476,0.30762 0.0603,0.0579 0.1651,0.13299 0.3944,0.13299 0.22472,0 0.42404,-0.048 0.60854,-0.14675 0.17569,-0.0931 0.30304,-0.2099 0.37889,-0.34713 0.0469,-0.0819 0.11747,-0.26177 0.1404,-0.64382 z m -1.12783,1.84326 c -0.35807,0 -0.65475,-0.11042 -0.88159,-0.32808 -0.23389,-0.22225 -0.35313,-0.49777 -0.35313,-0.81809 0,-0.40005 0.18062,-0.63712 0.33196,-0.76589 0.17004,-0.14887 0.36301,-0.25505 0.56903,-0.3122 0.15664,-0.0423 0.43815,-0.10654 0.84138,-0.19544 0.38417,-0.0854 0.67239,-0.16404 0.85619,-0.23319 0.1083,-0.0409 0.22966,-0.0261 0.32526,0.0399 0.0949,0.066 0.15205,0.17427 0.15205,0.28998 v 0.20814 c 0,0.56973 -0.0783,0.98284 -0.23919,1.26259 -0.14075,0.25329 -0.36371,0.46461 -0.6611,0.62265 -0.28505,0.1524 -0.60149,0.22966 -0.94086,0.22966"
       inkscape:connector-curvature="0" />
    <path
       id="path568"
       style="fill:#ffffff;fill-opacity:1;fill-rule:nonzero;stroke:none;stroke-width:0.03527778"
       d="m 86.961567,145.62795 c -0.19473,0 -0.35277,-0.15769 -0.35277,-0.35278 v -2.30223 c 0,-0.40569 -0.30375,-0.73589 -0.67734,-0.73589 h -0.24236 c -0.26987,0 -0.51364,0.17392 -0.62124,0.44344 -0.0727,0.18063 -0.2794,0.26741 -0.45861,0.1965 -0.18062,-0.0727 -0.26881,-0.27764 -0.1965,-0.45896 0.21555,-0.53834 0.7165,-0.88654 1.27635,-0.88654 h 0.24236 c 0.76235,0 1.38289,0.64665 1.38289,1.44145 v 2.30223 c 0,0.19509 -0.15769,0.35278 -0.35278,0.35278"
       inkscape:connector-curvature="0" />
    <path
       id="path570"
       style="fill:#cceef5;fill-opacity:1;fill-rule:nonzero;stroke:none;stroke-width:0.03527778"
       d="m 79.891547,111.66392 -4.42277,-4.93501 -4.42278,-4.93466 h 17.69181 l -4.42277,4.93466 -4.42349,4.93501"
       inkscape:connector-curvature="0" />
    <path
       id="path572"
       style="fill:#2c5871;fill-opacity:1;fill-rule:nonzero;stroke:none;stroke-width:0.03527778"
       d="m 71.835877,102.14703 8.05567,8.98843 8.05639,-8.98843 z m 8.05567,9.86966 v 0 c -0.10018,0 -0.19543,-0.0427 -0.26281,-0.11712 l -8.84555,-9.87001 c -0.0928,-0.10372 -0.11607,-0.25224 -0.0593,-0.37924 0.0568,-0.127 0.18274,-0.20885 0.32208,-0.20885 h 17.69181 c 0.13934,0 0.26528,0.0818 0.32208,0.20885 0.0571,0.127 0.0335,0.27552 -0.0589,0.37924 l -8.8466,9.87001 c -0.067,0.0744 -0.16263,0.11712 -0.26282,0.11712"
       inkscape:connector-curvature="0" />
    <path
       id="path574"
       style="fill:#34ca9d;fill-opacity:1;fill-rule:nonzero;stroke:none;stroke-width:0.03527778"
       d="m 79.891547,111.66392 -1.9498,-4.93501 -1.94945,-4.93466 h 7.79921 l -1.9498,4.93466 -1.95016,4.93501"
       inkscape:connector-curvature="0" />
    <path
       id="path576"
       style="fill:#2c5871;fill-opacity:1;fill-rule:nonzero;stroke:none;stroke-width:0.03527778"
       d="m 76.510887,102.14703 3.38066,8.55698 3.38103,-8.55698 z m 3.38066,9.86966 c -0.14463,0 -0.27481,-0.0885 -0.32772,-0.22295 l -3.89961,-9.87002 c -0.043,-0.10865 -0.0293,-0.23142 0.036,-0.32808 0.066,-0.0963 0.17498,-0.15417 0.2921,-0.15417 h 7.79921 c 0.11677,0 0.22613,0.0579 0.29175,0.15417 0.0656,0.0967 0.0794,0.21943 0.0363,0.32808 l -3.89996,9.87002 c -0.0529,0.13441 -0.18344,0.22295 -0.32808,0.22295"
       inkscape:connector-curvature="0" />
    <path
       id="path578"
       style="fill:#cceef5;fill-opacity:1;fill-rule:nonzero;stroke:none;stroke-width:0.03527778"
       d="m 71.045997,101.81718 h 17.69181 l -2.43346,-3.137956 h -12.82488 l -2.43347,3.137956"
       inkscape:connector-curvature="0" />
    <path
       id="path580"
       style="fill:#2c5871;fill-opacity:1;fill-rule:nonzero;stroke:none;stroke-width:0.03527778"
       d="m 71.766027,101.46441 h 16.25176 l -1.8863,-2.432406 h -12.47881 z m 16.97178,0.70555 h -17.69181 c -0.13476,0 -0.25752,-0.0765 -0.31679,-0.19755 -0.0593,-0.12101 -0.0444,-0.26494 0.0381,-0.37148 l 2.43346,-3.137606 c 0.067,-0.0861 0.17004,-0.13687 0.2787,-0.13687 h 12.82488 c 0.10901,0 0.21202,0.0508 0.27869,0.13687 l 2.43346,3.137606 c 0.0829,0.10654 0.0977,0.25047 0.0384,0.37148 -0.0593,0.121 -0.18238,0.19755 -0.31714,0.19755"
       inkscape:connector-curvature="0" />
    <path
       id="path582"
       style="fill:#34ca9d;fill-opacity:1;fill-rule:nonzero;stroke:none;stroke-width:0.03527778"
       d="m 79.891547,98.648534 -3.89925,3.168646 h 7.79921 z"
       inkscape:connector-curvature="0" />
    <path
       id="path584"
       style="fill:#2c5871;fill-opacity:1;fill-rule:nonzero;stroke:none;stroke-width:0.03527778"
       d="m 76.985727,101.46441 h 5.81236 l -2.90654,-2.361496 z m 6.80578,0.70555 h -7.79921 c -0.14922,0 -0.28257,-0.0942 -0.33267,-0.23495 -0.0497,-0.1404 -0.006,-0.29739 0.11007,-0.39158 l 3.89925,-3.168646 c 0.12983,-0.10548 0.31574,-0.10548 0.44521,0 l 3.89996,3.168646 c 0.11571,0.0942 0.15981,0.25118 0.10971,0.39158 -0.0497,0.14076 -0.18309,0.23495 -0.33232,0.23495"
       inkscape:connector-curvature="0" />
    <path
       id="path586"
       style="fill:#34ca9d;fill-opacity:1;fill-rule:nonzero;stroke:none;stroke-width:0.03527778"
       d="m 75.960197,101.81718 -2.47368,-3.137956 h -0.007 l -2.43346,3.137956 h 4.91419"
       inkscape:connector-curvature="0" />
    <path
       id="path588"
       style="fill:#2c5871;fill-opacity:1;fill-rule:nonzero;stroke:none;stroke-width:0.03527778"
       d="m 71.766027,101.46441 h 3.46674 l -1.74766,-2.216856 z m 4.19417,0.70555 h -4.9142 c -0.13476,0 -0.25752,-0.0765 -0.31679,-0.19755 -0.0593,-0.12101 -0.0444,-0.26494 0.0381,-0.37148 l 2.43346,-3.137606 c 0.133,-0.17215 0.42827,-0.17286 0.56268,-0.002 l 2.47368,3.137956 c 0.0836,0.10619 0.0995,0.25083 0.0402,0.37254 -0.0589,0.12135 -0.18203,0.19861 -0.31715,0.19861"
       inkscape:connector-curvature="0" />
    <path
       id="path590"
       style="fill:#34ca9d;fill-opacity:1;fill-rule:nonzero;stroke:none;stroke-width:0.03527778"
       d="m 83.823967,101.81718 2.47368,-3.137956 h 0.007 l 2.43346,3.137956 h -4.91384"
       inkscape:connector-curvature="0" />
    <path
       id="path592"
       style="fill:#2c5871;fill-opacity:1;fill-rule:nonzero;stroke:none;stroke-width:0.03527778"
       d="m 84.551037,101.46441 h 3.46675 l -1.71909,-2.216506 z m 4.19382,0.70555 c -0.002,0 -0.005,2.7e-4 -0.007,0 h -4.91384 c -0.13511,0 -0.25858,-0.0773 -0.3175,-0.19861 -0.0593,-0.12171 -0.0434,-0.26635 0.0406,-0.37254 l 2.47371,-3.137946 c 0.13371,-0.1704 0.42863,-0.16969 0.56233,0.002 l 2.39819,3.091736 c 0.0716,0.0646 0.11641,0.15805 0.11641,0.26211 0,0.19474 -0.15769,0.35278 -0.35278,0.35278"
       inkscape:connector-curvature="0" />
    <path
       id="path594"
       style="fill:#ffffff;fill-opacity:1;fill-rule:nonzero;stroke:none;stroke-width:0.03527778"
       d="m 69.133947,138.74314 v -22.61623 h 52.209703 v 22.61623 H 69.133947"
       inkscape:connector-curvature="0" />
    <path
       id="path596"
       style="fill:#2c5871;fill-opacity:1;fill-rule:nonzero;stroke:none;stroke-width:0.03527778"
       d="M 121.69642,115.77413 H 68.781167 v 23.32179 h 52.915253 z m -0.70555,0.70556 v 21.91067 H 69.486727 v -21.91067 h 51.504143 v 0"
       inkscape:connector-curvature="0" />
    <path
       id="path598"
       style="fill:#2c5871;fill-opacity:1;fill-rule:nonzero;stroke:none;stroke-width:0.03527778"
       d="m 76.433977,119.70866 h -3.73098 v 3.73168 h 3.73098 z m -0.70555,0.70556 v 2.32057 h -2.31987 v -2.32057 h 2.31987 v 0"
       inkscape:connector-curvature="0" />
    <path
       id="path600"
       style="fill:#2c5871;fill-opacity:1;fill-rule:nonzero;stroke:none;stroke-width:0.03527778"
       d="m 81.602177,119.70866 h -3.73204 v 3.73168 h 3.73204 z m -0.70556,0.70556 v 2.32057 h -2.32093 v -2.32057 h 2.32093 v 0"
       inkscape:connector-curvature="0" />
    <path
       id="path602"
       style="fill:#2c5871;fill-opacity:1;fill-rule:nonzero;stroke:none;stroke-width:0.03527778"
       d="m 86.770367,119.70866 h -3.73204 v 3.73168 h 3.73204 z m -0.70556,0.70556 v 2.32057 h -2.32092 v -2.32057 h 2.32092 v 0"
       inkscape:connector-curvature="0" />
    <path
       id="path604"
       style="fill:#2c5871;fill-opacity:1;fill-rule:nonzero;stroke:none;stroke-width:0.03527778"
       d="m 91.937497,119.70866 h -3.73203 v 3.73168 h 3.73203 z m -0.70555,0.70556 v 2.32057 h -2.32093 v -2.32057 h 2.32093 v 0"
       inkscape:connector-curvature="0" />
    <path
       id="path606"
       style="fill:#2c5871;fill-opacity:1;fill-rule:nonzero;stroke:none;stroke-width:0.03527778"
       d="m 97.103937,119.70866 h -3.73169 v 3.73168 h 3.73169 z m -0.70556,0.70556 v 2.32057 h -2.32057 v -2.32057 h 2.32057 v 0"
       inkscape:connector-curvature="0" />
    <path
       id="path608"
       style="fill:#2c5871;fill-opacity:1;fill-rule:nonzero;stroke:none;stroke-width:0.03527778"
       d="m 102.27248,119.70866 h -3.731683 v 3.73168 h 3.731683 z m -0.70555,0.70556 v 2.32057 h -2.320583 v -2.32057 h 2.320583 v 0"
       inkscape:connector-curvature="0" />
    <path
       id="path610"
       style="fill:#2c5871;fill-opacity:1;fill-rule:nonzero;stroke:none;stroke-width:0.03527778"
       d="m 107.43926,119.70866 h -3.73203 v 3.73168 h 3.73203 z m -0.70555,0.70556 v 2.32057 h -2.32092 v -2.32057 h 2.32092 v 0"
       inkscape:connector-curvature="0" />
    <path
       id="path612"
       style="fill:#2c5871;fill-opacity:1;fill-rule:nonzero;stroke:none;stroke-width:0.03527778"
       d="m 112.6064,119.70866 h -3.73098 v 3.73168 h 3.73098 z m -0.70555,0.70556 v 2.32057 h -2.31987 v -2.32057 h 2.31987 v 0"
       inkscape:connector-curvature="0" />
    <path
       id="path614"
       style="fill:#2c5871;fill-opacity:1;fill-rule:nonzero;stroke:none;stroke-width:0.03527778"
       d="m 117.7746,119.70866 h -3.73204 v 3.73168 h 3.73204 z m -0.70556,0.70556 v 2.32057 h -2.32093 v -2.32057 h 2.32093 v 0"
       inkscape:connector-curvature="0" />
    <path
       id="path616"
       style="fill:#2c5871;fill-opacity:1;fill-rule:nonzero;stroke:none;stroke-width:0.03527778"
       d="m 76.433977,124.86028 h -3.73098 v 3.73203 h 3.73098 z m -0.70555,0.70555 v 2.32093 h -2.31987 v -2.32093 h 2.31987 v 0"
       inkscape:connector-curvature="0" />
    <path
       id="path618"
       style="fill:#2c5871;fill-opacity:1;fill-rule:nonzero;stroke:none;stroke-width:0.03527778"
       d="m 81.602177,124.86028 h -3.73204 v 3.73203 h 3.73204 z m -0.70556,0.70555 v 2.32093 h -2.32093 v -2.32093 h 2.32093 v 0"
       inkscape:connector-curvature="0" />
    <path
       id="path620"
       style="fill:#2c5871;fill-opacity:1;fill-rule:nonzero;stroke:none;stroke-width:0.03527778"
       d="m 86.770367,124.86028 h -3.73204 v 3.73203 h 3.73204 z m -0.70556,0.70555 v 2.32093 h -2.32092 v -2.32093 h 2.32092 v 0"
       inkscape:connector-curvature="0" />
    <path
       id="path622"
       style="fill:#2c5871;fill-opacity:1;fill-rule:nonzero;stroke:none;stroke-width:0.03527778"
       d="m 91.937497,124.86028 h -3.73203 v 3.73203 h 3.73203 z m -0.70555,0.70555 v 2.32093 h -2.32093 v -2.32093 h 2.32093 v 0"
       inkscape:connector-curvature="0" />
    <path
       id="path624"
       style="fill:#2c5871;fill-opacity:1;fill-rule:nonzero;stroke:none;stroke-width:0.03527778"
       d="m 97.103937,124.86028 h -3.73169 v 3.73203 h 3.73169 z m -0.70556,0.70555 v 2.32093 h -2.32057 v -2.32093 h 2.32057 v 0"
       inkscape:connector-curvature="0" />
    <path
       id="path626"
       style="fill:#2c5871;fill-opacity:1;fill-rule:nonzero;stroke:none;stroke-width:0.03527778"
       d="m 102.27248,124.86028 h -3.731683 v 3.73203 h 3.731683 z m -0.70555,0.70555 v 2.32093 h -2.320583 v -2.32093 h 2.320583 v 0"
       inkscape:connector-curvature="0" />
    <path
       id="path628"
       style="fill:#2c5871;fill-opacity:1;fill-rule:nonzero;stroke:none;stroke-width:0.03527778"
       d="m 107.43926,124.86028 h -3.73203 v 3.73203 h 3.73203 z m -0.70555,0.70555 v 2.32093 h -2.32092 v -2.32093 h 2.32092 v 0"
       inkscape:connector-curvature="0" />
    <path
       id="path630"
       style="fill:#2c5871;fill-opacity:1;fill-rule:nonzero;stroke:none;stroke-width:0.03527778"
       d="m 112.6064,124.86028 h -3.73098 v 3.73203 h 3.73098 z m -0.70555,0.70555 v 2.32093 h -2.31987 v -2.32093 h 2.31987 v 0"
       inkscape:connector-curvature="0" />
    <path
       id="path632"
       style="fill:#2c5871;fill-opacity:1;fill-rule:nonzero;stroke:none;stroke-width:0.03527778"
       d="m 117.7746,124.86028 h -3.73204 v 3.73203 h 3.73204 z m -0.70556,0.70555 v 2.32093 h -2.32093 v -2.32093 h 2.32093 v 0"
       inkscape:connector-curvature="0" />
    <path
       id="path634"
       style="fill:#2c5871;fill-opacity:1;fill-rule:nonzero;stroke:none;stroke-width:0.03527778"
       d="m 76.433977,130.01365 h -3.73098 v 3.73204 h 3.73098 z m -0.70555,0.70556 v 2.32092 h -2.31987 v -2.32092 h 2.31987 v 0"
       inkscape:connector-curvature="0" />
    <path
       id="path636"
       style="fill:#2c5871;fill-opacity:1;fill-rule:nonzero;stroke:none;stroke-width:0.03527778"
       d="M 102.27248,130.01365 H 77.870137 v 3.73204 h 24.402343 z m -0.70555,0.70556 v 2.32092 H 78.575687 v -2.32092 h 19.96511 2.186163 0.83997 v 0"
       inkscape:connector-curvature="0" />
    <path
       id="path638"
       style="fill:#2c5871;fill-opacity:1;fill-rule:nonzero;stroke:none;stroke-width:0.03527778"
       d="m 107.43926,130.01365 h -3.73203 v 3.73204 h 3.73203 z m -0.70555,0.70556 v 2.32092 h -2.32092 v -2.32092 h 2.32092 v 0"
       inkscape:connector-curvature="0" />
    <path
       id="path640"
       style="fill:#2c5871;fill-opacity:1;fill-rule:nonzero;stroke:none;stroke-width:0.03527778"
       d="m 112.6064,130.01365 h -3.73098 v 3.73204 h 3.73098 z m -0.70555,0.70556 v 2.32092 h -2.31987 v -2.32092 h 2.31987 v 0"
       inkscape:connector-curvature="0" />
    <path
       id="path642"
       style="fill:#2c5871;fill-opacity:1;fill-rule:nonzero;stroke:none;stroke-width:0.03527778"
       d="m 117.7746,130.01365 h -3.73204 v 3.73204 h 3.73204 z m -0.70556,0.70556 v 2.32092 h -2.32093 v -2.32092 h 2.32093 v 0"
       inkscape:connector-curvature="0" />
    <path
       id="path644"
       style="fill:#ffffff;fill-opacity:1;fill-rule:nonzero;stroke:none;stroke-width:0.03527778"
       d="m 76.854837,93.206584 c -0.0903,0 -0.18062,-0.0346 -0.24941,-0.10336 l -3.02366,-3.02507 c -0.13758,-0.13758 -0.13758,-0.36089 0,-0.49883 l 3.02366,-3.02542 c 0.13758,-0.13758 0.36089,-0.13758 0.49883,0 0.13758,0.13758 0.13758,0.36125 0,0.49883 l -2.77389,2.77601 2.77389,2.77565 c 0.13758,0.13758 0.13758,0.36125 0,0.49883 -0.0688,0.0688 -0.15911,0.10336 -0.24942,0.10336"
       inkscape:connector-curvature="0" />
    <path
       id="path646"
       style="fill:#ffffff;fill-opacity:1;fill-rule:nonzero;stroke:none;stroke-width:0.03527778"
       d="m 79.236087,93.206584 c -0.0444,0 -0.0896,-0.008 -0.13335,-0.0261 -0.18062,-0.0737 -0.26705,-0.27975 -0.19332,-0.46002 l 2.46945,-6.05049 c 0.0737,-0.18027 0.2794,-0.26635 0.46002,-0.19333 0.18027,0.0737 0.26705,0.27976 0.19332,0.46003 l -2.46944,6.05049 c -0.0561,0.13652 -0.18803,0.21943 -0.32668,0.21943"
       inkscape:connector-curvature="0" />
    <path
       id="path648"
       style="fill:#ffffff;fill-opacity:1;fill-rule:nonzero;stroke:none;stroke-width:0.03527778"
       d="m 83.709317,93.206584 c -0.0903,0 -0.18063,-0.0346 -0.24977,-0.10336 -0.13758,-0.13758 -0.13758,-0.36125 0,-0.49883 l 2.77424,-2.77565 -2.77424,-2.77601 c -0.13758,-0.13758 -0.13758,-0.36125 0,-0.49883 0.13794,-0.13758 0.36124,-0.13758 0.49918,0 l 3.02331,3.02542 c 0.13758,0.13794 0.13758,0.36125 0,0.49883 l -3.02331,3.02507 c -0.0691,0.0688 -0.15945,0.10336 -0.24941,0.10336"
       inkscape:connector-curvature="0" />
  </g>
</svg>
