<?xml version="1.0" encoding="UTF-8" standalone="no"?>
<svg
   xmlns:dc="http://purl.org/dc/elements/1.1/"
   xmlns:cc="http://creativecommons.org/ns#"
   xmlns:rdf="http://www.w3.org/1999/02/22-rdf-syntax-ns#"
   xmlns:svg="http://www.w3.org/2000/svg"
   xmlns="http://www.w3.org/2000/svg"
   xmlns:sodipodi="http://sodipodi.sourceforge.net/DTD/sodipodi-0.dtd"
   xmlns:inkscape="http://www.inkscape.org/namespaces/inkscape"
   class="svg-icon svg-icon-instagram"
   focusable="false"
   viewBox="0 0 12 12"
   aria-hidden="true"
   version="1.1"
   id="svg936"
   sodipodi:docname="instagram.svg"
   inkscape:version="0.92.3 (2405546, 2018-03-11)">
  <metadata
     id="metadata942">
    <rdf:RDF>
      <cc:Work
         rdf:about="">
        <dc:format>image/svg+xml</dc:format>
        <dc:type
           rdf:resource="http://purl.org/dc/dcmitype/StillImage" />
      </cc:Work>
    </rdf:RDF>
  </metadata>
  <defs
     id="defs940" />
  <sodipodi:namedview
     pagecolor="#ffffff"
     bordercolor="#666666"
     borderopacity="1"
     objecttolerance="10"
     gridtolerance="10"
     guidetolerance="10"
     inkscape:pageopacity="0"
     inkscape:pageshadow="2"
     inkscape:window-width="848"
     inkscape:window-height="480"
     id="namedview938"
     showgrid="false"
     inkscape:zoom="19.666667"
     inkscape:cx="6"
     inkscape:cy="6"
     inkscape:window-x="0"
     inkscape:window-y="28"
     inkscape:window-maximized="0"
     inkscape:current-layer="svg936" />
  <path
     d="M1.54 0h8.92C11.307 0 12 .693 12 1.54v8.92c0 .848-.693 1.54-1.54 1.54H1.54C.694 12 0 11.308 0 10.46V1.54C0 .693.693 0 1.54 0zm7.092 1.2a.538.538 0 0 0-.532.541v1.293c0 .297.239.54.532.54h1.336a.538.538 0 0 0 .532-.54V1.74a.538.538 0 0 0-.532-.541H8.632zM10.8 5.4H9.711c.104.318.16.654.16 1.003 0 1.943-1.723 3.52-3.848 3.52-2.124 0-3.846-1.577-3.846-3.52 0-.349.056-.685.159-1.003H1.2v4.936c0 .256.221.464.491.464h8.618c.27 0 .491-.208.491-.464V5.4zM6.011 3.6A2.405 2.405 0 0 0 3.601 6c0 1.325 1.08 2.4 2.41 2.4A2.405 2.405 0 0 0 8.421 6c0-1.326-1.079-2.4-2.41-2.4z"
     id="path934"
     style="fill:#808080" />
</svg>
