<?xml version="1.0" encoding="UTF-8" standalone="no"?>
<svg
   xmlns:dc="http://purl.org/dc/elements/1.1/"
   xmlns:cc="http://creativecommons.org/ns#"
   xmlns:rdf="http://www.w3.org/1999/02/22-rdf-syntax-ns#"
   xmlns:svg="http://www.w3.org/2000/svg"
   xmlns="http://www.w3.org/2000/svg"
   xmlns:sodipodi="http://sodipodi.sourceforge.net/DTD/sodipodi-0.dtd"
   xmlns:inkscape="http://www.inkscape.org/namespaces/inkscape"
   class="svg-icon svg-icon-youtube"
   focusable="false"
   viewBox="0 0 12 12"
   aria-hidden="true"
   version="1.1"
   id="svg1534"
   sodipodi:docname="youtube.svg"
   inkscape:version="0.92.3 (2405546, 2018-03-11)">
  <metadata
     id="metadata1540">
    <rdf:RDF>
      <cc:Work
         rdf:about="">
        <dc:format>image/svg+xml</dc:format>
        <dc:type
           rdf:resource="http://purl.org/dc/dcmitype/StillImage" />
      </cc:Work>
    </rdf:RDF>
  </metadata>
  <defs
     id="defs1538" />
  <sodipodi:namedview
     pagecolor="#ffffff"
     bordercolor="#666666"
     borderopacity="1"
     objecttolerance="10"
     gridtolerance="10"
     guidetolerance="10"
     inkscape:pageopacity="0"
     inkscape:pageshadow="2"
     inkscape:window-width="848"
     inkscape:window-height="480"
     id="namedview1536"
     showgrid="false"
     inkscape:zoom="19.666667"
     inkscape:cx="6"
     inkscape:cy="6"
     inkscape:window-x="0"
     inkscape:window-y="28"
     inkscape:window-maximized="0"
     inkscape:current-layer="svg1534" />
  <path
     d="M10.921 10.888a1.276 1.276 0 0 1-1.102.975C8.554 12 7.273 12 5.999 12c-1.274 0-2.554 0-3.82-.137a1.275 1.275 0 0 1-1.101-.975C.9 10.138.9 9.317.9 8.543c0-.774.002-1.593.18-2.345a1.275 1.275 0 0 1 1.102-.974c1.265-.138 2.545-.138 3.82-.138 1.274 0 2.554 0 3.819.138.534.058.978.447 1.102.974.178.752.177 1.571.177 2.345 0 .774 0 1.594-.179 2.345zM3.81 6.25H1.66v.626h.726v3.814h.686V6.875h.738v-.626zm1.863 1.132h-.617V9.91c-.136.187-.266.28-.39.28-.082 0-.13-.047-.144-.14-.006-.02-.006-.093-.006-.233V7.38H3.9v2.616c0 .234.02.391.055.492.06.168.198.246.397.246.226 0 .46-.133.704-.406v.36h.617V7.381zm2.341.998c0-.313-.02-.532-.062-.665-.082-.248-.247-.373-.493-.373-.226 0-.437.12-.636.358V6.25h-.617v4.44h.617v-.32c.206.247.417.366.636.366.246 0 .411-.126.493-.372.041-.14.062-.36.062-.666V8.379zm2.327 1.165h-.63c0 .24-.007.373-.012.405-.036.16-.125.24-.276.24-.211 0-.315-.152-.315-.458v-.586h1.233v-.686c0-.353-.062-.612-.191-.78-.173-.226-.418-.338-.727-.338-.315 0-.56.112-.738.339-.131.167-.19.426-.19.78v1.158c0 .351.066.613.197.778.178.226.423.34.747.34.321 0 .574-.12.745-.36a.848.848 0 0 0 .144-.359c.005-.06.013-.193.013-.386v-.087zM9.107 8.339c0-.305.104-.459.31-.459.203 0 .307.154.307.46v.305h-.617V8.34zM7.13 10.19c-.101 0-.204-.046-.307-.146V8.026c.103-.098.206-.146.307-.146.178 0 .268.154.268.452v1.412c0 .299-.09.446-.268.446zm1.33-6.068c-.248.277-.484.411-.712.411-.2 0-.339-.079-.4-.249-.035-.1-.056-.26-.056-.496V1.143h.62v2.461c0 .142 0 .216.009.236.013.094.062.142.145.142.125 0 .256-.094.394-.284V1.143h.623v3.343H8.46V4.12zm-2.6.411c-.311 0-.554-.114-.726-.342-.133-.168-.195-.43-.195-.786V2.233c0-.358.062-.619.195-.788.172-.228.415-.343.725-.343.312 0 .554.115.727.343.13.17.193.43.193.788v1.17c0 .356-.063.62-.193.787-.173.228-.415.342-.727.342zm.296-2.42c0-.31-.096-.464-.297-.464-.201 0-.297.154-.297.463v1.407c0 .31.096.464.297.464.201 0 .297-.155.297-.464V2.11zM4.101 4.485h-.69V2.669c-.063-.322-.202-.794-.423-1.42C2.842.835 2.69.416 2.545 0h.727l.49 1.762L4.234 0h.698l-.83 2.67v1.816z"
     id="path1532"
     style="fill:#808080" />
</svg>
