<?xml version="1.0" encoding="UTF-8" standalone="no"?>
<svg
   xmlns:dc="http://purl.org/dc/elements/1.1/"
   xmlns:cc="http://creativecommons.org/ns#"
   xmlns:rdf="http://www.w3.org/1999/02/22-rdf-syntax-ns#"
   xmlns:svg="http://www.w3.org/2000/svg"
   xmlns="http://www.w3.org/2000/svg"
   xmlns:sodipodi="http://sodipodi.sourceforge.net/DTD/sodipodi-0.dtd"
   xmlns:inkscape="http://www.inkscape.org/namespaces/inkscape"
   class="svg-icon svg-icon-twitter"
   focusable="false"
   viewBox="0 0 12 12"
   aria-hidden="true"
   version="1.1"
   id="svg2132"
   sodipodi:docname="twitter.svg"
   inkscape:version="0.92.3 (2405546, 2018-03-11)">
  <metadata
     id="metadata2138">
    <rdf:RDF>
      <cc:Work
         rdf:about="">
        <dc:format>image/svg+xml</dc:format>
        <dc:type
           rdf:resource="http://purl.org/dc/dcmitype/StillImage" />
      </cc:Work>
    </rdf:RDF>
  </metadata>
  <defs
     id="defs2136" />
  <sodipodi:namedview
     pagecolor="#ffffff"
     bordercolor="#666666"
     borderopacity="1"
     objecttolerance="10"
     gridtolerance="10"
     guidetolerance="10"
     inkscape:pageopacity="0"
     inkscape:pageshadow="2"
     inkscape:window-width="1920"
     inkscape:window-height="996"
     id="namedview2134"
     showgrid="false"
     inkscape:zoom="19.666667"
     inkscape:cx="6"
     inkscape:cy="5.002003"
     inkscape:window-x="0"
     inkscape:window-y="28"
     inkscape:window-maximized="1"
     inkscape:current-layer="svg2132" />
  <path
     d="M12 2.404a4.923 4.923 0 0 1-1.414.388 2.47 2.47 0 0 0 1.082-1.362 4.922 4.922 0 0 1-1.563.597A2.462 2.462 0 0 0 5.91 4.272 6.99 6.99 0 0 1 .836 1.702a2.46 2.46 0 0 0 .762 3.287 2.449 2.449 0 0 1-1.115-.309v.031c0 1.193.848 2.188 1.974 2.414a2.462 2.462 0 0 1-1.111.042 2.465 2.465 0 0 0 2.3 1.71A4.942 4.942 0 0 1 0 9.896a6.97 6.97 0 0 0 3.774 1.106c4.528 0 7.004-3.752 7.004-7.005 0-.107-.002-.213-.007-.318.481-.348.898-.781 1.229-1.275"
     id="path2130"
     style="fill:#808080" />
</svg>
