<?xml version="1.0" encoding="UTF-8" standalone="no"?>
<!-- Generator: Adobe Illustrator 19.0.0, SVG Export Plug-In . SVG Version: 6.00 Build 0)  -->

<svg
   xmlns:dc="http://purl.org/dc/elements/1.1/"
   xmlns:cc="http://creativecommons.org/ns#"
   xmlns:rdf="http://www.w3.org/1999/02/22-rdf-syntax-ns#"
   xmlns:svg="http://www.w3.org/2000/svg"
   xmlns="http://www.w3.org/2000/svg"
   xmlns:sodipodi="http://sodipodi.sourceforge.net/DTD/sodipodi-0.dtd"
   xmlns:inkscape="http://www.inkscape.org/namespaces/inkscape"
   version="1.1"
   id="Capa_1"
   x="0px"
   y="0px"
   viewBox="0 0 512 512"
   style="enable-background:new 0 0 512 512;"
   xml:space="preserve"
   sodipodi:docname="notificacion.svg"
   inkscape:version="0.92.3 (2405546, 2018-03-11)"><metadata
   id="metadata4887"><rdf:RDF><cc:Work
       rdf:about=""><dc:format>image/svg+xml</dc:format><dc:type
         rdf:resource="http://purl.org/dc/dcmitype/StillImage" /><dc:title></dc:title></cc:Work></rdf:RDF></metadata><defs
   id="defs4885" /><sodipodi:namedview
   pagecolor="#ffffff"
   bordercolor="#666666"
   borderopacity="1"
   objecttolerance="10"
   gridtolerance="10"
   guidetolerance="10"
   inkscape:pageopacity="0"
   inkscape:pageshadow="2"
   inkscape:window-width="1368"
   inkscape:window-height="856"
   id="namedview4883"
   showgrid="false"
   inkscape:zoom="0.4609375"
   inkscape:cx="256"
   inkscape:cy="145.18829"
   inkscape:window-x="0"
   inkscape:window-y="28"
   inkscape:window-maximized="0"
   inkscape:current-layer="Capa_1" />
<g
   id="g4844"
   style="fill:#ffffff">
	<g
   id="g4842"
   style="fill:#ffffff">
		<path
   d="M467.812,431.851l-36.629-61.056c-16.917-28.181-25.856-60.459-25.856-93.312V224c0-67.52-45.056-124.629-106.667-143.04    V42.667C298.66,19.136,279.524,0,255.993,0s-42.667,19.136-42.667,42.667V80.96C151.716,99.371,106.66,156.48,106.66,224v53.483    c0,32.853-8.939,65.109-25.835,93.291l-36.629,61.056c-1.984,3.307-2.027,7.403-0.128,10.752c1.899,3.349,5.419,5.419,9.259,5.419    H458.66c3.84,0,7.381-2.069,9.28-5.397C469.839,439.275,469.775,435.136,467.812,431.851z"
   id="path4840"
   style="fill:#ffffff" />
	</g>
</g>
<g
   id="g4850"
   style="fill:#ffffff">
	<g
   id="g4848"
   style="fill:#ffffff">
		<path
   d="M188.815,469.333C200.847,494.464,226.319,512,255.993,512s55.147-17.536,67.179-42.667H188.815z"
   id="path4846"
   style="fill:#ffffff" />
	</g>
</g>
<g
   id="g4852">
</g>
<g
   id="g4854">
</g>
<g
   id="g4856">
</g>
<g
   id="g4858">
</g>
<g
   id="g4860">
</g>
<g
   id="g4862">
</g>
<g
   id="g4864">
</g>
<g
   id="g4866">
</g>
<g
   id="g4868">
</g>
<g
   id="g4870">
</g>
<g
   id="g4872">
</g>
<g
   id="g4874">
</g>
<g
   id="g4876">
</g>
<g
   id="g4878">
</g>
<g
   id="g4880">
</g>
<ellipse
   style="fill:#ff0000;fill-opacity:1;stroke:none;stroke-width:1.23189557;stroke-opacity:1"
   id="path4891"
   cx="367.7941"
   cy="137.76271"
   rx="126.9805"
   ry="126.91526" /><text
   xml:space="preserve"
   style="font-style:normal;font-weight:normal;font-size:206.65414429px;line-height:1.25;font-family:sans-serif;letter-spacing:0px;word-spacing:0px;fill:#000000;fill-opacity:1;stroke:none;stroke-width:5.1663537"
   x="311.45358"
   y="206.1017"
   id="text4895"><tspan
     sodipodi:role="line"
     id="tspan4893"
     x="311.45358"
     y="206.1017"
     style="font-style:normal;font-variant:normal;font-weight:normal;font-stretch:normal;font-size:230.66667175px;font-family:Dyuthi;-inkscape-font-specification:Dyuthi;fill:#ffffff;stroke-width:5.1663537">1</tspan></text>
</svg>